<svg id="bank" xmlns="http://www.w3.org/2000/svg" width="24" height="24" viewBox="0 0 24 24">
  <g id="Rectangle_139657" fill="#fff" stroke="#eff3f5" stroke-width="1" opacity="0.005">
    <rect width="24" height="24" rx="3" stroke="none"/>
    <rect x="0.5" y="0.5" width="23" height="23" rx="2.5" fill="none"/>
  </g>
  <path id="Union_124" d="M15.2,15.464H0a.5.5,0,1,1,0-1H15.2a.5.5,0,0,1,0,1Zm-1.448-2.1H1.447a.5.5,0,1,1,0-1h12.3a.5.5,0,1,1,0,1Zm-1.086-2.079H10.493a.5.5,0,0,1,0-1h.585V7.038h-.585a.5.5,0,0,1,0-1h2.171a.5.5,0,1,1,0,1h-.585v3.248h.585a.5.5,0,0,1,0,1Zm-3.98,0H6.513a.5.5,0,0,1,0-1H7.1V7.038H6.513a.5.5,0,0,1,0-1H8.684a.5.5,0,0,1,0,1H8.1v3.248h.585a.5.5,0,0,1,0,1Zm-3.981,0H2.533a.5.5,0,0,1,0-1h.585V7.038H2.533a.5.5,0,0,1,0-1H4.7a.5.5,0,0,1,0,1H4.118v3.248H4.7a.5.5,0,0,1,0,1ZM15.178,5.052H.062a.5.5,0,0,1-.5-.5V3.73a.5.5,0,0,1,.282-.45C-.111,3.258,4.351,1.1,5.681.388A4.075,4.075,0,0,1,7.59-.233,3.844,3.844,0,0,1,9.484.393c.65.364,1.5.76,2.494,1.219,1.064.493,2.27,1.052,3.436,1.677a.5.5,0,0,1,.264.441v.823A.5.5,0,0,1,15.178,5.052Zm-14.615-1H14.678V4.03c-1.059-.556-2.15-1.061-3.12-1.511C10.55,2.052,9.679,1.648,9,1.266A2.992,2.992,0,0,0,7.59.767a3.17,3.17,0,0,0-1.44.5C4.985,1.891,1.577,3.55.562,4.043Z" transform="translate(4.5 4.5)" fill="#3f82a5"/>
</svg>
