<svg xmlns="http://www.w3.org/2000/svg" width="18" height="18" viewBox="0 0 18 18">
  <g id="comment-question" transform="translate(-2.667 -2.667)">
    <path id="Path_5218" data-name="Path 5218" d="M4.467,2.667h14.4a1.805,1.805,0,0,1,1.8,1.8v10.8a1.805,1.805,0,0,1-1.8,1.8H13.377l-3.33,3.339a.918.918,0,0,1-.63.261h-.45a.9.9,0,0,1-.9-.9v-2.7h-3.6a1.806,1.806,0,0,1-1.8-1.8V4.467a1.8,1.8,0,0,1,1.8-1.8m7.371,3.15A3.412,3.412,0,0,0,9.912,6.3a1.577,1.577,0,0,0-.7,1.485h1.773a.724.724,0,0,1,.234-.567,1.04,1.04,0,0,1,.621-.189.945.945,0,0,1,.684.234.8.8,0,0,1,.243.621,1.185,1.185,0,0,1-.2.666,1.785,1.785,0,0,1-.576.486,4.225,4.225,0,0,0-.963.756,1.513,1.513,0,0,0-.261.972h1.8a1.343,1.343,0,0,1,.126-.612,1.151,1.151,0,0,1,.468-.423,2.736,2.736,0,0,0,1.017-.765,1.7,1.7,0,0,0,.4-1.08,1.819,1.819,0,0,0-.729-1.512,3.26,3.26,0,0,0-2.007-.558m-1.071,5.85v1.8h1.8v-1.8Z"/>
  </g>
</svg>
