<svg xmlns="http://www.w3.org/2000/svg" width="10.205" height="10.2" viewBox="0 0 10.205 10.2">
  <g id="Icon_ionic-ios-link" data-name="Icon ionic-ios-link" transform="translate(0.1 0.1)">
    <path id="Path_5167" data-name="Path 5167" d="M8.891,16.724l-.029,0a.393.393,0,0,0-.228.107L7.1,18.369A1.732,1.732,0,0,1,4.649,15.92L6.28,14.289a1.721,1.721,0,0,1,.271-.221A1.748,1.748,0,0,1,6.9,13.89,1.665,1.665,0,0,1,7.26,13.8a1.686,1.686,0,0,1,.242-.017c.033,0,.067,0,.109,0a1.727,1.727,0,0,1,1.113.5,1.7,1.7,0,0,1,.407.649.374.374,0,0,0,.459.24l.007,0s0,0,0,0a.371.371,0,0,0,.25-.454,2.154,2.154,0,0,0-.585-.975,2.5,2.5,0,0,0-1.369-.7c-.045-.007-.09-.014-.136-.019a2.453,2.453,0,0,0-.264-.014c-.062,0-.124,0-.183.007a2.4,2.4,0,0,0-.385.059c-.026,0-.05.012-.076.019a2.473,2.473,0,0,0-.464.174,2.442,2.442,0,0,0-.659.473L4.1,15.378a2.508,2.508,0,0,0-.725,1.771A2.5,2.5,0,0,0,7.64,18.916l1.552-1.552A.376.376,0,0,0,8.891,16.724Z" transform="translate(-3.375 -9.645)" fill="#4da24e" stroke="#4da24e" stroke-width="0.2"/>
    <path id="Path_5168" data-name="Path 5168" d="M19.215,4.1a2.505,2.505,0,0,0-3.535,0L14.166,5.619a.382.382,0,0,0,.24.651.386.386,0,0,0,.3-.109l1.517-1.512A1.732,1.732,0,0,1,18.673,7.1L17.042,8.729a1.721,1.721,0,0,1-.271.221,1.748,1.748,0,0,1-.352.178,1.664,1.664,0,0,1-.357.088,1.686,1.686,0,0,1-.242.017c-.033,0-.069,0-.109,0a1.709,1.709,0,0,1-1.5-1.105.38.38,0,0,0-.454-.233.384.384,0,0,0-.269.487,2.172,2.172,0,0,0,.563.892h0l0,0a2.5,2.5,0,0,0,1.5.716,2.453,2.453,0,0,0,.264.014q.093,0,.185-.007a2.718,2.718,0,0,0,.459-.076,2.473,2.473,0,0,0,.464-.174,2.442,2.442,0,0,0,.659-.473L19.22,7.642a2.5,2.5,0,0,0,0-3.538Z" transform="translate(-9.945 -3.375)" fill="#4da24e" stroke="#4da24e" stroke-width="0.2"/>
  </g>
</svg>
