<svg xmlns="http://www.w3.org/2000/svg" width="44" height="44" viewBox="0 0 44 44">
  <g id="Group_8764" data-name="Group 8764" transform="translate(-18 -511)">
    <rect id="Rectangle_139641" data-name="Rectangle 139641" width="44" height="44" rx="22" transform="translate(18 511)" fill="#3d57bf"/>
    <path id="Subtraction_25" data-name="Subtraction 25" d="M8.068,17.5A8.065,8.065,0,0,1,.341,7.115l1.1,1.236a6.649,6.649,0,0,0-.088,1.085,6.724,6.724,0,0,0,6.719,6.719c.1,0,.187,0,.281-.006l1.1,1.236A8.055,8.055,0,0,1,8.068,17.5Zm6.565-3.368v0l-.922-1.044a6.662,6.662,0,0,0,.774-1.633h1.4a8.02,8.02,0,0,1-1.25,2.676Zm-5-7.046,0,0L9.379,5.769l3.764-.732A6.756,6.756,0,0,0,8.068,2.723a6.607,6.607,0,0,0-2.9.661L4.249,2.341a8.032,8.032,0,0,1,3.819-.964,8.13,8.13,0,0,1,5.7,2.365L13.093.262,14.423,0l1.151,5.934L9.635,7.088Z" transform="translate(32.065 524.691)" fill="#fff"/>
    <line id="Line_1333" data-name="Line 1333" x2="18.819" y2="21.507" transform="translate(29.898 524.364)" fill="none" stroke="#fff" stroke-width="1.5"/>
  </g>
</svg>
