<svg id="timer" xmlns="http://www.w3.org/2000/svg" width="16" height="16" viewBox="0 0 16 16">
  <path id="Path_3089" d="M0,0H16V16H0Z" fill="none"/>
  <path id="Path_3090" d="M10.18,1H7.568a.661.661,0,0,0,0,1.321H10.18A.661.661,0,0,0,10.18,1ZM8.874,9.589a.659.659,0,0,0,.653-.661V6.286a.653.653,0,1,0-1.306,0V8.929A.659.659,0,0,0,8.874,9.589Zm4.589-4.367.49-.5a.662.662,0,0,0,0-.925l-.007-.007a.643.643,0,0,0-.914,0l-.49.5A5.807,5.807,0,0,0,8.874,2.982,5.974,5.974,0,0,0,3,8.77a5.877,5.877,0,1,0,11.75.159A5.967,5.967,0,0,0,13.463,5.222ZM8.874,13.554a4.625,4.625,0,1,1,4.57-4.625A4.594,4.594,0,0,1,8.874,13.554Z" transform="translate(-0.874 -0.292)" fill="#b4b4b4"/>
</svg>
