<svg xmlns="http://www.w3.org/2000/svg" width="10.999" height="10.844" viewBox="0 0 10.999 10.844">
  <path id="Union_52" d="M2175.2,11237.845a5.526,5.526,0,0,1-3-1.921,5.43,5.43,0,0,1-1.2-3.424,5.5,5.5,0,1,1,7.2,5.232v-1.066a4.5,4.5,0,1,0-5.294-1.461,4.557,4.557,0,0,0,1.295,1.159v-3.813a2.609,2.609,0,0,1,1.376-2.211,2.935,2.935,0,0,1,3.007.22l-.573.818a1.964,1.964,0,0,0-1.921-.178,1.619,1.619,0,0,0-.888,1.325v.641h2.8v1h-2.8v3.515h0v.164Z" transform="translate(-2171.001 -11227.001)" fill="#1964a5"/>
</svg>
