<svg xmlns="http://www.w3.org/2000/svg" width="142.416" height="21.176" viewBox="0 0 142.416 21.176">
  <g id="Group_6323" data-name="Group 6323" transform="translate(-27 -318)">
    <text id="BULLISH" transform="translate(125.656 330.176)" fill="#30303a" font-size="8" font-family="SF Compact Display" font-weight="700"><tspan x="-15" y="0">BULLISH</tspan></text>
    <g id="chart-down" transform="translate(150.259 323.647)">
      <path id="Path_94" data-name="Path 94" d="M14.734,10.688a.67.67,0,0,1-.67-.67V8.282L9.848,12.5a.67.67,0,0,1-.952,0L6.691,10.293,3.145,13.845a.673.673,0,0,1-.952-.952L6.215,8.871a.67.67,0,0,1,.952,0l2.205,2.212,3.747-3.747H11.383a.67.67,0,1,1,0-1.341h3.351a.681.681,0,0,1,.67.67v3.351A.67.67,0,0,1,14.734,10.688Z" transform="translate(-1.996 -5.996)" fill="#30303a"/>
    </g>
    <g id="Group_3941" data-name="Group 3941" transform="translate(27 318)">
      <g id="Path_1615" data-name="Path 1615" transform="translate(0 0)" fill="#30303a">
        <path d="M 76.58585357666016 20.17599868774414 L 10.58799648284912 20.17599868774414 C 5.30116081237793 20.17599868774414 0.9999960660934448 15.87483406066895 0.9999960660934448 10.58799839019775 C 0.9999960660934448 5.301163196563721 5.30116081237793 0.9999983906745911 10.58799648284912 0.9999983906745911 L 76.58585357666016 0.9999983906745911 C 81.87268829345703 0.9999983906745911 86.17385864257812 5.301163196563721 86.17385864257812 10.58799839019775 C 86.17385864257812 15.87483406066895 81.87268829345703 20.17599868774414 76.58585357666016 20.17599868774414 Z" stroke="none"/>
        <path d="M 10.58799743652344 1.999998092651367 C 5.852561950683594 1.999998092651367 2 5.852560997009277 2 10.58799839019775 C 2 15.32343578338623 5.852561950683594 19.17599868774414 10.58799743652344 19.17599868774414 L 76.58585357666016 19.17599868774414 C 81.3212890625 19.17599868774414 85.17385101318359 15.32343578338623 85.17385101318359 10.58799839019775 C 85.17385101318359 5.852560997009277 81.3212890625 1.999998092651367 76.58585357666016 1.999998092651367 L 10.58799743652344 1.999998092651367 M 10.58799743652344 -1.9073486328125e-06 L 76.58585357666016 -1.9073486328125e-06 C 82.43344116210938 -1.9073486328125e-06 87.17385101318359 4.740411758422852 87.17385101318359 10.58799839019775 C 87.17385101318359 16.43558502197266 82.43344116210938 21.17599868774414 76.58585357666016 21.17599868774414 L 10.58799743652344 21.17599868774414 C 4.740409851074219 21.17599868774414 0 16.43558502197266 0 10.58799839019775 C 0 4.740411758422852 4.740409851074219 -1.9073486328125e-06 10.58799743652344 -1.9073486328125e-06 Z" stroke="none" fill="#dbdbdb"/>
      </g>
      <path id="Rectangle_139551" data-name="Rectangle 139551" d="M9.5,0H55a0,0,0,0,1,0,0V19a0,0,0,0,1,0,0H9.5A9.5,9.5,0,0,1,0,9.5v0A9.5,9.5,0,0,1,9.5,0Z" transform="translate(0.656 1.176)" fill="#30303a"/>
      <path id="Rectangle_139555" data-name="Rectangle 139555" d="M0,0H86A10,10,0,0,1,96,10v0A10,10,0,0,1,86,20H0a0,0,0,0,1,0,0V0A0,0,0,0,1,0,0Z" transform="translate(45.656 0.676)" fill="#30303a"/>
      <text id="Trend" transform="translate(10.656 14.176)" fill="#b4b4b4" font-size="9" font-family="SF Compact Display"><tspan x="0" y="0">Trend</tspan></text>
    </g>
    <g id="Group_3871" data-name="Group 3871" transform="translate(64.787 318)">
      <path id="Subtraction_4" data-name="Subtraction 4" d="M47.666,21.176H10.588A10.588,10.588,0,0,1,10.588,0H47.616a12.089,12.089,0,0,0-1.377.877H10.588A9.711,9.711,0,0,0,3.721,17.455,9.648,9.648,0,0,0,10.588,20.3H46.279a12.081,12.081,0,0,0,1.388.875Z" transform="translate(0)" fill="#31d300"/>
      <path id="Subtraction_3" data-name="Subtraction 3" d="M51.323,21.176H14a12.081,12.081,0,0,0,1.391-.877H51.323A9.711,9.711,0,0,0,58.19,3.721,9.648,9.648,0,0,0,51.323.877H15.431A12.085,12.085,0,0,0,14.054,0H51.323a10.588,10.588,0,0,1,0,21.176Z" transform="translate(42.719 0)" fill="#ff3100"/>
      <g id="Group_3868" data-name="Group 3868" transform="translate(10.558 7.821)">
        <path id="Union_1" data-name="Union 1" d="M0,5.644,4.284,1.357,7.261,4.333l2.6-2.6L8.532.248,12.787,0l-.692,4.206-1.252-1.39L7.261,6.4,4.284,3.423,1.032,6.676Z" transform="translate(0 0)" fill="#31d300"/>
      </g>
      <g id="Group_3869" data-name="Group 3869" transform="translate(75.843 6.786)">
        <path id="Union_2" data-name="Union 2" d="M8.531,6.427,9.865,4.946l-2.6-2.6L4.284,5.319,0,1.032,1.032,0,4.284,3.253,7.261.277l3.583,3.583,1.251-1.39.692,4.206Z" transform="translate(0 0)" fill="#ff3100"/>
      </g>
      <g id="Group_6324" data-name="Group 6324" transform="translate(-10)">
        <g id="Path_1516" data-name="Path 1516" transform="translate(52.384 0.545)" fill="none">
          <path d="M9.849,0A9.939,9.939,0,0,1,19.7,10.028,9.939,9.939,0,0,1,9.849,20.056,9.939,9.939,0,0,1,0,10.028,9.939,9.939,0,0,1,9.849,0Z" stroke="none"/>
          <path d="M 9.848530769348145 1.19999885559082 C 5.079710960388184 1.19999885559082 1.200000762939453 5.160228729248047 1.200000762939453 10.02800846099854 C 1.200000762939453 14.89578819274902 5.079710960388184 18.85601806640625 9.848530769348145 18.85601806640625 C 14.61735057830811 18.85601806640625 18.49706077575684 14.89578819274902 18.49706077575684 10.02800846099854 C 18.49706077575684 5.160228729248047 14.61735057830811 1.19999885559082 9.848530769348145 1.19999885559082 M 9.848530769348145 -1.9073486328125e-06 C 15.28772068023682 -1.9073486328125e-06 19.69706153869629 4.489688873291016 19.69706153869629 10.02800846099854 C 19.69706153869629 15.56632804870605 15.28772068023682 20.0560188293457 9.848530769348145 20.0560188293457 C 4.409340858459473 20.0560188293457 0 15.56632804870605 0 10.02800846099854 C 0 4.489688873291016 4.409340858459473 -1.9073486328125e-06 9.848530769348145 -1.9073486328125e-06 Z" stroke="none" fill="#f7991c"/>
        </g>
        <g id="padlock" transform="translate(58.95 5.894)">
          <path id="Path_1515" data-name="Path 1515" d="M7.552,6.973a.662.662,0,0,0-.625.433.682.682,0,0,0,.181.747v.628a.444.444,0,1,0,.888,0V8.153a.682.682,0,0,0,.181-.747.662.662,0,0,0-.625-.433Zm2.22-1.808v-.9a2.22,2.22,0,1,0-4.44,0v.9A1.344,1.344,0,0,0,4,6.521V9.685a1.344,1.344,0,0,0,1.332,1.356h4.44A1.344,1.344,0,0,0,11.1,9.685V6.521A1.344,1.344,0,0,0,9.772,5.165ZM6.22,4.26a1.332,1.332,0,1,1,2.664,0v.9H6.22Zm4,5.425a.448.448,0,0,1-.444.452H5.332a.448.448,0,0,1-.444-.452V6.521a.448.448,0,0,1,.444-.452h4.44a.448.448,0,0,1,.444.452Z" transform="translate(-4 -2)" fill="#f7991c"/>
        </g>
      </g>
    </g>
  </g>
</svg>
