<svg width="16" height="16" viewBox="0 0 16 16" fill="none" xmlns="http://www.w3.org/2000/svg">
    <path
        d="M5.432 9.432L1.6 13.272V12C1.6 11.7878 1.51571 11.5843 1.36569 11.4343C1.21566 11.2843 1.01217 11.2 0.8 11.2C0.587827 11.2 0.384344 11.2843 0.234315 11.4343C0.0842856 11.5843 0 11.7878 0 12V15.2C0.0030989 15.4112 0.0883793 15.6129 0.237742 15.7623C0.387105 15.9116 0.588792 15.9969 0.8 16H4C4.21217 16 4.41566 15.9157 4.56569 15.7657C4.71571 15.6157 4.8 15.4122 4.8 15.2C4.8 14.9878 4.71571 14.7843 4.56569 14.6343C4.41566 14.4843 4.21217 14.4 4 14.4H2.728L6.568 10.568C6.71864 10.4174 6.80327 10.213 6.80327 10C6.80327 9.78696 6.71864 9.58264 6.568 9.432C6.41736 9.28136 6.21304 9.19673 6 9.19673C5.78696 9.19673 5.58264 9.28136 5.432 9.432ZM15.936 0.5C15.8753 0.354072 15.7733 0.229032 15.6426 0.140216C15.5118 0.0514003 15.358 0.00266952 15.2 0H12C11.7878 0 11.5843 0.0842856 11.4343 0.234315C11.2843 0.384344 11.2 0.587827 11.2 0.8C11.2 1.01217 11.2843 1.21566 11.4343 1.36569C11.5843 1.51571 11.7878 1.6 12 1.6H13.272L9.432 5.432C9.28136 5.58264 9.19673 5.78696 9.19673 6C9.19673 6.21304 9.28136 6.41736 9.432 6.568C9.58264 6.71864 9.78696 6.80327 10 6.80327C10.213 6.80327 10.4174 6.71864 10.568 6.568L14.4 2.728V4C14.4 4.21217 14.4843 4.41566 14.6343 4.56569C14.7843 4.71571 14.9878 4.8 15.2 4.8C15.4122 4.8 15.6157 4.71571 15.7657 4.56569C15.9157 4.41566 16 4.21217 16 4V0.8C15.9982 0.696808 15.9765 0.594936 15.936 0.5Z"
        fill="white" />
</svg>
