<svg id="Component_26_2" data-name="Component 26 – 2" xmlns="http://www.w3.org/2000/svg" xmlns:xlink="http://www.w3.org/1999/xlink" width="165.265" height="124.381" viewBox="0 0 165.265 124.381">
  <defs>
    <clipPath id="clip-path">
      <path id="Path_9334" data-name="Path 9334" d="M233.013,0,154.445,1.758a4.641,4.641,0,0,0-4.48,4.78l1.913,99.512a4.633,4.633,0,0,0,4.58,4.6h76.655a4.636,4.636,0,0,0,4.581-4.689V4.691A4.636,4.636,0,0,0,233.115,0h-.1" transform="translate(-149.964 -0.002)" fill="none"/>
    </clipPath>
    <linearGradient id="linear-gradient" x1="0.316" y1="0.864" x2="0.62" y2="0.106" gradientUnits="objectBoundingBox">
      <stop offset="0" stop-color="#017d70"/>
      <stop offset="1" stop-color="#81bda8"/>
    </linearGradient>
    <clipPath id="clip-path-2">
      <rect id="Rectangle_140122" data-name="Rectangle 140122" width="94.609" height="114.007" fill="none"/>
    </clipPath>
    <clipPath id="clip-path-3">
      <rect id="Rectangle_140113" data-name="Rectangle 140113" width="75.97" height="91.826" fill="none"/>
    </clipPath>
    <clipPath id="clip-path-4">
      <rect id="Rectangle_140124" data-name="Rectangle 140124" width="2.343" height="9.981" fill="#68a67e"/>
    </clipPath>
    <clipPath id="clip-path-5">
      <rect id="Rectangle_140126" data-name="Rectangle 140126" width="2.343" height="6.551" fill="#68a67e"/>
    </clipPath>
    <clipPath id="clip-path-6">
      <rect id="Rectangle_140128" data-name="Rectangle 140128" width="2.343" height="15.029" fill="#68a67e"/>
    </clipPath>
    <clipPath id="clip-path-7">
      <rect id="Rectangle_140130" data-name="Rectangle 140130" width="2.343" height="3.611" fill="#68a67e"/>
    </clipPath>
    <clipPath id="clip-path-8">
      <rect id="Rectangle_140132" data-name="Rectangle 140132" width="2.343" height="13.02" fill="#68a67e"/>
    </clipPath>
    <clipPath id="clip-path-9">
      <rect id="Rectangle_140134" data-name="Rectangle 140134" width="2.343" height="10.766" fill="#68a67e"/>
    </clipPath>
    <clipPath id="clip-path-10">
      <rect id="Rectangle_140136" data-name="Rectangle 140136" width="2.343" height="8.315" fill="#68a67e"/>
    </clipPath>
    <clipPath id="clip-path-11">
      <rect id="Rectangle_140138" data-name="Rectangle 140138" width="2.343" height="18.068" fill="#68a67e"/>
    </clipPath>
    <clipPath id="clip-path-12">
      <rect id="Rectangle_140140" data-name="Rectangle 140140" width="2.343" height="16.156" fill="#68a67e"/>
    </clipPath>
    <clipPath id="clip-path-13">
      <rect id="Rectangle_140142" data-name="Rectangle 140142" width="2.343" height="13.265" fill="#68a67e"/>
    </clipPath>
    <clipPath id="clip-path-14">
      <rect id="Rectangle_140144" data-name="Rectangle 140144" width="2.343" height="3.275" fill="#68a67e"/>
    </clipPath>
    <clipPath id="clip-path-15">
      <rect id="Rectangle_140146" data-name="Rectangle 140146" width="2.343" height="9.638" fill="#68a67e"/>
    </clipPath>
    <clipPath id="clip-path-17">
      <path id="Rectangle_140150" data-name="Rectangle 140150" d="M9.587,0h0a9.586,9.586,0,0,1,9.586,9.586V25.262a9.587,9.587,0,0,1-9.587,9.587h0A9.587,9.587,0,0,1,0,25.262V9.587A9.587,9.587,0,0,1,9.587,0Z" fill="#017d70"/>
    </clipPath>
    <linearGradient id="linear-gradient-2" x1="0.696" y1="0.276" x2="0.277" y2="1.044" gradientUnits="objectBoundingBox">
      <stop offset="0" stop-color="#81bda8"/>
      <stop offset="1" stop-color="#017d70"/>
    </linearGradient>
    <clipPath id="clip-path-19">
      <rect id="Rectangle_140151" data-name="Rectangle 140151" width="23.871" height="20.561" fill="none"/>
    </clipPath>
    <clipPath id="clip-path-20">
      <rect id="Rectangle_140154" data-name="Rectangle 140154" width="36.759" height="36.94" fill="none"/>
    </clipPath>
    <clipPath id="clip-path-21">
      <path id="Path_9337" data-name="Path 9337" d="M1577.041,1458.423a.991.991,0,0,1-.975-1.167l2.99-16.559a.991.991,0,0,1,1.158-.8,18.018,18.018,0,0,1,14.468,14.969.991.991,0,0,1-.837,1.13l-16.662,2.415a.994.994,0,0,1-.142.01" transform="translate(-1576.05 -1439.883)" fill="none"/>
    </clipPath>
    <clipPath id="clip-path-22">
      <path id="Path_9338" data-name="Path 9338" d="M1151.755,1651.1a14.719,14.719,0,1,1,2.735-29.181.991.991,0,0,1,.792,1.15l-2.165,11.993,12.068-1.749a.992.992,0,0,1,1.121.831,14.731,14.731,0,0,1-14.55,16.957" transform="translate(-1137.036 -1621.659)" fill="none"/>
    </clipPath>
    <clipPath id="clip-path-23">
      <path id="Path_9355" data-name="Path 9355" d="M1601.1,104.483a2.237,2.237,0,0,0-1.429.516l-4.165,3.458a2.237,2.237,0,0,0,0,3.442l4.165,3.458a2.237,2.237,0,0,0,1.429.516h20.165a2.237,2.237,0,0,0,2.237-2.237V106.72a2.237,2.237,0,0,0-2.237-2.237Z" transform="translate(-1594.695 -104.483)" fill="none"/>
    </clipPath>
    <clipPath id="clip-path-25">
      <path id="Path_9357" data-name="Path 9357" d="M2088.06,178.451l-1.7-1.032,1.882,3.425,2.031-5.058Z" transform="translate(-2086.362 -175.785)" fill="#047e71"/>
    </clipPath>
    <clipPath id="clip-path-26">
      <path id="Path_9339" data-name="Path 9339" d="M3.861,1366.156A3.089,3.089,0,0,0,.8,1368.983c-.257,9.183-1.091,40.859-.693,52.084a2.413,2.413,0,0,0,2.462,2.183c4.79.139,18.79.431,30.3.432H33c4.4,0,8.43-.044,11.431-.156a4.052,4.052,0,0,0,4.11-3.712c.226-9.639.724-36.75-.46-49.169a3.31,3.31,0,0,0-3.139-2.822c-6.2-.549-25.062-1.779-36.234-1.779-1.861,0-3.507.034-4.847.111" transform="translate(0 -1366.045)" fill="none"/>
    </clipPath>
    <clipPath id="clip-path-27">
      <path id="Rectangle_140158" data-name="Rectangle 140158" d="M6.593,0h29.4a6.593,6.593,0,0,1,6.593,6.593v0a6.593,6.593,0,0,1-6.593,6.593H6.593A6.593,6.593,0,0,1,0,6.593v0A6.593,6.593,0,0,1,6.593,0Z" fill="none"/>
    </clipPath>
    <clipPath id="clip-path-29">
      <rect id="Rectangle_140159" data-name="Rectangle 140159" width="39.072" height="10.929" fill="none"/>
    </clipPath>
    <clipPath id="clip-path-30">
      <rect id="Rectangle_140161" data-name="Rectangle 140161" width="7.999" height="4.972" fill="none"/>
    </clipPath>
    <clipPath id="clip-path-31">
      <path id="Path_9341" data-name="Path 9341" d="M105.03,1922.889a2.486,2.486,0,0,1-2.486,2.486H99.517a2.486,2.486,0,0,1,0-4.972h3.026a2.486,2.486,0,0,1,2.486,2.486" transform="translate(-97.031 -1920.403)" fill="none"/>
    </clipPath>
    <clipPath id="clip-path-54">
      <path id="Path_9344" data-name="Path 9344" d="M899.937,1928.271a2.526,2.526,0,1,0,0,5.052h2.925a2.526,2.526,0,1,0,0-5.052Z" transform="translate(-897.411 -1928.271)" fill="none"/>
    </clipPath>
    <clipPath id="clip-path-55">
      <path id="Path_9348" data-name="Path 9348" d="M906.283,2109a2.486,2.486,0,0,0,0,4.972h3.026a2.486,2.486,0,0,0,0-4.972Z" transform="translate(-903.797 -2108.998)" fill="none"/>
    </clipPath>
    <clipPath id="clip-path-56">
      <path id="Rectangle_140190" data-name="Rectangle 140190" d="M3.243,0h0A3.243,3.243,0,0,1,6.485,3.243V9.079a3.243,3.243,0,0,1-3.243,3.243h0A3.243,3.243,0,0,1,0,9.079V3.243A3.243,3.243,0,0,1,3.243,0Z" fill="none"/>
    </clipPath>
  </defs>
  <g id="Group_9090" data-name="Group 9090" transform="translate(34.467)">
    <g id="Group_9091" data-name="Group 9091" transform="translate(6.705)">
      <g id="Group_8903" data-name="Group 8903" transform="translate(6.188 0)">
        <g id="Group_8902" data-name="Group 8902" clip-path="url(#clip-path)">
          <rect id="Rectangle_140112" data-name="Rectangle 140112" width="140.751" height="139.719" transform="matrix(0.684, -0.729, 0.729, 0.684, -55.259, 58.85)" fill="url(#linear-gradient)"/>
        </g>
      </g>
      <g id="Group_8908" data-name="Group 8908" transform="translate(0 0)">
        <g id="Group_8907" data-name="Group 8907" clip-path="url(#clip-path-2)">
          <g id="Group_8906" data-name="Group 8906" transform="translate(12.721 13.939)" opacity="0.8">
            <g id="Group_8905" data-name="Group 8905">
              <g id="Group_8904" data-name="Group 8904" clip-path="url(#clip-path-3)">
                <path id="Path_9335" data-name="Path 9335" d="M383.416,429.63H309.08a.817.817,0,0,1-.817-.817V338.621a.817.817,0,0,1,.817-.817h74.336a.817.817,0,0,1,.817.817v90.192a.817.817,0,0,1-.817.817" transform="translate(-308.263 -337.804)" fill="#fff"/>
              </g>
            </g>
          </g>
          <rect id="Rectangle_140114" data-name="Rectangle 140114" width="41.993" height="3.311" transform="translate(43.736 17.947)" fill="#fff"/>
          <rect id="Rectangle_140115" data-name="Rectangle 140115" width="41.993" height="1.917" transform="translate(43.736 22.652)" fill="#fff"/>
          <rect id="Rectangle_140116" data-name="Rectangle 140116" width="41.993" height="1.917" transform="translate(43.736 25.962)" fill="#fff"/>
          <rect id="Rectangle_140117" data-name="Rectangle 140117" width="41.993" height="1.917" transform="translate(43.736 29.273)" fill="#fff"/>
          <rect id="Rectangle_140118" data-name="Rectangle 140118" width="24.046" height="3.311" transform="translate(18.122 59.417)" fill="#fff"/>
          <rect id="Rectangle_140119" data-name="Rectangle 140119" width="24.046" height="1.917" transform="translate(18.122 64.122)" fill="#fff"/>
          <rect id="Rectangle_140120" data-name="Rectangle 140120" width="24.046" height="1.917" transform="translate(18.122 67.432)" fill="#fff"/>
          <rect id="Rectangle_140121" data-name="Rectangle 140121" width="24.046" height="1.917" transform="translate(18.122 70.743)" fill="#fff"/>
        </g>
      </g>
      <g id="Group_8910" data-name="Group 8910" transform="translate(40.312 42.814)">
        <g id="Group_8909" data-name="Group 8909" clip-path="url(#clip-path-4)">
          <rect id="Rectangle_140123" data-name="Rectangle 140123" width="10.173" height="3.383" transform="translate(-1.046 9.871) rotate(-83.948)" fill="#68a67e"/>
        </g>
      </g>
      <g id="Group_8912" data-name="Group 8912" transform="translate(44.228 46.245)">
        <g id="Group_8911" data-name="Group 8911" clip-path="url(#clip-path-5)">
          <rect id="Rectangle_140125" data-name="Rectangle 140125" width="6.762" height="3.021" transform="translate(-0.687 6.478) rotate(-83.948)" fill="#68a67e"/>
        </g>
      </g>
      <g id="Group_8914" data-name="Group 8914" transform="translate(48.144 37.767)">
        <g id="Group_8913" data-name="Group 8913" clip-path="url(#clip-path-6)">
          <rect id="Rectangle_140127" data-name="Rectangle 140127" width="15.192" height="3.915" transform="matrix(0.105, -0.994, 0.994, 0.105, -1.576, 14.862)" fill="#68a67e"/>
        </g>
      </g>
      <g id="Group_8916" data-name="Group 8916" transform="translate(52.059 49.185)">
        <g id="Group_8915" data-name="Group 8915" clip-path="url(#clip-path-7)">
          <rect id="Rectangle_140129" data-name="Rectangle 140129" width="3.837" height="2.711" transform="translate(-0.379 3.57) rotate(-83.948)" fill="#68a67e"/>
        </g>
      </g>
      <g id="Group_8918" data-name="Group 8918" transform="translate(55.975 39.776)">
        <g id="Group_8917" data-name="Group 8917" clip-path="url(#clip-path-8)">
          <rect id="Rectangle_140131" data-name="Rectangle 140131" width="13.194" height="3.703" transform="translate(-1.365 12.875) rotate(-83.948)" fill="#68a67e"/>
        </g>
      </g>
      <g id="Group_8920" data-name="Group 8920" transform="translate(59.891 42.03)">
        <g id="Group_8919" data-name="Group 8919" clip-path="url(#clip-path-9)">
          <rect id="Rectangle_140133" data-name="Rectangle 140133" width="10.953" height="3.465" transform="translate(-1.129 10.646) rotate(-83.948)" fill="#68a67e"/>
        </g>
      </g>
      <g id="Group_8922" data-name="Group 8922" transform="translate(63.807 44.481)">
        <g id="Group_8921" data-name="Group 8921" clip-path="url(#clip-path-10)">
          <rect id="Rectangle_140135" data-name="Rectangle 140135" width="8.516" height="3.207" transform="translate(-0.872 8.223) rotate(-83.948)" fill="#68a67e"/>
        </g>
      </g>
      <g id="Group_8924" data-name="Group 8924" transform="translate(67.722 34.728)">
        <g id="Group_8923" data-name="Group 8923" clip-path="url(#clip-path-11)">
          <rect id="Rectangle_140137" data-name="Rectangle 140137" width="18.214" height="4.235" transform="translate(-1.894 17.867) rotate(-83.948)" fill="#68a67e"/>
        </g>
      </g>
      <g id="Group_8926" data-name="Group 8926" transform="translate(71.638 36.64)">
        <g id="Group_8925" data-name="Group 8925" clip-path="url(#clip-path-12)">
          <rect id="Rectangle_140139" data-name="Rectangle 140139" width="16.313" height="4.034" transform="translate(-1.694 15.977) rotate(-83.948)" fill="#68a67e"/>
        </g>
      </g>
      <g id="Group_8928" data-name="Group 8928" transform="translate(75.554 39.531)">
        <g id="Group_8927" data-name="Group 8927" clip-path="url(#clip-path-13)">
          <rect id="Rectangle_140141" data-name="Rectangle 140141" width="13.438" height="3.729" transform="translate(-1.391 13.117) rotate(-83.948)" fill="#68a67e"/>
        </g>
      </g>
      <g id="Group_8930" data-name="Group 8930" transform="translate(79.469 49.52)">
        <g id="Group_8929" data-name="Group 8929" clip-path="url(#clip-path-14)">
          <rect id="Rectangle_140143" data-name="Rectangle 140143" width="3.504" height="2.676" transform="matrix(0.105, -0.994, 0.994, 0.105, -0.343, 3.239)" fill="#68a67e"/>
        </g>
      </g>
      <g id="Group_8932" data-name="Group 8932" transform="translate(83.385 43.157)">
        <g id="Group_8931" data-name="Group 8931" clip-path="url(#clip-path-15)">
          <rect id="Rectangle_140145" data-name="Rectangle 140145" width="9.832" height="3.347" transform="translate(-1.01 9.531) rotate(-83.948)" fill="#68a67e"/>
        </g>
      </g>
      <g id="Group_8934" data-name="Group 8934" transform="translate(0 0)">
        <g id="Group_8933" data-name="Group 8933" clip-path="url(#clip-path-2)">
          <rect id="Rectangle_140147" data-name="Rectangle 140147" width="67.606" height="1.917" transform="translate(18.122 99.667)" fill="#fff"/>
        </g>
      </g>
      <g id="Group_8936" data-name="Group 8936" transform="translate(18.122 17.947)">
        <g id="Group_8935" data-name="Group 8935" clip-path="url(#clip-path-17)">
          <rect id="Rectangle_140149" data-name="Rectangle 140149" width="39.392" height="36.22" transform="translate(-16.711 22.36) rotate(-53.227)" fill="url(#linear-gradient-2)"/>
        </g>
      </g>
      <g id="Group_8948" data-name="Group 8948" transform="translate(0 0)">
        <g id="Group_8947" data-name="Group 8947" clip-path="url(#clip-path-2)">
          <g id="Group_8939" data-name="Group 8939" transform="translate(18.296 76.144)" opacity="0.57">
            <g id="Group_8938" data-name="Group 8938">
              <g id="Group_8937" data-name="Group 8937" clip-path="url(#clip-path-19)">
                <path id="Path_9336" data-name="Path 9336" d="M466.553,1865.8H444.085a.7.7,0,0,1-.7-.7v-19.158a.7.7,0,0,1,.7-.7h22.468a.7.7,0,0,1,.7.7V1865.1a.7.7,0,0,1-.7.7" transform="translate(-443.383 -1845.244)" fill="#fff"/>
              </g>
            </g>
          </g>
          <g id="Group_8946" data-name="Group 8946" transform="translate(46.92 59.417)" opacity="0.76">
            <g id="Group_8945" data-name="Group 8945">
              <g id="Group_8944" data-name="Group 8944" clip-path="url(#clip-path-20)">
                <g id="Group_8941" data-name="Group 8941" transform="translate(18.116 0)">
                  <g id="Group_8940" data-name="Group 8940" clip-path="url(#clip-path-21)">
                    <rect id="Rectangle_140152" data-name="Rectangle 140152" width="26.342" height="26.333" transform="matrix(0.738, -0.675, 0.675, 0.738, -9.29, 8.425)" fill="#017d70"/>
                  </g>
                </g>
                <g id="Group_8943" data-name="Group 8943" transform="translate(0 7.501)">
                  <g id="Group_8942" data-name="Group 8942" clip-path="url(#clip-path-22)">
                    <rect id="Rectangle_140153" data-name="Rectangle 140153" width="36.768" height="36.768" transform="matrix(0.293, -0.956, 0.956, 0.293, -8.242, 26.914)" fill="#81bda8"/>
                  </g>
                </g>
              </g>
            </g>
          </g>
        </g>
      </g>
      <g id="Group_9029" data-name="Group 9029" transform="translate(65.806 4.312)">
        <g id="Group_9028" data-name="Group 9028" clip-path="url(#clip-path-23)">
          <rect id="Rectangle_140191" data-name="Rectangle 140191" width="22.981" height="31.123" transform="translate(-4.757 9.202) rotate(-64.002)" fill="#077f71"/>
        </g>
      </g>
      <g id="Group_9031" data-name="Group 9031" transform="translate(0 0)">
        <g id="Group_9030" data-name="Group 9030" clip-path="url(#clip-path-2)">
          <path id="Path_9356" data-name="Path 9356" d="M2050.443,152.032h3.6a1.711,1.711,0,0,1,1.711,1.711v3.6a1.711,1.711,0,0,1-1.711,1.711h-3.6a1.711,1.711,0,0,1-1.711-1.711v-3.6a1.711,1.711,0,0,1,1.711-1.711" transform="translate(-1964.191 -145.758)" fill="#fff"/>
        </g>
      </g>
      <g id="Group_9033" data-name="Group 9033" transform="translate(86.094 7.254)">
        <g id="Group_9032" data-name="Group 9032" clip-path="url(#clip-path-25)">
          <rect id="Rectangle_140193" data-name="Rectangle 140193" width="6.251" height="5.712" transform="translate(-1.968 4.118) rotate(-64.463)" fill="#047e71"/>
        </g>
      </g>
      <rect id="Rectangle_140210" data-name="Rectangle 140210" width="94.609" height="114.007" fill="none"/>
    </g>
    <g id="Group_9089" data-name="Group 9089" transform="translate(0 0)">
      <g id="Group_8950" data-name="Group 8950" transform="translate(6.705 56.37)">
        <g id="Group_8949" data-name="Group 8949" clip-path="url(#clip-path-26)">
          <rect id="Rectangle_140156" data-name="Rectangle 140156" width="49.558" height="57.637" transform="translate(-0.292 0)" fill="#017d70"/>
        </g>
      </g>
      <g id="Group_8952" data-name="Group 8952" transform="translate(9.412 60.654)">
        <g id="Group_8951" data-name="Group 8951" clip-path="url(#clip-path-27)">
          <rect id="Rectangle_140157" data-name="Rectangle 140157" width="22.807" height="44.492" transform="translate(-3.006 12.462) rotate(-76.437)" fill="#ffb152"/>
        </g>
      </g>
      <g id="Group_8972" data-name="Group 8972" transform="translate(6.705)">
        <g id="Group_8971" data-name="Group 8971" clip-path="url(#clip-path-2)">
          <g id="Group_8955" data-name="Group 8955" transform="translate(4.826 62.216)" opacity="0.2">
            <g id="Group_8954" data-name="Group 8954">
              <g id="Group_8953" data-name="Group 8953" clip-path="url(#clip-path-29)">
                <path id="Path_9340" data-name="Path 9340" d="M155.525,1508.819a1.779,1.779,0,0,0-1.252-.542l-34.792-.553a1.781,1.781,0,0,0-1.8,1.615l-.723,7.719c-.059.632.981,1.164,2.306,1.18l34.206.414c1.324.016,2.418-.489,2.429-1.12l.129-7.443a1.781,1.781,0,0,0-.5-1.269" transform="translate(-116.954 -1507.723)" fill="#fff"/>
              </g>
            </g>
          </g>
          <g id="Group_8960" data-name="Group 8960" transform="translate(4.004 79.246)" opacity="0.8">
            <g id="Group_8959" data-name="Group 8959">
              <g id="Group_8958" data-name="Group 8958" clip-path="url(#clip-path-30)">
                <g id="Group_8957" data-name="Group 8957" transform="translate(0 0)">
                  <g id="Group_8956" data-name="Group 8956" clip-path="url(#clip-path-31)">
                    <rect id="Rectangle_140160" data-name="Rectangle 140160" width="9.211" height="9.129" transform="matrix(0.72, -0.694, 0.694, 0.72, -2.484, 2.392)" fill="#81bda8"/>
                  </g>
                </g>
              </g>
            </g>
          </g>
          <g id="Group_9075" data-name="Group 9075" transform="translate(4.004 87.151)" opacity="0.8">
            <g id="Group_8959-2" data-name="Group 8959">
              <g id="Group_8958-2" data-name="Group 8958" clip-path="url(#clip-path-30)">
                <g id="Group_8957-2" data-name="Group 8957" transform="translate(0 0)">
                  <g id="Group_8956-2" data-name="Group 8956" clip-path="url(#clip-path-31)">
                    <rect id="Rectangle_140160-2" data-name="Rectangle 140160" width="9.211" height="9.129" transform="matrix(0.72, -0.694, 0.694, 0.72, -2.484, 2.392)" fill="#81bda8"/>
                  </g>
                </g>
              </g>
            </g>
          </g>
          <g id="Group_9078" data-name="Group 9078" transform="translate(4.004 95.055)" opacity="0.8">
            <g id="Group_8959-3" data-name="Group 8959">
              <g id="Group_8958-3" data-name="Group 8958" clip-path="url(#clip-path-30)">
                <g id="Group_8957-3" data-name="Group 8957" transform="translate(0 0)">
                  <g id="Group_8956-3" data-name="Group 8956" clip-path="url(#clip-path-31)">
                    <rect id="Rectangle_140160-3" data-name="Rectangle 140160" width="9.211" height="9.129" transform="matrix(0.72, -0.694, 0.694, 0.72, -2.484, 2.392)" fill="#81bda8"/>
                  </g>
                </g>
              </g>
            </g>
          </g>
          <g id="Group_9081" data-name="Group 9081" transform="translate(4.004 102.96)" opacity="0.8">
            <g id="Group_8959-4" data-name="Group 8959">
              <g id="Group_8958-4" data-name="Group 8958" clip-path="url(#clip-path-30)">
                <g id="Group_8957-4" data-name="Group 8957" transform="translate(0 0)">
                  <g id="Group_8956-4" data-name="Group 8956" clip-path="url(#clip-path-31)">
                    <rect id="Rectangle_140160-4" data-name="Rectangle 140160" width="9.211" height="9.129" transform="matrix(0.72, -0.694, 0.694, 0.72, -2.484, 2.392)" fill="#81bda8"/>
                  </g>
                </g>
              </g>
            </g>
          </g>
          <g id="Group_9073" data-name="Group 9073" transform="translate(15.296 79.246)" opacity="0.8">
            <g id="Group_8959-5" data-name="Group 8959">
              <g id="Group_8958-5" data-name="Group 8958" clip-path="url(#clip-path-30)">
                <g id="Group_8957-5" data-name="Group 8957" transform="translate(0 0)">
                  <g id="Group_8956-5" data-name="Group 8956" clip-path="url(#clip-path-31)">
                    <rect id="Rectangle_140160-5" data-name="Rectangle 140160" width="9.211" height="9.129" transform="matrix(0.72, -0.694, 0.694, 0.72, -2.484, 2.392)" fill="#81bda8"/>
                  </g>
                </g>
              </g>
            </g>
          </g>
          <g id="Group_9076" data-name="Group 9076" transform="translate(15.296 87.151)" opacity="0.8">
            <g id="Group_8959-6" data-name="Group 8959">
              <g id="Group_8958-6" data-name="Group 8958" clip-path="url(#clip-path-30)">
                <g id="Group_8957-6" data-name="Group 8957" transform="translate(0 0)">
                  <g id="Group_8956-6" data-name="Group 8956" clip-path="url(#clip-path-31)">
                    <rect id="Rectangle_140160-6" data-name="Rectangle 140160" width="9.211" height="9.129" transform="matrix(0.72, -0.694, 0.694, 0.72, -2.484, 2.392)" fill="#81bda8"/>
                  </g>
                </g>
              </g>
            </g>
          </g>
          <g id="Group_9079" data-name="Group 9079" transform="translate(15.296 95.055)" opacity="0.8">
            <g id="Group_8959-7" data-name="Group 8959">
              <g id="Group_8958-7" data-name="Group 8958" clip-path="url(#clip-path-30)">
                <g id="Group_8957-7" data-name="Group 8957" transform="translate(0 0)">
                  <g id="Group_8956-7" data-name="Group 8956" clip-path="url(#clip-path-31)">
                    <rect id="Rectangle_140160-7" data-name="Rectangle 140160" width="9.211" height="9.129" transform="matrix(0.72, -0.694, 0.694, 0.72, -2.484, 2.392)" fill="#81bda8"/>
                  </g>
                </g>
              </g>
            </g>
          </g>
          <g id="Group_9082" data-name="Group 9082" transform="translate(15.296 102.96)" opacity="0.8">
            <g id="Group_8959-8" data-name="Group 8959">
              <g id="Group_8958-8" data-name="Group 8958" clip-path="url(#clip-path-30)">
                <g id="Group_8957-8" data-name="Group 8957" transform="translate(0 0)">
                  <g id="Group_8956-8" data-name="Group 8956" clip-path="url(#clip-path-31)">
                    <rect id="Rectangle_140160-8" data-name="Rectangle 140160" width="9.211" height="9.129" transform="matrix(0.72, -0.694, 0.694, 0.72, -2.484, 2.392)" fill="#81bda8"/>
                  </g>
                </g>
              </g>
            </g>
          </g>
          <g id="Group_9074" data-name="Group 9074" transform="translate(26.589 79.246)" opacity="0.8">
            <g id="Group_8959-9" data-name="Group 8959">
              <g id="Group_8958-9" data-name="Group 8958" clip-path="url(#clip-path-30)">
                <g id="Group_8957-9" data-name="Group 8957" transform="translate(0 0)">
                  <g id="Group_8956-9" data-name="Group 8956" clip-path="url(#clip-path-31)">
                    <rect id="Rectangle_140160-9" data-name="Rectangle 140160" width="9.211" height="9.129" transform="matrix(0.72, -0.694, 0.694, 0.72, -2.484, 2.392)" fill="#81bda8"/>
                  </g>
                </g>
              </g>
            </g>
          </g>
          <g id="Group_9077" data-name="Group 9077" transform="translate(26.589 87.151)" opacity="0.8">
            <g id="Group_8959-10" data-name="Group 8959">
              <g id="Group_8958-10" data-name="Group 8958" clip-path="url(#clip-path-30)">
                <g id="Group_8957-10" data-name="Group 8957" transform="translate(0 0)">
                  <g id="Group_8956-10" data-name="Group 8956" clip-path="url(#clip-path-31)">
                    <rect id="Rectangle_140160-10" data-name="Rectangle 140160" width="9.211" height="9.129" transform="matrix(0.72, -0.694, 0.694, 0.72, -2.484, 2.392)" fill="#81bda8"/>
                  </g>
                </g>
              </g>
            </g>
          </g>
          <g id="Group_9080" data-name="Group 9080" transform="translate(26.589 95.055)" opacity="0.8">
            <g id="Group_8959-11" data-name="Group 8959">
              <g id="Group_8958-11" data-name="Group 8958" clip-path="url(#clip-path-30)">
                <g id="Group_8957-11" data-name="Group 8957" transform="translate(0 0)">
                  <g id="Group_8956-11" data-name="Group 8956" clip-path="url(#clip-path-31)">
                    <rect id="Rectangle_140160-11" data-name="Rectangle 140160" width="9.211" height="9.129" transform="matrix(0.72, -0.694, 0.694, 0.72, -2.484, 2.392)" fill="#81bda8"/>
                  </g>
                </g>
              </g>
            </g>
          </g>
          <g id="Group_9083" data-name="Group 9083" transform="translate(26.589 102.96)" opacity="0.8">
            <g id="Group_8959-12" data-name="Group 8959">
              <g id="Group_8958-12" data-name="Group 8958" clip-path="url(#clip-path-30)">
                <g id="Group_8957-12" data-name="Group 8957" transform="translate(0 0)">
                  <g id="Group_8956-12" data-name="Group 8956" clip-path="url(#clip-path-31)">
                    <rect id="Rectangle_140160-12" data-name="Rectangle 140160" width="9.211" height="9.129" transform="matrix(0.72, -0.694, 0.694, 0.72, -2.484, 2.392)" fill="#81bda8"/>
                  </g>
                </g>
              </g>
            </g>
          </g>
        </g>
      </g>
      <g id="Group_8973" data-name="Group 8973" transform="translate(43.737 79.57)" clip-path="url(#clip-path-54)">
        <rect id="Rectangle_140167" data-name="Rectangle 140167" width="9.014" height="9.352" transform="translate(-2.492 2.939) rotate(-49.699)" fill="#ffb152"/>
      </g>
      <g id="Group_8992" data-name="Group 8992" transform="translate(44 87.028)" clip-path="url(#clip-path-55)">
        <rect id="Rectangle_140175" data-name="Rectangle 140175" width="9.211" height="9.129" transform="translate(-2.484 2.392) rotate(-43.912)" fill="#81bda8"/>
      </g>
      <g id="Group_9026" data-name="Group 9026" transform="translate(44.432 94.594)" clip-path="url(#clip-path-56)">
        <rect id="Rectangle_140189" data-name="Rectangle 140189" width="13.827" height="12.329" transform="translate(-5.755 8.361) rotate(-55.46)" fill="#81bda8"/>
      </g>
      <path id="Path_9369" data-name="Path 9369" d="M342.99,994.8a6.447,6.447,0,1,1-6.108-6.769,6.447,6.447,0,0,1,6.108,6.769" transform="translate(-307.462 -946.824)" fill="#ffce36"/>
      <path id="Path_9400" data-name="Path 9400" d="M340.849,993.671a5.376,5.376,0,1,1-5.093-5.644,5.376,5.376,0,0,1,5.093,5.644" transform="translate(-294.568 -964.892)" fill="#ffce36"/>
      <path id="Path_9402" data-name="Path 9402" d="M340.849,993.671a5.376,5.376,0,1,1-5.093-5.644,5.376,5.376,0,0,1,5.093,5.644" transform="translate(-330.105 -945.752)" fill="#ffce36"/>
      <path id="Path_9401" data-name="Path 9401" d="M346.444,996.614a8.175,8.175,0,1,1-7.745-8.584,8.175,8.175,0,0,1,7.745,8.584" transform="translate(-318.883 -967.691)" fill="#ffce36"/>
      <text id="_2500000" data-name="2500000" transform="translate(47.533 70)" fill="#004a42" font-size="7" font-family="SFCompactDisplay-Bold, SF Compact Display" font-weight="700"><tspan x="-28" y="0">2500000</tspan></text>
    </g>
  </g>
  <g id="Group_9092" data-name="Group 9092" transform="translate(116.504 89.746)">
    <path id="Path_9370" data-name="Path 9370" d="M3386.343,2062.415a4.828,4.828,0,0,0-4.193-2.74c-2.857-.094-5.855,1.235-6.983,3.747a5.672,5.672,0,0,0,2.183,6.714c3.451,2.339,9.524.594,9.769-3.986a7.275,7.275,0,0,0-.776-3.734" transform="translate(-3345.915 -2059.67)" fill="#ffce35"/>
    <path id="Path_9371" data-name="Path 9371" d="M2954.6,2448.464c-.382-.714-1.916-.486-2.525-.509a31.785,31.785,0,0,0-4.308-.009,29.992,29.992,0,0,1-4.228.073c-1.151-.049-2.3-.137-3.451-.214-.5-.034-1-.055-1.5-.066-2-.047-3.988.056-5.989.079-1.285.015-2.527.182-3.813.1a1.688,1.688,0,0,0-1.272.3.793.793,0,0,0-.266.634c.1,1.515.189,3.031.285,4.546.048.77.092,1.54.144,2.311a1.883,1.883,0,0,0,.252,1.191,2.2,2.2,0,0,0,1.795.425c.771-.049,1.534-.081,2.308-.1,1.62-.034,3.268-.164,4.886-.1q.667.024,1.333.043,2.733.08,5.47.063,2.585-.014,5.17-.1c1.261-.042,2.521-.072,3.782-.1.689-.018,2.037.033,1.99-.988-.058-1.3-.031-2.595,0-3.891.013-.649.027-1.3.029-1.947a4.212,4.212,0,0,0-.092-1.74" transform="translate(-2927.252 -2422.708)" fill="#68a67e"/>
    <path id="Path_9372" data-name="Path 9372" d="M3284.086,2293.417a.931.931,0,0,0-.357-1.229,66.129,66.129,0,0,0-8.636-4.713l-.221-.109-4.742-2.343-3.9-1.927c-1.553-.768-4.858-2.572-5.009-2.646a.922.922,0,0,0-1.229.357,49.036,49.036,0,0,0-3.242,6.779c-.294.759.28,1.393.819,1.844a18.279,18.279,0,0,0,2.41,1.658c1.684,1,3.469,1.815,5.224,2.676q.478.233.948.472c1.334.678,2.692,1.472,4.07,2.268,1.5.87,3.013,1.735,4.583,2.48.763.363,1.54.7,2.336.982.7.249,2.01,1.025,2.645.232.275-.343.46-.744.7-1.107.4-.6.792-1.2,1.18-1.807q1.068-1.668,2.107-3.354c.1-.169.223-.336.311-.514" transform="translate(-3235.431 -2266.119)" fill="#68a67e"/>
    <path id="Path_9373" data-name="Path 9373" d="M3394.537,2363.266q1.293-2.743,2.719-5.423.7-1.32,1.437-2.623l-4.742-2.344q-2.463,4.372-4.927,8.741.476.233.948.472c1.334.679,2.692,1.472,4.07,2.269.178-.356.326-.734.494-1.092" transform="translate(-3359.253 -2333.972)" fill="#ffeace"/>
    <path id="Path_9374" data-name="Path 9374" d="M3102.325,2448.2c-1.151-.05-2.3-.137-3.451-.215q-.749-.051-1.5-.066c0,.1,0,.2-.008.3q-.038.873-.078,1.747-.156,3.523-.312,7.046a.771.771,0,0,0,.061.341q2.734.079,5.469.063-.093-4.608-.186-9.214" transform="translate(-3086.036 -2422.885)" fill="#ffeace"/>
    <path id="Path_9375" data-name="Path 9375" d="M2997.19,2263.611c-.045-.572-.19-1.186-.217-1.6a67.35,67.35,0,0,1,.112-8.171c.042-.723-.68-1.052-1.2-1.2-2.276-.64-4.635-.259-6.947-.218-1.01.017-2.25-.261-3.131.441a2.04,2.04,0,0,0-.615,1.812c0,.327.036.666.043.97q.034,1.474.067,2.948l.133,5.837a.872.872,0,0,0,.808.9c1.639-.04,3.361.131,5.032.172a33.5,33.5,0,0,0,5.151-.419c.716-.093.82-.754.763-1.483" transform="translate(-2981.458 -2239.859)" fill="#ffce35"/>
    <path id="Path_9376" data-name="Path 9376" d="M3092,2274.308a8.414,8.414,0,0,1-3.352.3c-.385-.043-.382.561,0,.6a8.842,8.842,0,0,0,3.513-.321.3.3,0,0,0-.161-.581" transform="translate(-3077.971 -2260.457)" fill="#ffeace"/>
    <path id="Path_9377" data-name="Path 9377" d="M3111.8,2313.873a4.677,4.677,0,0,1-1.668.168c-.387-.03-.385.574,0,.6a5.185,5.185,0,0,0,1.829-.19.3.3,0,0,0-.161-.582" transform="translate(-3098.067 -2297.471)" fill="#ffeace"/>
    <path id="Path_9378" data-name="Path 9378" d="M3290.02,2401.951a18.018,18.018,0,0,1-2.709-1.817c-.32-.259-.779.194-.456.456a18.984,18.984,0,0,0,2.84,1.918c.364.2.689-.357.325-.557" transform="translate(-3263.567 -2378.111)" fill="#4a825f"/>
    <path id="Path_9379" data-name="Path 9379" d="M3289.651,2364.255a28.219,28.219,0,0,0-3.253-2.2.322.322,0,0,0-.325.556,27.1,27.1,0,0,1,3.123,2.1c.323.253.783-.2.456-.456" transform="translate(-3262.792 -2342.517)" fill="#4a825f"/>
    <path id="Path_9380" data-name="Path 9380" d="M3306.8,2345.254l-2.256-1.42c-.352-.221-.676.336-.325.557l2.256,1.42c.352.221.676-.336.325-.557" transform="translate(-3279.777 -2325.466)" fill="#4a825f"/>
    <path id="Path_9381" data-name="Path 9381" d="M2952.3,2573.177l-2.772-.056a.322.322,0,0,0,0,.644l2.772.056a.322.322,0,0,0,0-.645" transform="translate(-2947.8 -2540.018)" fill="#4a825f"/>
    <path id="Path_9382" data-name="Path 9382" d="M2946.146,2547.709h-1.612a.323.323,0,0,0,0,.645h1.612a.323.323,0,0,0,0-.645" transform="translate(-2943.128 -2516.244)" fill="#4a825f"/>
    <path id="Path_9383" data-name="Path 9383" d="M2945.147,2520.576q-1.8.11-3.61.069a.322.322,0,0,0,0,.644q1.806.042,3.61-.069c.412-.025.415-.67,0-.645" transform="translate(-2940.325 -2490.859)" fill="#4a825f"/>
  </g>
  <g id="Group_9093" data-name="Group 9093" transform="translate(0 103.633)">
    <path id="Path_9384" data-name="Path 9384" d="M149.4,2354.768l-.254-4.41c.029-.464.056-.929.077-1.394q.177-3.789.027-7.583c-.024-.608-.444-.8-.98-.862-1.228-.146-2.467-.16-3.7-.243a23.1,23.1,0,0,0-3.82-.023c-.8.08-2.626.194-2.683,1.309a32.075,32.075,0,0,0,.088,4.494,66.429,66.429,0,0,0-.027,9.257c.084,1.246,1.692,1.1,2.57,1.171,2.674.2,5.583.819,8.126-.351a.86.86,0,0,0,.436-.878.771.771,0,0,0,.14-.487" transform="translate(-129.083 -2338.844)" fill="#ffce35"/>
    <path id="Path_9385" data-name="Path 9385" d="M11.421,2491.377c-.2-2.13-.062-4.265-.084-6.4-.006-.627.246-1.65-.281-2.139-.377-.35-1.106-.189-1.579-.2-1.3-.037-2.6-.2-3.9-.239a33.247,33.247,0,0,0-3.353.077c-.506.037-2.075.064-2.138.813-.112,1.347.059,2.7-.031,4.042a24.809,24.809,0,0,0,.092,4.382.541.541,0,0,0,.229.359,1.093,1.093,0,0,0,.767.271c3.157.033,6.379.667,9.5-.068a1.208,1.208,0,0,0,.439-.169,1.291,1.291,0,0,0,.338-.727" transform="translate(0 -2471.878)" fill="#ffce35"/>
    <path id="Path_9386" data-name="Path 9386" d="M134.662,2489.339c.018-.924.078-1.858.048-2.782a1.943,1.943,0,0,0-.917-1.742,4.386,4.386,0,0,0-1.907-.455.3.3,0,0,0-.038.6,3.582,3.582,0,0,1,1.675.394c.64.4.592,1.136.579,1.805l-.1,4.992c-.008.387.594.427.6.038l.057-2.853" transform="translate(-123.093 -2473.727)" fill="#ffeace"/>
    <path id="Path_9387" data-name="Path 9387" d="M235.291,2364.411a16.484,16.484,0,0,1-2.66-.054c-.386-.039-.383.565,0,.6a16.54,16.54,0,0,0,2.66.054c.386-.023.388-.627,0-.6" transform="translate(-217.363 -2361.458)" fill="#ffeace"/>
    <path id="Path_9388" data-name="Path 9388" d="M254.673,2404.541l-1.324-.148c-.385-.043-.382.56,0,.6l1.324.148c.385.043.382-.56,0-.6" transform="translate(-236.745 -2398.912)" fill="#ffeace"/>
    <path id="Path_9389" data-name="Path 9389" d="M105.677,2512.266a8.122,8.122,0,0,1-2.094.076c-.387-.034-.384.57,0,.6a8.766,8.766,0,0,0,2.255-.1c.382-.065.22-.647-.16-.582" transform="translate(-96.634 -2499.828)" fill="#ffeace"/>
    <path id="Path_9390" data-name="Path 9390" d="M117.557,2552.923a1.052,1.052,0,0,1-.858-.018c-.348-.169-.654.351-.3.521a1.648,1.648,0,0,0,1.323.079c.359-.137.2-.72-.16-.582" transform="translate(-108.746 -2537.821)" fill="#ffeace"/>
    <path id="Path_9391" data-name="Path 9391" d="M415.908,2461.45a1.407,1.407,0,0,0-.557-.772,3.438,3.438,0,0,0-1.717-.383c-2.887-.118-5.783-.106-8.681-.072-1.613.018-3.226.043-4.84.057-1.8.016-3.608.016-5.41-.023q-2.308-.05-4.617-.12a.913.913,0,0,0-.9.9c.009.2.1,7.351.176,7.576v.007c0,.362.568.6.848.687a5.722,5.722,0,0,0,1.564.11l1.469.039q2.059.053,4.118.09,1.466.026,2.933.041c1.768.017,3.469.016,4.784-.018.315-.008.609-.019.876-.031,10.053-.466,9.344.936,9.79-1.473a21.479,21.479,0,0,0,.23-3.271,10.463,10.463,0,0,0-.062-3.348" transform="translate(-364.089 -2451.064)" fill="#68a67e"/>
    <path id="Path_9392" data-name="Path 9392" d="M562.949,2461.48c-1.613.018-3.227.043-4.84.057a85.568,85.568,0,0,0,.176,9.312c1.768.017,3.469.016,4.783-.018q.011-4.677-.12-9.35" transform="translate(-522.086 -2452.321)" fill="#ffeace"/>
    <path id="Path_9393" data-name="Path 9393" d="M514.049,2320.686a.836.836,0,0,0-.028-.178c-.157-.581-.376-.959-1.03-1.03a14.415,14.415,0,0,0-1.537.02c-.767,0-1.534-.019-2.3-.038l-.8-.02c-1.652-.035-3.31.042-4.962.071l-.416.007-5.355.095-4.075.072-5.643.1a.917.917,0,0,0-.9.9c.007.153.124,4.789.266,6.964,0,.015,0,.03,0,.046,0,.034.005.068.01.1.006.086.011.172.017.258a.922.922,0,0,0,.9.9.994.994,0,0,0,.385-.1l9.012.019,5.47.011,4.735.01c1.614,0,5.118-.022,5.27-.029a.922.922,0,0,0,.9-.905q.055-3.529.11-7.058a.814.814,0,0,0-.03-.225" transform="translate(-455.597 -2319.43)" fill="#68a67e"/>
    <path id="Path_9394" data-name="Path 9394" d="M656.707,2320.771l-5.355.095q-.007,4.047,0,8.095c0,.354-.024.766-.025,1.175l5.47.011a1.618,1.618,0,0,0,.088-.568q-.086-4.4-.173-8.808" transform="translate(-609.331 -2320.685)" fill="#ffeace"/>
    <path id="Path_9395" data-name="Path 9395" d="M509.664,2440.742a11.08,11.08,0,0,1-3.135-.046c-.406-.065-.581.556-.171.622a11.657,11.657,0,0,0,3.306.069c.406-.051.411-.7,0-.645" transform="translate(-473.493 -2432.873)" fill="#4a825f"/>
    <path id="Path_9396" data-name="Path 9396" d="M509.888,2411.583l-1.29-.125c-.413-.04-.41.6,0,.645l1.29.125c.413.04.41-.6,0-.645" transform="translate(-475.519 -2405.523)" fill="#4a825f"/>
    <path id="Path_9397" data-name="Path 9397" d="M504.138,2385.726a21.153,21.153,0,0,1-3.586-.2c-.406-.058-.581.563-.171.622a22.214,22.214,0,0,0,3.758.225.323.323,0,0,0,0-.645" transform="translate(-467.901 -2381.259)" fill="#4a825f"/>
    <path id="Path_9398" data-name="Path 9398" d="M408.668,2579.717l-3.092-.234c-.414-.031-.412.614,0,.645l3.092.233c.414.032.412-.614,0-.644" transform="translate(-379.138 -2562.715)" fill="#4a825f"/>
    <path id="Path_9399" data-name="Path 9399" d="M414.845,2556.8a6.342,6.342,0,0,0-1.311-.144.323.323,0,0,0,0,.645,5.447,5.447,0,0,1,1.139.122c.4.087.577-.535.171-.622" transform="translate(-386.581 -2541.363)" fill="#4a825f"/>
  </g>
</svg>
