<svg width="55" height="54" viewBox="0 0 55 54" fill="none" xmlns="http://www.w3.org/2000/svg">
<g clip-path="url(#clip0_473_4007)">
<path d="M22.8118 19.4271H30.6032C31.2204 19.4271 31.5675 19.9543 31.7218 20.5457L33.4704 27.4371C33.6247 28.0286 32.9689 28.5557 32.3518 28.5557H21.0761C20.4589 28.5557 19.8161 28.0414 19.9575 27.4371L21.7061 20.5457C21.8604 19.9543 22.2075 19.4271 22.8247 19.4271H22.8118Z" stroke="#C9A648" stroke-linecap="round" stroke-linejoin="round"/>
<path d="M15.9204 28.5944H23.7118C24.3289 28.5944 24.6761 29.1215 24.8304 29.7129L26.5789 36.6044C26.7332 37.1958 26.0775 37.7229 25.4604 37.7229H14.1718C13.5546 37.7229 12.9118 37.2086 13.0532 36.6044L14.8018 29.7129C14.9561 29.1215 15.3032 28.5944 15.9204 28.5944Z" stroke="#C9A648" stroke-linecap="round" stroke-linejoin="round"/>
<path d="M30.3462 28.5944H38.1376C38.7548 28.5944 39.1019 29.1215 39.2562 29.7129L41.0048 36.6044C41.1591 37.1958 40.5034 37.7229 39.8862 37.7229H28.6105C27.9934 37.7229 27.3505 37.2086 27.4919 36.6044L29.2405 29.7129C29.3948 29.1215 29.7419 28.5944 30.3591 28.5944H30.3462Z" stroke="#C9A648" stroke-linecap="round" stroke-linejoin="round"/>
<path d="M9.01606 37.7743H16.8075C17.4246 37.7743 17.7718 38.3014 17.9261 38.8929L19.6746 45.7843C19.8289 46.3757 19.1732 46.9029 18.5561 46.9029H7.26749C6.65035 46.9029 6.00749 46.3886 6.14892 45.7843L7.89749 38.8929C8.05177 38.3014 8.39892 37.7743 9.01606 37.7743Z" stroke="#C9A648" stroke-linecap="round" stroke-linejoin="round"/>
<path d="M23.4419 37.7743H31.2333C31.8504 37.7743 32.1976 38.3014 32.3519 38.8929L34.1004 45.7843C34.2547 46.3757 33.599 46.9029 32.9819 46.9029H21.7061C21.1019 46.9029 20.4461 46.3886 20.5876 45.7843L22.3361 38.8929C22.4904 38.3014 22.8376 37.7743 23.4547 37.7743H23.4419Z" stroke="#C9A648" stroke-linecap="round" stroke-linejoin="round"/>
<path d="M37.8675 37.7743H45.6589C46.276 37.7743 46.6232 38.3014 46.7775 38.8929L48.526 45.7843C48.6803 46.3757 48.0246 46.9029 47.4075 46.9029H36.1317C35.5146 46.9029 34.8717 46.3886 35.0132 45.7843L36.7617 38.8929C36.916 38.3014 37.2632 37.7743 37.8803 37.7743H37.8675Z" stroke="#C9A648" stroke-linecap="round" stroke-linejoin="round"/>
<path d="M26.8105 7.10999V12.8314" stroke="#79798E" stroke-linecap="round" stroke-linejoin="round"/>
<path d="M39.0119 10.2344L36.1448 15.1972" stroke="#79798E" stroke-linecap="round" stroke-linejoin="round"/>
<path d="M48.0119 19.0543L43.0491 21.9086" stroke="#79798E" stroke-linecap="round" stroke-linejoin="round"/>
<path d="M14.6733 10.5043L17.5405 15.4543" stroke="#79798E" stroke-linecap="round" stroke-linejoin="round"/>
<path d="M5.86621 19.5043L10.8291 22.3586" stroke="#79798E" stroke-linecap="round" stroke-linejoin="round"/>
</g>
<defs>
<clipPath id="clip0_473_4007">
<rect width="44.5243" height="41.6314" fill="white" transform="translate(4.94043 6.18433)"/>
</clipPath>
</defs>
</svg>
