<svg width="54" height="54" viewBox="0 0 54 54" fill="none" xmlns="http://www.w3.org/2000/svg">
<path d="M28.8058 35.9259L34.5783 32.7977C35.937 32.0616 38.5886 30.945 38.6036 33.7052L39.5778 33.0249C42.3129 31.1165 44.3967 32.4687 43.3732 35.1048C48.2359 31.5026 49.9558 36.0639 47.7899 37.1834L37.0288 44.1089L32.4671 47.0448C29.2395 49.1205 24.9802 49.1526 23.7816 48.4249C16.9734 46.6363 15.0086 44.9342 9.07324 45.7093" stroke="#79798E" stroke-linecap="round" stroke-linejoin="round"/>
<path d="M6.21167 33.3666L13.2484 30.4516C15.0449 29.7072 17.0548 29.8996 17.8128 30.4711C19.0839 31.4316 20.355 32.3907 21.6261 33.3498C26.9184 37.3451 27.3466 36.347 33.5803 36.7262C34.9622 36.8098 35.8707 39.0765 33.5803 39.9729C27.7612 42.6843 24.1696 41.4673 18.8664 38.7015" stroke="#79798E" stroke-linecap="round" stroke-linejoin="round"/>
<path d="M27.4621 5.14417C33.7341 5.14417 38.8197 10.3244 38.8197 16.7161C38.8197 23.1078 33.7354 28.288 27.4621 28.288C21.1888 28.288 16.1045 23.1078 16.1045 16.7161C16.1045 10.3244 21.1902 5.14417 27.4621 5.14417Z" fill="#59D059"/>
<path d="M30.3186 12.4141V13.1694H28.7952C29.1062 13.4551 29.3093 13.8613 29.3601 14.4136H30.3186V15.1689H29.3474C29.1887 16.2925 28.3762 17.3462 26.7195 17.3589H26.1101L29.2839 21.0342H27.7795L24.6184 17.3525V16.4067H26.6052C27.4749 16.4067 28.0842 16.0068 28.2175 15.1689H24.6184V14.4136H28.2175C28.0715 13.5884 27.4304 13.1758 26.5608 13.1758H24.6184V13.1694V12.5791V12.4141H30.3186Z" fill="#014A9F"/>
</svg>
