<svg width="55" height="54" viewBox="0 0 55 54" fill="none" xmlns="http://www.w3.org/2000/svg">
<path d="M31.5175 39.658L30.7077 48.6161C30.6805 48.9133 30.4514 49.1715 30.1523 49.1715H19.0939C18.7949 49.1715 18.5657 48.9201 18.5385 48.6161L17.7278 39.658" stroke="#79798E" stroke-linecap="round" stroke-linejoin="round"/>
<path d="M16.3149 35.1943H32.9311C33.237 35.1943 33.5195 35.4478 33.4865 35.7497L33.1622 38.7131C33.1292 39.0151 32.9107 39.2685 32.6068 39.2685H16.6382C16.3343 39.2685 16.1158 39.0171 16.0828 38.7131L15.7585 35.7497C15.7255 35.4458 16.01 35.1943 16.3149 35.1943Z" stroke="#79798E" stroke-linecap="round" stroke-linejoin="round"/>
<path d="M24.3772 35.0331C24.6396 32.588 27.0321 28.1828 28.6289 27.0352" stroke="#79798E" stroke-linecap="round" stroke-linejoin="round"/>
<path d="M25.1245 32.2051C24.892 30.7843 24.0981 29.7546 22.8032 29.2845M22.8032 29.2845C21.7169 30.5866 19.6687 32.2314 17.3943 30.0658C15.7699 28.5194 16.14 26.6988 14.249 24.098C16.493 24.8624 18.074 24.0995 19.2393 24.3509C22.8889 25.1367 23.2098 27.4939 22.8032 29.2845ZM22.8032 29.2845C21.0261 27.625 19.5031 26.8156 17.4059 26.1889" stroke="#79798E" stroke-linecap="round" stroke-linejoin="round"/>
<path d="M28.2639 27.3443C28.178 27.3924 26.002 22.9678 31.2477 21.2145C33.7096 20.3919 36.0204 22.8234 39.7083 22.2985C37.7166 24.1769 37.0488 25.9486 36.1647 27.003C33.2142 30.5221 30.1601 29.7906 28.6185 28.1499" stroke="#79798E" stroke-linecap="round" stroke-linejoin="round"/>
<path d="M28.2642 27.3443C30.5801 25.4563 33.1034 24.3494 35.3609 23.6704" stroke="#79798E" stroke-linecap="round" stroke-linejoin="round"/>
<path d="M24.3769 1.52527C29.3925 1.52527 33.4595 5.59119 33.4595 10.6079C33.4595 15.6247 29.3936 19.6906 24.3769 19.6906C19.3601 19.6906 15.2942 15.6247 15.2942 10.6079C15.2942 5.59119 19.3612 1.52527 24.3769 1.52527Z" fill="#59D059" stroke="#59D059" stroke-linecap="round" stroke-linejoin="round"/>
<path d="M26.8323 7.08032V7.77759H25.426C25.7131 8.04126 25.9006 8.41626 25.9475 8.92603H26.8323V9.62329H25.9358C25.7893 10.6604 25.0393 11.6331 23.51 11.6448H22.9475L25.8772 15.0374H24.4885L21.5706 11.6389V10.7659H23.4045C24.2073 10.7659 24.7698 10.3967 24.8928 9.62329H21.5706V8.92603H24.8928C24.7581 8.16431 24.1663 7.78345 23.3635 7.78345H21.5706V7.77759V7.23267V7.08032H26.8323Z" fill="#014A9F"/>
<path d="M25.7849 19.6555C26.2909 20.4257 26.304 22.6912 26.1493 25.3474C26.0521 27.0155 25.4206 30.0061 24.9956 31.7718" stroke="#79798E"/>
</svg>
