<svg id="vector" xmlns="http://www.w3.org/2000/svg" width="70" height="70" viewBox="0 0 70 70">
    <path fill="#50a843" d="M35,0a35,35 0,1 1,0 70,35 35,0 0,1 0,-70z" id="path_0" />
    <path fill="#fff"
        d="M18.27,58.08l-1.93,-2.3c2.53,-2.12 5.9,-3.58 10.04,-4.32 0.2,-0.28 0.5,-1.05 0.25,-2.03 -0.44,-0.84 -2.14,-4.22 -2.53,-6.98 -1.72,-1.52 -1.87,-4.5 -1.87,-5.47 0,-1.02 0.5,-1.76 0.96,-2.26 -0.27,-1.6 -0.63,-5.1 0.82,-8.21l-3.99,-6.23 -0.05,0.02c-0.88,0.3 -1.82,-0.07 -2.08,-0.84 -0.27,-0.77 0.22,-1.65 1.1,-1.96 0.88,-0.3 1.81,0.08 2.08,0.85 0.16,0.46 0.05,0.97 -0.27,1.37 4.43,3.22 5.96,-2.58 5.73,-4.4 -0.72,0.05 -1.4,-0.32 -1.62,-0.95 -0.27,-0.77 0.23,-1.64 1.11,-1.95 0.88,-0.3 1.8,0.06 2.08,0.84 0.22,0.63 -0.07,1.34 -0.68,1.74 0.96,1.58 5.77,5.16 7.23,-0.12 -0.49,-0.11 -0.9,-0.44 -1.07,-0.9 -0.27,-0.77 0.23,-1.65 1.11,-1.96 0.88,-0.3 1.8,0.07 2.08,0.85 0.27,0.76 -0.23,1.64 -1.1,1.94l-0.06,0.02 0.64,6.18c3.46,0.3 6.08,1.5 7.79,3.58 2.82,3.44 1.96,7.95 1.92,8.14a57.95,57.95 0,0 0,-0.32 1.97c0.46,0.5 0.98,1.24 0.98,2.28 0,0.95 -0.14,3.9 -1.86,5.45 -0.38,2.74 -2.07,6.08 -2.53,6.97 -0.21,1 0.05,1.76 0.24,2.05 4.21,0.68 7.64,2.13 10.2,4.33l-1.97,2.27c-2.15,-1.85 -5.12,-3.08 -8.85,-3.66a10.15,10.15 0,0 1,-14.84 0c-3.66,0.65 -6.6,1.89 -8.74,3.7zM39.36,48.5c0.03,-0.12 0.07,-0.24 0.13,-0.34 0.62,-1.15 2.25,-4.58 2.34,-6.61 0.03,-0.53 0.32,-1 0.79,-1.25 0.55,-0.3 1,-1.8 1,-3.32 -0.03,-0.1 -0.31,-0.38 -0.45,-0.51l-0.2,-0.2a1.5,1.5 0,0 1,-0.42 -1.33c0.1,-0.54 0.17,-0.94 0.23,-1.37l0.24,-1.4c0,-0.05 0.61,-3.37 -1.32,-5.7 -1.2,-1.45 -3.15,-2.28 -5.84,-2.48 -0.89,0.84 -2.7,1.83 -4.89,2.6 -1.53,0.53 -2.98,0.86 -4.13,0.98 -1.58,3.1 -0.57,7.22 -0.56,7.27a1.5,1.5 0,0 1,-0.4 1.43l-0.2,0.2c-0.13,0.13 -0.42,0.4 -0.45,0.52 0,1.49 0.45,3.03 0.96,3.28 0.49,0.25 0.8,0.73 0.83,1.27 0.1,2.05 1.72,5.47 2.33,6.62a5.8,5.8 0,0 1,-0.1 4.28,7.18 7.18,0 0,0 10.35,-0.03 6.2,6.2 0,0 1,-0.24 -3.91z"
        id="path_1" />
</svg>