<svg xmlns="http://www.w3.org/2000/svg" width="327.089" height="110.646" viewBox="0 0 327.089 110.646">
  <g id="Group_9710" data-name="Group 9710" transform="translate(-31 -453)">
    <g id="Group_9718" data-name="Group 9718">
      <path id="Path_9549" data-name="Path 9549" d="M15.458,6.588a3.293,3.293,0,0,0-3.6-3.1c-2.434,0-3.849,1.606-3.849,4.136V8.926c0,2.611,1.285,4.259,3.869,4.259a3.3,3.3,0,0,0,3.6-3.247V8.051h-3.63V9.274h2.146v.731A1.892,1.892,0,0,1,11.9,11.858c-1.579,0-2.338-1.121-2.338-2.939V7.627c0-1.777.841-2.816,2.29-2.816A1.936,1.936,0,0,1,13.94,6.588ZM17.187,13H18.7V5.774H17.187Zm-.144-8.989a.9.9,0,1,0,.9-.861A.866.866,0,0,0,17.043,4.011ZM22.334,13h1.7l2.543-7.226H25.021l-1.8,5.605h-.055L21.5,5.774H19.887Zm8.032.123a2.735,2.735,0,0,0,2.946-2.2H31.871a1.422,1.422,0,0,1-1.483,1c-1.032,0-1.688-.807-1.688-2.023V9.732h4.7v-.69c0-2.037-1.162-3.391-3.09-3.391a3.009,3.009,0,0,0-3.1,3.322v.731C27.2,11.845,28.432,13.123,30.367,13.123ZM28.7,8.673V8.659a1.62,1.62,0,1,1,3.213,0v.014Zm10.363-.889c0-1.9.807-2.96,2.235-2.96a1.93,1.93,0,0,1,2.044,1.982h1.511V6.7a3.275,3.275,0,0,0-3.562-3.22c-2.406,0-3.794,1.62-3.794,4.3V8.926c0,2.659,1.388,4.259,3.794,4.259,2.058,0,3.562-1.285,3.562-3.09v-.1H43.341A1.878,1.878,0,0,1,41.3,11.852c-1.429,0-2.235-1.046-2.235-2.919ZM49.357,5.651a3.118,3.118,0,0,0-3.22,3.432v.581c0,2.037,1.135,3.459,3.22,3.459s3.206-1.422,3.206-3.459V9.083A3.1,3.1,0,0,0,49.357,5.651Zm0,1.217c1.128,0,1.682.916,1.682,2.235v.554c0,1.3-.547,2.242-1.682,2.242s-1.688-.95-1.688-2.242V9.1C47.668,7.791,48.229,6.868,49.357,6.868ZM54.2,13h1.511V8.693A1.537,1.537,0,0,1,57.3,6.984a1.484,1.484,0,0,1,1.572,1.682V13h1.511V8.358a2.422,2.422,0,0,0-2.536-2.693,2.272,2.272,0,0,0-2.1,1.121h-.055V5.774H54.2Zm7.745-5.113c0,1.319,1.073,1.771,2.393,2.051.964.191,1.8.314,1.8,1.066,0,.533-.444.991-1.408.991-.854,0-1.367-.4-1.449-.984H61.812c0,1.292,1.094,2.112,2.83,2.112,1.818,0,2.98-.848,2.98-2.311,0-1.367-1.053-1.784-2.393-2.023C64.41,8.639,63.4,8.5,63.4,7.736c0-.608.526-.957,1.3-.957.984,0,1.3.561,1.347,1.066h1.367c0-1.278-.964-2.194-2.673-2.194C63.282,5.651,61.949,6.321,61.949,7.887Zm10.069,5.236a2.735,2.735,0,0,0,2.946-2.2H73.522a1.422,1.422,0,0,1-1.483,1c-1.032,0-1.688-.807-1.688-2.023V9.732h4.7v-.69c0-2.037-1.162-3.391-3.09-3.391a3.009,3.009,0,0,0-3.1,3.322v.731C68.853,11.845,70.083,13.123,72.018,13.123ZM70.35,8.673V8.659a1.62,1.62,0,1,1,3.213,0v.014ZM76.66,13H78.17V8.693a1.537,1.537,0,0,1,1.586-1.709,1.484,1.484,0,0,1,1.572,1.682V13h1.511V8.358A2.422,2.422,0,0,0,80.3,5.665a2.272,2.272,0,0,0-2.1,1.121H78.15V5.774H76.66Zm8.5-7.226H84.145V6.991h1V10.97c0,1.449.485,2.078,2.242,2.078A5.084,5.084,0,0,0,88.1,13V11.838a2.532,2.532,0,0,1-.342.014c-.813,0-1.107-.219-1.107-1V6.991h1.408V5.774H86.654V4.018h-1.49ZM12.747,31h1.5V24.991h1.388V23.774H14.23V23.18c0-.766.362-1,1.087-1a2.735,2.735,0,0,1,.41.027V21.067a5.444,5.444,0,0,0-.67-.041c-1.586,0-2.311.608-2.311,2.03v.718H11.735v1.217h1.012Zm7.226-7.349a3.118,3.118,0,0,0-3.22,3.432v.581c0,2.037,1.135,3.459,3.22,3.459s3.206-1.422,3.206-3.459v-.581A3.1,3.1,0,0,0,19.973,23.651Zm0,1.217c1.128,0,1.682.916,1.682,2.235v.554c0,1.3-.547,2.242-1.682,2.242s-1.688-.95-1.688-2.242V27.1C18.284,25.791,18.845,24.868,19.973,24.868ZM24.819,31h1.538V26.721c0-.971.41-1.723,1.627-1.723a3.138,3.138,0,0,1,.649.055v-1.34a2.779,2.779,0,0,0-.513-.041,1.794,1.794,0,0,0-1.729,1.053h-.055v-.95H24.819Zm11.225,0V23h2.741V21.669H31.765V23h2.741v8Zm3.213,0h1.538V26.721c0-.971.41-1.723,1.627-1.723a3.138,3.138,0,0,1,.649.055v-1.34a2.779,2.779,0,0,0-.513-.041,1.794,1.794,0,0,0-1.729,1.053h-.055v-.95H39.257Zm8.989-.889H48.3V31h1.442V26.078c0-1.613-1.2-2.413-2.8-2.413-1.928,0-2.748,1.025-2.81,2.256h1.422a1.363,1.363,0,0,1,2.693.212v.69H46.414c-1.661,0-2.55.813-2.55,2.1a2.43,2.43,0,0,0,4.382,1.189Zm-1.559-.157a1.158,1.158,0,0,1-1.3-1.114c0-.6.4-1.019,1.285-1.019h1.572v.8A1.414,1.414,0,0,1,46.688,29.954Zm4.628-2.276c0,2.023,1.155,3.445,3.117,3.445a2.623,2.623,0,0,0,2.919-2.3H55.916a1.293,1.293,0,0,1-1.395,1.046c-1.032,0-1.682-.848-1.682-2.187v-.615c0-1.333.622-2.153,1.675-2.153a1.4,1.4,0,0,1,1.36,1.142h1.436a2.641,2.641,0,0,0-2.878-2.4,3.055,3.055,0,0,0-3.117,3.377Zm9.064.786.581-.656L63.2,31h1.812L62.1,26.905l2.734-3.131h-1.8l-2.6,3.069H60.38V21.177H58.862V31H60.38ZM66.074,31h1.518V23.774H66.074Zm-.144-8.989a.9.9,0,1,0,.9-.861A.866.866,0,0,0,65.931,22.011ZM69.588,31H71.1V26.693a1.537,1.537,0,0,1,1.586-1.709,1.484,1.484,0,0,1,1.572,1.682V31h1.511V26.358a2.422,2.422,0,0,0-2.536-2.693,2.272,2.272,0,0,0-2.1,1.121h-.055V23.774h-1.49Zm10.958,1.477a1.469,1.469,0,0,1-1.565-.984h-1.5c.137,1.2,1.087,2.153,3.056,2.153,1.634,0,3.22-.834,3.22-2.755V23.774H82.269V24.82h-.055a2.265,2.265,0,0,0-2.078-1.142c-1.668,0-2.816,1.189-2.816,3.35v.52c0,2.188,1.155,3.37,2.816,3.37a2.194,2.194,0,0,0,2.051-1.142h.055v1.046A1.542,1.542,0,0,1,80.546,32.477Zm.034-7.561c1,0,1.661.827,1.661,2.188v.431c0,1.381-.622,2.188-1.661,2.188-1.08,0-1.716-.807-1.716-2.187V27.1C78.864,25.7,79.5,24.916,80.58,24.916Z" transform="translate(269.986 530)" fill="#fff"/>
      <g id="Group_9714" data-name="Group 9714">
        <rect id="Rectangle_140257" data-name="Rectangle 140257" width="70" height="70" rx="35" transform="translate(283 453)" fill="#21212b"/>
        <g id="Group_9175" data-name="Group 9175" transform="translate(123 20)">
          <g id="Rectangle_140212" data-name="Rectangle 140212" transform="translate(175 448)" fill="none" stroke="#707070" stroke-width="1" opacity="0">
            <rect width="40" height="40" stroke="none"/>
            <rect x="0.5" y="0.5" width="39" height="39" fill="none"/>
          </g>
          <g id="Group_9177" data-name="Group 9177" transform="translate(1 1)">
            <path id="Union_142" data-name="Union 142" d="M23586,22671a3,3,0,0,1-3-3v-26a3,3,0,0,1,3-3h18a3,3,0,0,1,3,3v26a3,3,0,0,1-3,3Zm-2-29v26a2.005,2.005,0,0,0,2,2h18a2.006,2.006,0,0,0,2-2v-26a2.006,2.006,0,0,0-2-2h-18A2.005,2.005,0,0,0,23584,22642Zm7,7a.5.5,0,0,1,0-1h9a.5.5,0,0,1,0,1Zm-2-4.5a.5.5,0,0,1,0-1h13a.5.5,0,0,1,0,1Z" transform="translate(-23401 -22188)" fill="#bcbcd8"/>
            <g id="Group_9176" data-name="Group 9176" transform="translate(0 -1)">
              <path id="Path_76" data-name="Path 76" d="M9.5,16S15,13.2,15,9V4.1L9.5,2,4,4.1V9C4,13.2,9.5,16,9.5,16Z" transform="translate(185 464)" fill="#5ddd70"/>
              <path id="Path_9442" data-name="Path 9442" d="M193.247,474.753a.5.5,0,0,1-.354-.146l-1.878-1.878a.5.5,0,0,1,.707-.707l1.525,1.525,3.334-3.334a.5.5,0,1,1,.707.707l-3.688,3.688A.5.5,0,0,1,193.247,474.753Z" transform="translate(0.131 0.047)"/>
            </g>
          </g>
        </g>
      </g>
    </g>
    <g id="Group_9717" data-name="Group 9717">
      <path id="Path_9548" data-name="Path 9548" d="M13.723,11.653H9.608V3.669H8.056V13h5.667ZM15.029,13h1.518V5.774H15.029Zm-.144-8.989a.9.9,0,1,0,.9-.861A.866.866,0,0,0,14.885,4.011ZM18.542,13h1.511V8.693a1.537,1.537,0,0,1,1.586-1.709,1.484,1.484,0,0,1,1.572,1.682V13h1.511V8.358a2.422,2.422,0,0,0-2.536-2.693,2.272,2.272,0,0,0-2.1,1.121h-.055V5.774h-1.49Zm9.543-2.536.581-.656L30.909,13H32.72L29.808,8.905l2.734-3.131h-1.8l-2.6,3.069h-.062V3.177H26.568V13h1.518ZM42.243,5.774H40.636l-1.75,5.742h-.048L37.109,5.774H35.427L38,13.055l-.089.314c-.157.711-.547.984-1.367.984a3.977,3.977,0,0,1-.554-.034v1.148a4.716,4.716,0,0,0,.8.068C38.2,15.536,39,15,39.6,13.4l.185-.5C39.789,12.884,41.935,6.779,42.243,5.774ZM46.1,5.651a3.118,3.118,0,0,0-3.22,3.432v.581c0,2.037,1.135,3.459,3.22,3.459s3.206-1.422,3.206-3.459V9.083A3.1,3.1,0,0,0,46.1,5.651Zm0,1.217c1.128,0,1.682.916,1.682,2.235v.554c0,1.3-.547,2.242-1.682,2.242s-1.688-.95-1.688-2.242V9.1C44.417,7.791,44.977,6.868,46.1,6.868Zm10.9-1.094H55.491v4.368A1.507,1.507,0,0,1,53.912,11.8c-.813,0-1.538-.369-1.538-1.634V5.774H50.856V10.58a2.312,2.312,0,0,0,2.509,2.529A2.1,2.1,0,0,0,55.45,12h.068v1h1.49ZM58.936,13h1.538V8.721C60.474,7.75,60.884,7,62.1,7a3.138,3.138,0,0,1,.649.055V5.713a2.779,2.779,0,0,0-.513-.041,1.794,1.794,0,0,0-1.729,1.053h-.055v-.95H58.936ZM7.434,31l.834-2.584h3.274L12.37,31H14.01L10.8,21.669H9.068L5.855,31Zm2.509-7.718,1.251,3.944H8.617l1.265-3.944Zm4.874,4.4c0,2.023,1.155,3.445,3.117,3.445a2.623,2.623,0,0,0,2.919-2.3H19.417a1.293,1.293,0,0,1-1.395,1.046c-1.032,0-1.682-.848-1.682-2.187v-.615c0-1.333.622-2.153,1.675-2.153a1.4,1.4,0,0,1,1.36,1.142h1.436a2.641,2.641,0,0,0-2.878-2.4,3.055,3.055,0,0,0-3.117,3.377Zm7.239,0c0,2.023,1.155,3.445,3.117,3.445a2.623,2.623,0,0,0,2.919-2.3H26.657a1.293,1.293,0,0,1-1.395,1.046c-1.032,0-1.682-.848-1.682-2.187v-.615c0-1.333.622-2.153,1.675-2.153a1.4,1.4,0,0,1,1.36,1.142h1.436a2.641,2.641,0,0,0-2.878-2.4,3.055,3.055,0,0,0-3.117,3.377Zm10.459-4.026a3.118,3.118,0,0,0-3.22,3.432v.581c0,2.037,1.135,3.459,3.22,3.459s3.206-1.422,3.206-3.459v-.581A3.1,3.1,0,0,0,32.515,23.651Zm0,1.217c1.128,0,1.682.916,1.682,2.235v.554c0,1.3-.547,2.242-1.682,2.242s-1.688-.95-1.688-2.242V27.1C30.827,25.791,31.387,24.868,32.515,24.868Zm10.9-1.094H41.9v4.368A1.507,1.507,0,0,1,40.322,29.8c-.813,0-1.538-.369-1.538-1.634V23.774H37.266V28.58a2.312,2.312,0,0,0,2.509,2.529A2.1,2.1,0,0,0,41.86,30h.068v1h1.49ZM45.346,31h1.511V26.693a1.537,1.537,0,0,1,1.586-1.709,1.484,1.484,0,0,1,1.572,1.682V31h1.511V26.358a2.422,2.422,0,0,0-2.536-2.693,2.272,2.272,0,0,0-2.1,1.121h-.055V23.774h-1.49Zm8.5-7.226H52.832v1.217h1V28.97c0,1.449.485,2.078,2.242,2.078A5.084,5.084,0,0,0,56.79,31V29.838a2.532,2.532,0,0,1-.342.014c-.813,0-1.107-.219-1.107-1V24.991h1.408V23.774H55.34V22.018H53.85Zm4.2,2.112c0,1.319,1.073,1.771,2.393,2.051.964.191,1.8.314,1.8,1.066,0,.533-.444.991-1.408.991-.854,0-1.367-.4-1.449-.984H57.911c0,1.292,1.094,2.112,2.83,2.112,1.818,0,2.98-.848,2.98-2.311,0-1.367-1.053-1.784-2.393-2.023-.82-.15-1.825-.294-1.825-1.053,0-.608.526-.957,1.3-.957.984,0,1.3.561,1.347,1.066h1.367c0-1.278-.964-2.194-2.673-2.194C59.38,23.651,58.047,24.321,58.047,25.887Z" transform="translate(157.145 530)" fill="#fff"/>
      <g id="Group_9713" data-name="Group 9713">
        <rect id="Rectangle_140216" data-name="Rectangle 140216" width="70" height="70" rx="35" transform="translate(157 453)" fill="#21212b"/>
        <g id="Group_9174" data-name="Group 9174" transform="translate(-3 20)">
          <g id="Rectangle_140212-2" data-name="Rectangle 140212" transform="translate(175 448)" fill="none" stroke="#707070" stroke-width="1" opacity="0">
            <rect width="40" height="40" stroke="none"/>
            <rect x="0.5" y="0.5" width="39" height="39" fill="none"/>
          </g>
          <g id="Group_9173" data-name="Group 9173" transform="translate(-2.131 -1)">
            <g id="Group_9169" data-name="Group 9169" transform="translate(179.631 453.32)">
              <g id="Group_9171" data-name="Group 9171" transform="translate(0)">
                <path id="Union_140" data-name="Union 140" d="M23533,22212.193a.5.5,0,0,1,0-1h26.945a.5.5,0,1,1,0,1Zm2.566-2.992a.5.5,0,0,1,0-1h21.813a.5.5,0,1,1,0,1Zm18.293-2.98a.5.5,0,0,1-.5-.5.5.5,0,0,1,.5-.5h1.117v-7.1h-1.117a.5.5,0,0,1,0-1h3.24a.5.5,0,0,1,0,1h-1.117v7.1h1.117a.5.5,0,0,1,.5.5.5.5,0,0,1-.5.5Zm-8.236,0a.5.5,0,0,1-.5-.5.5.5,0,0,1,.5-.5h1.117v-7.1h-1.117a.5.5,0,1,1,0-1h3.24a.5.5,0,0,1,0,1h-1.123v7.1h1.123a.5.5,0,0,1,.5.5.5.5,0,0,1-.5.5Zm-8.236,0a.5.5,0,0,1-.5-.5.5.5,0,0,1,.5-.5h1.117v-7.1h-1.117a.5.5,0,1,1,0-1h3.234a.5.5,0,1,1,0,1h-1.117v7.1h1.117a.5.5,0,0,1,.5.5.5.5,0,0,1-.5.5Zm-2.152-11.092a.5.5,0,0,1-.5-.5v-1.24a.5.5,0,0,1,.283-.449c.064-.031,6.729-3.289,8.709-4.354a5.836,5.836,0,0,1,2.732-.91,5.5,5.5,0,0,1,2.715.916c.975.557,2.264,1.154,3.748,1.852,1.578.738,3.365,1.572,5.092,2.508a.5.5,0,0,1,.266.438v1.24a.5.5,0,0,1-.5.5Zm8.965-5.66c-1.764.947-7.168,3.6-8.463,4.234v.426h21.541v-.437c-1.619-.863-3.293-1.65-4.777-2.342-1.508-.7-2.809-1.312-3.82-1.887a4.679,4.679,0,0,0-2.223-.785A4.837,4.837,0,0,0,23544.2,22189.469Z" transform="translate(-23533 -22188.18)" fill="#bcbcd8"/>
              </g>
            </g>
            <g id="Group_9172" data-name="Group 9172" transform="translate(213.404 466.256) rotate(90)">
              <circle id="Ellipse_527" data-name="Ellipse 527" cx="9.5" cy="9.5" r="9.5" transform="translate(-0.256 -1.596)" fill="#5ddd70"/>
              <g id="Icon_ionic-ios-link" data-name="Icon ionic-ios-link" transform="translate(3.141 2.042)">
                <path id="Path_9440" data-name="Path 9440" d="M9.575,17.184l-.032,0a.442.442,0,0,0-.257.12L7.56,19.033a1.946,1.946,0,0,1-2.753-2.753l1.833-1.833a1.935,1.935,0,0,1,.3-.249,1.964,1.964,0,0,1,.4-.2,1.871,1.871,0,0,1,.4-.1,1.9,1.9,0,0,1,.273-.019c.037,0,.075,0,.123.005a1.941,1.941,0,0,1,1.251.561,1.916,1.916,0,0,1,.457.73.421.421,0,0,0,.516.27l.008,0s.005,0,.005,0a.417.417,0,0,0,.281-.51,2.422,2.422,0,0,0-.657-1.1,2.813,2.813,0,0,0-1.539-.783c-.051-.008-.1-.016-.152-.021a2.758,2.758,0,0,0-.3-.016c-.069,0-.139,0-.206.008a2.7,2.7,0,0,0-.433.067c-.029.005-.056.013-.086.021a2.78,2.78,0,0,0-.521.2,2.745,2.745,0,0,0-.74.532L4.19,15.671a2.819,2.819,0,0,0-.815,1.991,2.81,2.81,0,0,0,4.794,1.986L9.915,17.9A.423.423,0,0,0,9.575,17.184Z" transform="translate(-3.375 -9.351)" stroke="#000" stroke-width="0.2"/>
                <path id="Path_9441" data-name="Path 9441" d="M19.929,4.2a2.816,2.816,0,0,0-3.974,0l-1.7,1.7a.43.43,0,0,0,.27.732.434.434,0,0,0,.339-.123l1.705-1.7A1.946,1.946,0,0,1,19.319,7.56L17.486,9.394a1.935,1.935,0,0,1-.3.249,1.964,1.964,0,0,1-.4.2,1.871,1.871,0,0,1-.4.1,1.9,1.9,0,0,1-.273.019c-.037,0-.078,0-.123-.005A1.921,1.921,0,0,1,14.3,8.712a.427.427,0,0,0-.51-.262.432.432,0,0,0-.3.548,2.441,2.441,0,0,0,.633,1h0l.005.005a2.814,2.814,0,0,0,1.692.8,2.758,2.758,0,0,0,.3.016q.1,0,.208-.008a3.056,3.056,0,0,0,.516-.086,2.78,2.78,0,0,0,.521-.2,2.745,2.745,0,0,0,.74-.532l1.833-1.833A2.813,2.813,0,0,0,19.929,4.2Z" transform="translate(-9.632 -3.375)" stroke="#000" stroke-width="0.2"/>
              </g>
            </g>
          </g>
        </g>
      </g>
    </g>
    <g id="Group_9716" data-name="Group 9716">
      <path id="Path_9547" data-name="Path 9547" d="M12.954,13l3.22-9.331H14.437l-2.311,7.492h-.055L9.741,3.669H7.957L11.183,13Zm6.59.123a2.735,2.735,0,0,0,2.946-2.2H21.047a1.422,1.422,0,0,1-1.483,1c-1.032,0-1.688-.807-1.688-2.023V9.732h4.7v-.69c0-2.037-1.162-3.391-3.09-3.391a3.009,3.009,0,0,0-3.1,3.322v.731C16.378,11.845,17.609,13.123,19.543,13.123Zm-1.668-4.45V8.659a1.62,1.62,0,1,1,3.213,0v.014ZM24.185,13h1.538V8.721c0-.971.41-1.723,1.627-1.723A3.138,3.138,0,0,1,28,7.053V5.713a2.779,2.779,0,0,0-.513-.041,1.794,1.794,0,0,0-1.729,1.053H25.7v-.95H24.185Zm5.291,0h1.518V5.774H29.476Zm-.144-8.989a.9.9,0,1,0,.9-.861A.866.866,0,0,0,29.333,4.011ZM33.5,13h1.5V6.991h1.388V5.774H34.986V5.18c0-.766.362-1,1.087-1a2.735,2.735,0,0,1,.41.027V3.067a5.444,5.444,0,0,0-.67-.041c-1.586,0-2.311.608-2.311,2.03v.718H32.491V6.991H33.5ZM44.1,5.774H42.492l-1.75,5.742h-.048L38.964,5.774H37.283l2.577,7.28-.089.314c-.157.711-.547.984-1.367.984a3.977,3.977,0,0,1-.554-.034v1.148a4.716,4.716,0,0,0,.8.068c1.408,0,2.208-.533,2.8-2.133l.185-.5C41.644,12.884,43.791,6.779,44.1,5.774ZM7.693,31V24.554h.055l2.42,5.455h1.114L13.7,24.554h.062V31h1.4V21.669H13.606l-2.851,6.563h-.048L7.857,21.669H6.3V31Zm12.428-7.349a3.118,3.118,0,0,0-3.22,3.432v.581c0,2.037,1.135,3.459,3.22,3.459s3.206-1.422,3.206-3.459v-.581A3.1,3.1,0,0,0,20.121,23.651Zm0,1.217c1.128,0,1.682.916,1.682,2.235v.554c0,1.3-.547,2.242-1.682,2.242s-1.688-.95-1.688-2.242V27.1C18.433,25.791,18.993,24.868,20.121,24.868ZM28.652,31.1c1.7,0,2.81-1.258,2.81-3.384v-.67c0-2.187-1.142-3.37-2.8-3.37A2.351,2.351,0,0,0,26.567,24.8h-.062V21.177H24.988V31h1.477V29.9h.062A2.248,2.248,0,0,0,28.652,31.1Zm-.376-1.251c-1.1,0-1.784-.766-1.784-2.208v-.52c0-1.436.684-2.194,1.784-2.194.971,0,1.641.766,1.641,2.194v.533C29.917,29.079,29.247,29.852,28.276,29.852ZM33.171,31h1.518V23.774H33.171Zm-.144-8.989a.9.9,0,1,0,.9-.861A.866.866,0,0,0,33.027,22.011ZM36.732,31H38.25V21.177H36.732Zm6.364.123a2.735,2.735,0,0,0,2.946-2.2H44.6a1.422,1.422,0,0,1-1.483,1c-1.032,0-1.688-.807-1.688-2.023v-.171h4.7v-.69c0-2.037-1.162-3.391-3.09-3.391a3.009,3.009,0,0,0-3.1,3.322v.731C39.932,29.845,41.162,31.123,43.1,31.123Zm-1.668-4.45v-.014a1.62,1.62,0,1,1,3.213,0v.014Z" transform="translate(39.699 530)" fill="#fff"/>
      <g id="Group_9712" data-name="Group 9712">
        <rect id="Rectangle_140211" data-name="Rectangle 140211" width="70" height="70" rx="35" transform="translate(31 453)" fill="#21212b"/>
        <g id="Group_8808" data-name="Group 8808" transform="translate(-87 -15)">
          <g id="Rectangle_140212-3" data-name="Rectangle 140212" transform="translate(133 483)" fill="none" stroke="#707070" stroke-width="1" opacity="0">
            <rect width="40" height="40" stroke="none"/>
            <rect x="0.5" y="0.5" width="39" height="39" fill="none"/>
          </g>
          <g id="Group_8807" data-name="Group 8807" transform="translate(-2 -1)">
            <g id="Group_8810" data-name="Group 8810">
              <g id="Group_8809" data-name="Group 8809">
                <path id="Union_141" data-name="Union 141" d="M23799,22708.006a3,3,0,0,1-3-3v-26a3,3,0,0,1,3-3h12a3,3,0,0,1,3,3v2h-1v-2a2,2,0,0,0-2-2h-12a2,2,0,0,0-2,2v24.252h16V22694h1v11a3,3,0,0,1-3,3Zm-2-3a2,2,0,0,0,2,2h12a2,2,0,0,0,2-2v-1.256h-16Z" transform="translate(-23654.002 -22188.002)" fill="#bcbcd8"/>
              </g>
              <rect id="Rectangle_140214" data-name="Rectangle 140214" width="23" height="8" rx="2" transform="translate(147 496)" fill="#5ddd70"/>
              <path id="Path_6462" data-name="Path 6462" d="M-4.6-1.56l-.108-1.364,1.054.787.418-.77L-4.4-3.48l1.157-.578-.424-.781-1.043.787L-4.6-5.41h-.832l.1,1.364-1.049-.787-.418.776,1.152.578L-6.788-2.9l.413.765,1.064-.787L-5.429-1.56Zm4.8,0L.093-2.924l1.054.787.418-.77L.408-3.48l1.157-.578-.424-.781L.1-4.052.207-5.41H-.625l.1,1.364L-1.57-4.833l-.418.776,1.152.578L-1.984-2.9l.413.765,1.064-.787L-.625-1.56Zm4.8,0L4.9-2.924l1.054.787.418-.77L5.212-3.48,6.37-4.057l-.424-.781L4.9-4.052,5.011-5.41H4.179l.1,1.364L3.234-4.833l-.418.776,1.152.578L2.821-2.9l.413.765L4.3-2.924,4.179-1.56Zm4.8,0L9.7-2.924l1.054.787.418-.77L10.017-3.48l1.157-.578-.424-.781-1.043.787L9.815-5.41H8.984l.1,1.364L8.038-4.833l-.418.776,1.152.578L7.625-2.9l.413.765L9.1-2.924,8.984-1.56Z" transform="translate(156.26 503.51)"/>
            </g>
          </g>
        </g>
      </g>
    </g>
    <path id="Line_1026" data-name="Line 1026" d="M52,.5H48a.5.5,0,0,1-.5-.5A.5.5,0,0,1,48-.5h4a.5.5,0,0,1,.5.5A.5.5,0,0,1,52,.5Zm-6,0H42a.5.5,0,0,1-.5-.5A.5.5,0,0,1,42-.5h4a.5.5,0,0,1,.5.5A.5.5,0,0,1,46,.5Zm-6,0H36a.5.5,0,0,1-.5-.5A.5.5,0,0,1,36-.5h4a.5.5,0,0,1,.5.5A.5.5,0,0,1,40,.5Zm-6,0H30a.5.5,0,0,1-.5-.5A.5.5,0,0,1,30-.5h4a.5.5,0,0,1,.5.5A.5.5,0,0,1,34,.5Zm-6,0H24a.5.5,0,0,1-.5-.5A.5.5,0,0,1,24-.5h4a.5.5,0,0,1,.5.5A.5.5,0,0,1,28,.5Zm-6,0H18a.5.5,0,0,1-.5-.5A.5.5,0,0,1,18-.5h4a.5.5,0,0,1,.5.5A.5.5,0,0,1,22,.5Zm-6,0H12a.5.5,0,0,1-.5-.5A.5.5,0,0,1,12-.5h4a.5.5,0,0,1,.5.5A.5.5,0,0,1,16,.5Zm-6,0H6A.5.5,0,0,1,5.5,0,.5.5,0,0,1,6-.5h4a.5.5,0,0,1,.5.5A.5.5,0,0,1,10,.5ZM4,.5H0A.5.5,0,0,1-.5,0,.5.5,0,0,1,0-.5H4a.5.5,0,0,1,.5.5A.5.5,0,0,1,4,.5Z" transform="translate(103 489)" fill="#5ddd70" opacity="0.5"/>
    <path id="Line_1377" data-name="Line 1377" d="M52,.5H48a.5.5,0,0,1-.5-.5A.5.5,0,0,1,48-.5h4a.5.5,0,0,1,.5.5A.5.5,0,0,1,52,.5Zm-6,0H42a.5.5,0,0,1-.5-.5A.5.5,0,0,1,42-.5h4a.5.5,0,0,1,.5.5A.5.5,0,0,1,46,.5Zm-6,0H36a.5.5,0,0,1-.5-.5A.5.5,0,0,1,36-.5h4a.5.5,0,0,1,.5.5A.5.5,0,0,1,40,.5Zm-6,0H30a.5.5,0,0,1-.5-.5A.5.5,0,0,1,30-.5h4a.5.5,0,0,1,.5.5A.5.5,0,0,1,34,.5Zm-6,0H24a.5.5,0,0,1-.5-.5A.5.5,0,0,1,24-.5h4a.5.5,0,0,1,.5.5A.5.5,0,0,1,28,.5Zm-6,0H18a.5.5,0,0,1-.5-.5A.5.5,0,0,1,18-.5h4a.5.5,0,0,1,.5.5A.5.5,0,0,1,22,.5Zm-6,0H12a.5.5,0,0,1-.5-.5A.5.5,0,0,1,12-.5h4a.5.5,0,0,1,.5.5A.5.5,0,0,1,16,.5Zm-6,0H6A.5.5,0,0,1,5.5,0,.5.5,0,0,1,6-.5h4a.5.5,0,0,1,.5.5A.5.5,0,0,1,10,.5ZM4,.5H0A.5.5,0,0,1-.5,0,.5.5,0,0,1,0-.5H4a.5.5,0,0,1,.5.5A.5.5,0,0,1,4,.5Z" transform="translate(229 489)" fill="#5ddd70" opacity="0.5"/>
  </g>
</svg>
