<svg xmlns="http://www.w3.org/2000/svg" width="12" height="12.001" viewBox="0 0 12 12.001">
  <g id="pen" transform="translate(-2 -2)" opacity="0.605">
    <path id="Path_1532" d="M14,5.144a.6.6,0,0,0-.174-.426L11.282,2.174a.608.608,0,0,0-.852,0l-1.7,1.7L2.174,10.43A.6.6,0,0,0,2,10.856V13.4a.6.6,0,0,0,.6.6H5.144a.6.6,0,0,0,.456-.174l6.522-6.558,1.7-1.668a.714.714,0,0,0,.132-.2.6.6,0,0,0,0-.144.42.42,0,0,0,0-.084ZM4.9,12.8H3.2V11.1L9.158,5.144l1.7,1.7ZM11.7,6,10,4.3l.852-.846,1.692,1.692Z" transform="translate(0 0)" fill="#fff"/>
  </g>
</svg>
