<svg xmlns="http://www.w3.org/2000/svg" width="12.418" height="12.4" viewBox="0 0 12.418 12.4">
  <path id="filter" d="M11.979,0H1.012A.517.517,0,0,0,.553.273.5.5,0,0,0,.594.8L4.611,6.325l0,.006a1.1,1.1,0,0,1,.225.664v4.5a.494.494,0,0,0,.149.356A.519.519,0,0,0,5.354,12a.54.54,0,0,0,.2-.04l2.258-.84a.478.478,0,0,0,.337-.471V6.995a1.1,1.1,0,0,1,.225-.664l0-.006L12.4.8a.5.5,0,0,0,.041-.53A.517.517,0,0,0,11.979,0ZM7.872,5.969a1.706,1.706,0,0,0-.346,1.025v3.581l-2.06.766V6.995a1.705,1.705,0,0,0-.347-1.025L1.218.609H11.773Zm0,0" transform="translate(-0.287 0.2)" fill="#ccc" stroke="#ccc" stroke-width="0.4"/>
</svg>
