<svg id="angleone" xmlns="http://www.w3.org/2000/svg" width="24" height="24" viewBox="0 0 24 24">
  <g id="Image_14" data-name="Image 14" fill="#fff" stroke="#eff3f5" stroke-width="1" opacity="0">
    <rect width="24" height="24" rx="3" stroke="none"/>
    <rect x="0.5" y="0.5" width="23" height="23" rx="2.5" fill="none"/>
  </g>
  <g id="Group_31056" data-name="Group 31056" transform="translate(-173.931 -235.5)">
    <rect id="Image_44" data-name="Image 44" width="24" height="24" rx="3" transform="translate(173.931 235.5)" fill="#fff"/>
    <g id="Group_31055" data-name="Group 31055" transform="translate(-84.281 143.847)">
      <path id="Path_14210" data-name="Path 14210" d="M-4743.661,93.653l-2.052,3.217,9.831,16.084h3.654Z" transform="translate(5013.054)" fill="#0dac49"/>
      <g id="Group_31055-2" data-name="Group 31055" transform="translate(259.6 99.923)">
        <path id="Polygon_24" data-name="Polygon 24" d="M1.746.286a.2.2,0,0,1,.343,0L3.654,2.893a.2.2,0,0,1-.171.3H.353a.2.2,0,0,1-.171-.3Z" transform="translate(9.589 3.196) rotate(180)" fill="#ff7200"/>
        <path id="Polygon_25" data-name="Polygon 25" d="M1.746.286a.2.2,0,0,1,.343,0L3.654,2.893a.2.2,0,0,1-.171.3H.353a.2.2,0,0,1-.171-.3Z" transform="translate(7.591 6.576) rotate(180)" fill="#ff7200"/>
        <path id="Polygon_28" data-name="Polygon 28" d="M1.746.286a.2.2,0,0,1,.343,0L3.654,2.893a.2.2,0,0,1-.171.3H.353a.2.2,0,0,1-.171-.3Z" transform="translate(5.593 9.773) rotate(180)" fill="#ff7200"/>
        <path id="Polygon_30" data-name="Polygon 30" d="M1.746.286a.2.2,0,0,1,.343,0L3.654,2.893a.2.2,0,0,1-.171.3H.353a.2.2,0,0,1-.171-.3Z" transform="translate(3.836 13.153) rotate(180)" fill="#ff7200"/>
        <path id="Polygon_26" data-name="Polygon 26" d="M1.746.286a.2.2,0,0,1,.343,0L3.654,2.893a.2.2,0,0,1-.171.3H.353a.2.2,0,0,1-.171-.3Z" transform="translate(11.586 6.576) rotate(180)" fill="#ff7200"/>
        <path id="Polygon_27" data-name="Polygon 27" d="M1.746.286a.2.2,0,0,1,.343,0L3.654,2.893a.2.2,0,0,1-.171.3H.353a.2.2,0,0,1-.171-.3Z" transform="translate(9.589 9.773) rotate(180)" fill="#ff7200"/>
        <path id="Polygon_31" data-name="Polygon 31" d="M1.746.286a.2.2,0,0,1,.343,0L3.654,2.893a.2.2,0,0,1-.171.3H.353a.2.2,0,0,1-.171-.3Z" transform="translate(7.751 13.153) rotate(180)" fill="#ff7200"/>
        <path id="Polygon_29" data-name="Polygon 29" d="M1.746.286a.2.2,0,0,1,.343,0L3.654,2.893a.2.2,0,0,1-.171.3H.353a.2.2,0,0,1-.171-.3Z" transform="translate(13.584 9.773) rotate(180)" fill="#ff7200"/>
        <path id="Polygon_32" data-name="Polygon 32" d="M1.746.286a.2.2,0,0,1,.343,0L3.654,2.893a.2.2,0,0,1-.171.3H.353a.2.2,0,0,1-.171-.3Z" transform="translate(11.666 13.153) rotate(180)" fill="#ff7200"/>
        <path id="Polygon_33" data-name="Polygon 33" d="M1.746.286a.2.2,0,0,1,.343,0L3.654,2.893a.2.2,0,0,1-.171.3H.353a.2.2,0,0,1-.171-.3Z" transform="translate(15.582 13.153) rotate(180)" fill="#ff7200"/>
      </g>
    </g>
  </g>
</svg>
