<svg id="info-circle" xmlns="http://www.w3.org/2000/svg" width="14.451" height="14.451"
    viewBox="0 0 14.451 14.451">
    <path id="Path_93"
        d="M9.226,8.5a.723.723,0,0,0-.723.723v2.89a.723.723,0,0,0,1.445,0V9.226A.723.723,0,0,0,9.226,8.5ZM9.5,5.671a.747.747,0,0,0-.788.152.831.831,0,0,0-.152.238.607.607,0,0,0-.058.275.723.723,0,0,0,.21.513A.831.831,0,0,0,8.951,7a.723.723,0,0,0,1-.665.759.759,0,0,0-.21-.513A.723.723,0,0,0,9.5,5.671ZM9.226,2a7.226,7.226,0,1,0,7.226,7.226A7.226,7.226,0,0,0,9.226,2Zm0,13.006a5.78,5.78,0,1,1,5.78-5.78A5.78,5.78,0,0,1,9.226,15.006Z"
        transform="translate(-2 -2)" fill="#fff" />
</svg>
