<svg xmlns="http://www.w3.org/2000/svg" width="20" height="20" viewBox="0 0 20 20">
  <g id="Group_7727" transform="translate(-224 -32)">
    <circle id="Ellipse_461" cx="10" cy="10" r="10" transform="translate(224 32)" fill="#dc8b40"/>
    <g id="Icon_ionic-ios-link" transform="translate(226.625 34.625)">
      <path id="Path_5167" d="M8.337,16.351l-.026,0a.354.354,0,0,0-.205.1L6.724,17.831a1.558,1.558,0,0,1-2.2-2.2l1.467-1.467a1.548,1.548,0,0,1,.244-.2,1.572,1.572,0,0,1,.317-.16,1.5,1.5,0,0,1,.321-.079,1.516,1.516,0,0,1,.218-.015c.03,0,.06,0,.1,0a1.553,1.553,0,0,1,1,.449,1.533,1.533,0,0,1,.366.584.337.337,0,0,0,.413.216l.006,0s0,0,0,0a.334.334,0,0,0,.225-.408,1.938,1.938,0,0,0-.526-.877,2.251,2.251,0,0,0-1.232-.627c-.041-.006-.081-.013-.122-.017a2.207,2.207,0,0,0-.237-.013c-.056,0-.111,0-.165.006a2.157,2.157,0,0,0-.346.053c-.024,0-.045.011-.068.017a2.224,2.224,0,0,0-.417.156,2.2,2.2,0,0,0-.592.426L4.027,15.141a2.256,2.256,0,0,0-.652,1.593,2.249,2.249,0,0,0,3.837,1.589l1.4-1.4A.338.338,0,0,0,8.337,16.351Z" transform="translate(0 -6.609)" stroke="#000" stroke-width="0.2"/>
      <path id="Path_5168" d="M18.638,4.032a2.254,2.254,0,0,0-3.18,0L14.1,5.394a.344.344,0,0,0,.216.586.347.347,0,0,0,.272-.1l1.364-1.36a1.558,1.558,0,0,1,2.2,2.2L16.683,8.191a1.548,1.548,0,0,1-.244.2,1.572,1.572,0,0,1-.317.16,1.5,1.5,0,0,1-.321.079,1.517,1.517,0,0,1-.218.015c-.03,0-.062,0-.1,0a1.537,1.537,0,0,1-1.352-.994.342.342,0,0,0-.408-.21.346.346,0,0,0-.242.438,1.953,1.953,0,0,0,.507.8h0l0,0a2.252,2.252,0,0,0,1.354.644,2.207,2.207,0,0,0,.237.013q.083,0,.167-.006a2.445,2.445,0,0,0,.413-.068,2.224,2.224,0,0,0,.417-.156,2.2,2.2,0,0,0,.592-.426l1.467-1.467a2.251,2.251,0,0,0,0-3.182Z" transform="translate(-6.924)" stroke="#000" stroke-width="0.2"/>
    </g>
  </g>
</svg>
