<svg id="filter" xmlns="http://www.w3.org/2000/svg" width="32" height="32" viewBox="0 0 32 32">
  <rect id="Rectangle_139641" data-name="Rectangle 139641" width="32" height="32" rx="4" fill="#333336"/>
  <path id="Subtraction_25" data-name="Subtraction 25" d="M18914,22181.822a6,6,0,0,1-5.748-7.727l.814.918a4.995,4.995,0,0,0,4.934,5.807c.072,0,.139,0,.209,0l.814.92A6.064,6.064,0,0,1,18914,22181.822Zm4.883-2.506v0l-.686-.775a4.968,4.968,0,0,0,.574-1.215h1.041a5.952,5.952,0,0,1-.93,1.99Zm-3.719-5.242,0,0-.187-.979,2.8-.545a5.028,5.028,0,0,0-3.775-1.721,4.94,4.94,0,0,0-2.16.49l-.682-.775a5.982,5.982,0,0,1,2.842-.717,6.048,6.048,0,0,1,4.242,1.76l-.5-2.59.988-.2.857,4.416-4.42.857Z" transform="translate(-18897.908 -22159)" fill="#ccc"/>
  <line id="Line_1333" data-name="Line 1333" x2="14" y2="16" transform="translate(8.5 9.5)" fill="none" stroke="#ccc" stroke-width="1"/>
</svg>
