<svg xmlns="http://www.w3.org/2000/svg" width="11.062" height="11.062" viewBox="0 0 11.062 11.062">
  <g id="settings-gear-63" transform="translate(-0.15 -0.15)">
    <g id="Group_4044" transform="translate(0.5 0.5)">
      <circle id="Ellipse_17" cx="1.786" cy="1.786" r="1.786" transform="translate(3.523 3.269)" fill="none" stroke="#fff" stroke-linecap="round" stroke-linejoin="round" stroke-width="0.7"/>
      <path id="Path_5113" d="M10.862,6.372V4.99l-1.5-.251a3.774,3.774,0,0,0-.411-.993l.886-1.241-.978-.977-1.241.886A3.774,3.774,0,0,0,6.623,2L6.372.5H4.99L4.74,2a3.774,3.774,0,0,0-.993.411L2.506,1.529l-.977.977.886,1.241A3.774,3.774,0,0,0,2,4.74L.5,4.99V6.372L2,6.623a3.774,3.774,0,0,0,.411.993L1.529,8.856l.977.977,1.241-.886a3.774,3.774,0,0,0,.993.411l.251,1.5H6.372l.251-1.5a3.774,3.774,0,0,0,.993-.411l1.241.886.977-.977L8.947,7.615a3.774,3.774,0,0,0,.411-.993Z" transform="translate(-0.5 -0.5)" fill="none" stroke="#fff" stroke-linecap="round" stroke-linejoin="round" stroke-width="0.7"/>
    </g>
  </g>
</svg>
