<svg xmlns="http://www.w3.org/2000/svg" width="24.5" height="25.5" viewBox="0 0 24.5 25.5">
  <g id="Group_2600" data-name="Group 2600" transform="translate(-266.25 -285.25)">
    <g id="Group_1714" data-name="Group 1714" transform="translate(245 141)">
      <g id="expand-alt" transform="translate(27.25 150.25)">
        <path id="Path_106" data-name="Path 106" d="M6.034,9.005,3.188,11.857v-.945a.594.594,0,1,0-1.188,0v2.377a.6.6,0,0,0,.594.594H4.971a.594.594,0,0,0,0-1.188H4.026L6.878,9.849a.6.6,0,1,0-.844-.844Zm7.8-6.637A.6.6,0,0,0,13.289,2H10.912a.594.594,0,1,0,0,1.188h.945L9.005,6.034a.6.6,0,1,0,.844.844l2.846-2.852v.945a.594.594,0,0,0,1.188,0V2.594a.594.594,0,0,0-.048-.226Z" transform="translate(-2 -2)" fill="#bebebe"/>
      </g>
    </g>
    <g id="Group_2598" data-name="Group 2598">
      <g id="Group_2596" data-name="Group 2596" transform="translate(53 -1)">
        <line id="Line_574" data-name="Line 574" y2="4" transform="translate(213.5 286.5)" fill="none" stroke="#bebebe" stroke-width="0.5"/>
        <line id="Line_575" data-name="Line 575" y2="4" transform="translate(217.5 286.5) rotate(90)" fill="none" stroke="#bebebe" stroke-width="0.5"/>
      </g>
      <g id="Group_2597" data-name="Group 2597" transform="translate(266.5 306.5)">
        <line id="Line_574-2" data-name="Line 574" y1="4" fill="none" stroke="#bebebe" stroke-width="0.5"/>
        <line id="Line_575-2" data-name="Line 575" y1="4" transform="translate(0 4) rotate(-90)" fill="none" stroke="#bebebe" stroke-width="0.5"/>
      </g>
    </g>
    <g id="Group_2599" data-name="Group 2599" transform="translate(286.5 285.5)">
      <g id="Group_2596-2" data-name="Group 2596">
        <line id="Line_574-3" data-name="Line 574" y2="4" transform="translate(4)" fill="none" stroke="#bebebe" stroke-width="0.5"/>
        <line id="Line_575-3" data-name="Line 575" y1="4" transform="translate(4) rotate(90)" fill="none" stroke="#bebebe" stroke-width="0.5"/>
      </g>
      <g id="Group_2597-2" data-name="Group 2597" transform="translate(0 21)">
        <line id="Line_574-4" data-name="Line 574" y1="4" transform="translate(4)" fill="none" stroke="#bebebe" stroke-width="0.5"/>
        <line id="Line_575-4" data-name="Line 575" y2="4" transform="translate(0 4) rotate(-90)" fill="none" stroke="#bebebe" stroke-width="0.5"/>
      </g>
    </g>
  </g>
</svg>
