<svg xmlns="http://www.w3.org/2000/svg" xmlns:xlink="http://www.w3.org/1999/xlink" width="95"
    height="16" viewBox="0 0 95 16">
    <defs>
        <clipPath id="clip-path">
            <rect id="Rectangle_139897" data-name="Rectangle 139897" width="86.494" height="7.754"
                fill="none" />
        </clipPath>
    </defs>
    <g id="Group_8135" data-name="Group 8135" transform="translate(-212 -696)">
        <rect id="Rectangle_139896" data-name="Rectangle 139896" width="95" height="16"
            transform="translate(212 696)" fill="#fff" />
        <g id="Group_8137" data-name="Group 8137" transform="translate(216 700)">
            <g id="Mask_Group_8136" data-name="Mask Group 8136" clip-path="url(#clip-path)">
                <path id="Path_5228" data-name="Path 5228"
                    d="M0,3.808V7.617H1.582l0-2.674a22.247,22.247,0,0,1,.032-2.592c.016.043.147.414.289.825s.4,1.141.57,1.627.4,1.141.509,1.458.262.748.335.961l.136.384.651.007.653,0,.219-.637c.217-.635.373-1.092.945-2.742.163-.472.387-1.116.493-1.431s.2-.57.212-.57.018,1.209.018,2.69v2.69H8.2V0L7.024,0,5.845.011,5.784.2c-.032.106-.151.477-.264.825-.31.961-.958,2.981-1.162,3.616-.1.31-.188.574-.2.583s-.278-.748-.6-1.684S2.845,1.428,2.674.922L2.362,0H0Z"
                    fill="#16168e" />
                <path id="Path_5229" data-name="Path 5229"
                    d="M968,3.808V7.617h1.514V5.727l.294-.278a3.506,3.506,0,0,1,.305-.271s.335.542.734,1.2.741,1.2.755,1.216a4.9,4.9,0,0,0,.934.023l.906-.007-2.3-3.458.443-.443c.246-.242.714-.7,1.042-1.022l.6-.581h-1.79l-.956.992-.956.992-.007-2.043,0-2.043H968Z"
                    transform="translate(-946.122)" fill="#16168e" />
                <path id="Path_5230" data-name="Path 5230" d="M1235,3.808V7.617h1.514V0H1235Z"
                    transform="translate(-1207.088 0)" fill="#16168e" />
                <path id="Path_5231" data-name="Path 5231" d="M1627,.633v.633h1.514V0H1627Z"
                    transform="translate(-1590.228 0)" fill="#16168e" />
                <path id="Path_5232" data-name="Path 5232"
                    d="M1878,5.786V9.572h1.65V6.43h3.187V5.142h-3.187l0-.877.007-.875,1.826-.007,1.824,0V2H1878Z"
                    transform="translate(-1835.555 -1.955)" fill="#df0701" />
                <path id="Path_5233" data-name="Path 5233" d="M2152,2.61v.61h1.491V2H2152Z"
                    transform="translate(-2103.363 -1.955)" fill="#df0701" />
                <path id="Path_5234" data-name="Path 5234" d="M3370,2.61v.61h1.492V2H3370Z"
                    transform="translate(-3293.834 -1.955)" fill="#df0701" />
                <path id="Path_5235" data-name="Path 5235" d="M3761,5.786V9.572h1.492V2H3761Z"
                    transform="translate(-3675.998 -1.955)" fill="#df0701" />
                <path id="Path_5236" data-name="Path 5236"
                    d="M412.018,87.157a2.714,2.714,0,0,0-2.28,1.9,2.82,2.82,0,0,0-.136,1,2.894,2.894,0,0,0,.147,1.042,2.519,2.519,0,0,0,2.063,1.788,3.015,3.015,0,0,0,.7.034,3.267,3.267,0,0,0,.622-.057,2.253,2.253,0,0,0,1.6-1.18,3.27,3.27,0,0,0,.23-.556c0-.027-.115-.032-.662-.032h-.662l-.027.077a1.283,1.283,0,0,1-.667.552,2.062,2.062,0,0,1-.893.041,1.188,1.188,0,0,1-.942-1.207l-.016-.14h3.989L415.074,90a3.885,3.885,0,0,0-.059-.635,2.6,2.6,0,0,0-2.106-2.195,4.915,4.915,0,0,0-.89-.018m.726,1.168c.416.111.671.445.809,1.058l.014.063h-1.232c-.748,0-1.232-.009-1.232-.02s.016-.1.034-.188a1.164,1.164,0,0,1,.981-.945,2,2,0,0,1,.626.032"
                    transform="translate(-400.345 -85.175)" fill="#16168e" />
                <path id="Path_5237" data-name="Path 5237"
                    d="M686.422,86.96a2.563,2.563,0,0,0-1.718,1.1,3.049,3.049,0,0,0-.486,1.44,4.329,4.329,0,0,0,.036,1.033,2.6,2.6,0,0,0,1.79,2.043,3.676,3.676,0,0,0,1.487.095,2.408,2.408,0,0,0,1.659-.981,2.865,2.865,0,0,0,.423-1.105l.016-.118h-1.453l-.011.061a1.3,1.3,0,0,1-.606.931,1.361,1.361,0,0,1-1.2-.043,2.2,2.2,0,0,1-.558-2.3,1.473,1.473,0,0,1,.705-.956,1.243,1.243,0,0,1,1.309.185,1.124,1.124,0,0,1,.273.518l.027.133H689.6l-.016-.142a2.074,2.074,0,0,0-1.234-1.663,3.534,3.534,0,0,0-1.932-.231"
                    transform="translate(-668.74 -84.951)" fill="#16168e" />
                <path id="Path_5238" data-name="Path 5238"
                    d="M1346.793,87.049a4.7,4.7,0,0,0-.771.156,1.8,1.8,0,0,0-1.333,1.5l-.016.158h1.514l.014-.1a.77.77,0,0,1,.615-.68,2.674,2.674,0,0,1,.784-.009.651.651,0,0,1,.56.7.419.419,0,0,1-.138.368,1.936,1.936,0,0,1-1.019.283c-1.3.149-1.838.335-2.183.753a1.459,1.459,0,0,0-.269.536,2.722,2.722,0,0,0,0,.949,1.506,1.506,0,0,0,1.139,1.08,2.062,2.062,0,0,0,.694.059,2.572,2.572,0,0,0,.7-.047,2.152,2.152,0,0,0,1.01-.475l.133-.122.014.109c.009.061.032.174.052.255l.038.147.764.007c.418,0,.762,0,.762,0s-.021-.061-.045-.129c-.111-.292-.12-.429-.136-2.432-.011-1.433-.02-1.9-.043-1.966a1.667,1.667,0,0,0-1.37-1.037,6.7,6.7,0,0,0-1.469-.066m1.367,3.334a2.067,2.067,0,0,1-.093.775,1,1,0,0,1-.637.6,2.189,2.189,0,0,1-.922.011.681.681,0,0,1-.414-.31.5.5,0,0,1-.07-.339.61.61,0,0,1,.192-.518,1.7,1.7,0,0,1,1.024-.341,2.577,2.577,0,0,0,.8-.192.45.45,0,0,1,.106-.054,2.052,2.052,0,0,1,.016.364"
                    transform="translate(-1314.123 -85.066)" fill="#16168e" />
                <path id="Path_5239" data-name="Path 5239"
                    d="M2273.859,88.3a2.661,2.661,0,0,0-.656.212,1.636,1.636,0,0,0-.635.533.612.612,0,0,1-.124.145,1.7,1.7,0,0,1-.02-.373v-.373H2271v5.469h1.489l.009-1.668a10.2,10.2,0,0,1,.057-1.88,1.023,1.023,0,0,1,.556-.793,1.249,1.249,0,0,1,.635-.106.847.847,0,0,1,.368.075.939.939,0,0,1,.5.8c.014.09.023.8.023,1.858v1.713h1.494l-.009-2.007a11.783,11.783,0,0,0-.059-2.228,1.531,1.531,0,0,0-1.3-1.336,4.948,4.948,0,0,0-.9-.043"
                    transform="translate(-2219.673 -86.296)" fill="#df0701" />
                <path id="Path_5240" data-name="Path 5240"
                    d="M2541.9,88.351c-.05,0-.2.025-.328.045a1.91,1.91,0,0,0-1.84,1.641l-.014.131h1.492l.009-.052a1.154,1.154,0,0,1,.133-.4.711.711,0,0,1,.416-.316,1.174,1.174,0,0,1,.481-.054c.434,0,.608.05.771.217a.645.645,0,0,1,.174.549c0,.16-.016.2-.066.265-.133.174-.477.287-1.105.359-1.184.138-1.674.285-2.016.606a1.349,1.349,0,0,0-.448.922,1.6,1.6,0,0,0,.431,1.356,1.684,1.684,0,0,0,.846.429,3.906,3.906,0,0,0,1.254-.011,2.179,2.179,0,0,0,1.026-.47l.145-.12.016.095c.007.054.029.172.05.26l.038.165h.753c.414,0,.752,0,.752-.007s-.02-.059-.045-.126c-.111-.289-.12-.432-.136-2.432-.011-1.428-.02-1.9-.043-1.966a1.314,1.314,0,0,0-.339-.527,2.062,2.062,0,0,0-1.2-.513,9.7,9.7,0,0,0-1.209-.043m1.268,3.894a1.143,1.143,0,0,1-1.4.861c-.479-.059-.712-.294-.712-.71a.645.645,0,0,1,.119-.414c.147-.219.414-.332.968-.414a2.582,2.582,0,0,0,.992-.249l.056-.043.007.4a2.855,2.855,0,0,1-.027.563"
                    transform="translate(-2482.151 -86.349)" fill="#df0701" />
                <path id="Path_5241" data-name="Path 5241"
                    d="M2822.764,88.129a2.346,2.346,0,0,0-.76.287,2.488,2.488,0,0,0-.474.475.4.4,0,0,1-.088.109,1.808,1.808,0,0,1-.018-.373v-.373H2820v5.469h1.489l.01-1.691c.009-1.792.007-1.774.119-2.111a.917.917,0,0,1,.348-.466,1.021,1.021,0,0,1,.585-.179c.658-.041.977.242,1.065.945.014.115.023.832.023,1.844v1.657h1.493l-.009-1.95a9.5,9.5,0,0,0-.109-2.452,1.522,1.522,0,0,0-1.108-1.132,2.933,2.933,0,0,0-1.143-.059"
                    transform="translate(-2756.265 -86.106)" fill="#df0701" />
                <path id="Path_5242" data-name="Path 5242"
                    d="M3093.512,88.077a2.553,2.553,0,0,0-1.6.771,3.065,3.065,0,0,0-.771,2.312,2.669,2.669,0,0,0,.285,1.187,2.347,2.347,0,0,0,.443.653,2.266,2.266,0,0,0,.687.509,2.758,2.758,0,0,0,1.472.3,2.655,2.655,0,0,0,1.164-.251,2.2,2.2,0,0,0,1.058-1.019,2.758,2.758,0,0,0,.24-.7c.016-.075.031-.158.038-.188l.009-.05h-1.44l-.041.163a1.218,1.218,0,0,1-.579.818,1.441,1.441,0,0,1-.976.059,1.56,1.56,0,0,1-.868-1.528,2.372,2.372,0,0,1,.371-1.485,1.276,1.276,0,0,1,.542-.4,1.834,1.834,0,0,1,.744-.014,1,1,0,0,1,.719.755l.029.129.726.007.728,0v-.079a2.008,2.008,0,0,0-1.272-1.724,3.555,3.555,0,0,0-1.711-.228"
                    transform="translate(-3021.279 -86.063)" fill="#df0701" />
                <path id="Path_5243" data-name="Path 5243"
                    d="M3481.516,88.17a2.88,2.88,0,0,0-1.374.461,1.683,1.683,0,0,0-.7,1.2l-.016.142h1.494l.016-.106c.072-.484.411-.728,1.006-.73.631,0,.931.206.965.662a.445.445,0,0,1-.14.441,2.122,2.122,0,0,1-1.118.31,3.082,3.082,0,0,0-1.991.646,1.449,1.449,0,0,0-.4,1.173,1.5,1.5,0,0,0,.179.712A1.683,1.683,0,0,0,3481,93.9a2.605,2.605,0,0,0,1.872-.567.449.449,0,0,1,.1-.079,1.279,1.279,0,0,1,.034.179,2.325,2.325,0,0,0,.05.253l.025.086h1.508l-.054-.142a7.826,7.826,0,0,1-.122-2.366c-.016-2.032-.011-1.955-.135-2.226a1.925,1.925,0,0,0-.576-.57,3.141,3.141,0,0,0-1.175-.3,6.2,6.2,0,0,0-1.006,0m1.379,3.77a1.06,1.06,0,0,1-.407.759,1.1,1.1,0,0,1-.6.215,1.361,1.361,0,0,1-.906-.17.7.7,0,0,1-.21-.667.564.564,0,0,1,.169-.364c.156-.172.4-.26.976-.348a3.035,3.035,0,0,0,.873-.21l.113-.061.007.328a4.319,4.319,0,0,1-.018.518"
                    transform="translate(-3400.627 -86.156)" fill="#df0701" />
                <path id="Path_5244" data-name="Path 5244" d="M1627,95.758v2.757h1.514V93H1627Z"
                    transform="translate(-1590.228 -90.898)" fill="#16168e" />
                <path id="Path_5245" data-name="Path 5245" d="M2152,97.735v2.735h1.491V95H2152Z"
                    transform="translate(-2103.363 -92.853)" fill="#df0701" />
                <path id="Path_5246" data-name="Path 5246" d="M3370,97.735v2.735h1.492V95H3370Z"
                    transform="translate(-3293.834 -92.853)" fill="#df0701" />
            </g>
        </g>
    </g>
</svg>
