<svg id="noun_New_Window_2440242" data-name="noun_New Window_2440242" xmlns="http://www.w3.org/2000/svg" width="12" height="12" viewBox="0 0 12 12">
  <g id="new_window_pop_up" data-name="new window, pop up" transform="translate(0 0)">
    <path id="Path_257" data-name="Path 257" d="M14,8v3.857A2.143,2.143,0,0,1,11.857,14H4.143A2.143,2.143,0,0,1,2,11.857V4.143A2.143,2.143,0,0,1,4.143,2H8a.429.429,0,0,1,0,.857H4.143A1.286,1.286,0,0,0,2.857,4.143v7.714a1.286,1.286,0,0,0,1.286,1.286h7.714a1.286,1.286,0,0,0,1.286-1.286V8A.429.429,0,0,1,14,8ZM10.571,2.857h1.967L7.7,7.7A.43.43,0,1,0,8.3,8.3l4.839-4.839V5.429a.429.429,0,0,0,.429.429h0A.429.429,0,0,0,14,5.429v-3A.424.424,0,0,0,13.571,2h-3a.429.429,0,1,0,0,.857Z" transform="translate(-2 -2)" fill="#b4b4b4"/>
  </g>
</svg>
