<svg id="icon-filter" xmlns="http://www.w3.org/2000/svg" width="32" height="32" viewBox="0 0 32 32">
  <circle id="Ellipse_422" data-name="Ellipse 422" cx="16" cy="16" r="16" fill="#3d57bf"/>
  <path id="filter" d="M10.552,0H.948a.453.453,0,0,0-.4.239A.437.437,0,0,0,.582.7L4.1,5.539l0,0a.965.965,0,0,1,.2.582v3.942a.433.433,0,0,0,.131.312.455.455,0,0,0,.319.129.473.473,0,0,0,.177-.035L6.9,9.738A.418.418,0,0,0,7.2,9.326v-3.2a.965.965,0,0,1,.2-.582l0,0L10.918.7a.437.437,0,0,0,.036-.464.453.453,0,0,0-.4-.239Zm-3.6,5.228a1.494,1.494,0,0,0-.3.9V9.262l-1.8.671V6.125a1.493,1.493,0,0,0-.3-.9L1.129.533h9.243Zm0,0" transform="translate(10.75 11.75)" fill="#fff" stroke="#fff" stroke-width="0.4"/>
</svg>
