<svg id="no-refresh" xmlns="http://www.w3.org/2000/svg" width="24" height="24" viewBox="0 0 24 24">
  <rect id="Rectangle_139676" data-name="Rectangle 139676" width="24" height="24" rx="3" fill="#29292b" opacity="0"/>
  <path id="Union_139" data-name="Union 139" d="M22215,18226.623l.781-.623,12,15-.781.625Zm.887,7.014a5.92,5.92,0,0,1,.988-3.291l.652.857a4.937,4.937,0,0,0-.637,2.434,5,5,0,0,0,5,5,4.813,4.813,0,0,0,1.178-.141l.652.859a6,6,0,0,1-7.832-5.717Zm10.248,4.238-.625-.8a5.088,5.088,0,0,0,1.154-1.941h1.037a5.926,5.926,0,0,1-1.566,2.738v.006Zm-3.549-6.564v-1h3.029a4.993,4.993,0,0,0-6.186-1.025l-.619-.793a5.976,5.976,0,0,1,3.078-.854,6.081,6.081,0,0,1,4.2,1.707v-2.531h1v4.5Z" transform="translate(-22209.891 -18220.813)" fill="#999"/>
</svg>
