<svg id="credit-score-icon-white" xmlns="http://www.w3.org/2000/svg" width="24" height="24" viewBox="0 0 24 24">
  <rect id="Rectangle_144710" data-name="Rectangle 144710" width="24" height="24" fill="#fff" opacity="0"/>
  <g id="credit-score" transform="translate(2 4.427)">
    <circle id="Ellipse_395" data-name="Ellipse 395" cx="5.385" cy="5.385" r="5.385" transform="translate(4.364 4.361)" fill="rgba(0,0,0,0.6)" opacity="0.106"/>
    <circle id="Ellipse_389" data-name="Ellipse 389" cx="2.928" cy="2.928" r="2.928" transform="translate(6.822 6.994)" fill="#2c6ce6" opacity="0.41"/>
    <path id="Union_13" data-name="Union 13" d="M0,4.248A1.79,1.79,0,0,1,2.686,2.7L5.977,0l.638.8L3.39,3.443a1.79,1.79,0,1,1-3.39.8Zm1.024,0a.767.767,0,1,0,.767-.767A.767.767,0,0,0,1.024,4.248Z" transform="translate(8.033 5.62)" fill="#333"/>
    <g id="meter-new02" transform="translate(0 0)">
      <path id="Path_3745" data-name="Path 3745" d="M81.623,4.184a.7.7,0,0,1-.125-.011,11.733,11.733,0,0,0-1.876-.109.693.693,0,0,1-.039-1.385,12.746,12.746,0,0,1,2.163.13.693.693,0,0,1-.123,1.374Z" transform="translate(-70.039 -2.676)" fill="#f0d822"/>
      <path id="Path_3746" data-name="Path 3746" d="M131.063,25.048a.693.693,0,0,1-.693-.693,9.383,9.383,0,0,0-3.564-7.02.693.693,0,0,1,.884-1.067,10.777,10.777,0,0,1,4.065,8.087A.693.693,0,0,1,131.063,25.048Z" transform="translate(-111.521 -14.205)" fill="#029f20"/>
      <path id="Path_3747" data-name="Path 3747" d="M109.787,8.4a.69.69,0,0,1-.313-.075,9.074,9.074,0,0,0-1.134-.473.693.693,0,1,1,.434-1.315,10.466,10.466,0,0,1,1.327.553.693.693,0,0,1-.314,1.31Z" transform="translate(-95.393 -5.982)" fill="#81c754"/>
      <path id="Path_3748" data-name="Path 3748" d="M3.193,50.193A.693.693,0,0,1,2.5,49.5a11.024,11.024,0,0,1,.966-4.368.693.693,0,1,1,1.238.621A9.615,9.615,0,0,0,3.885,49.5.693.693,0,0,1,3.193,50.193Z" transform="translate(-2.5 -39.351)" fill="#d52929"/>
      <path id="Path_3749" data-name="Path 3749" d="M17.388,8.432A.693.693,0,0,1,16.8,7.374,9.62,9.62,0,0,1,19.514,4.7a9.063,9.063,0,0,1,3.23-1.482.693.693,0,1,1,.248,1.363A7.8,7.8,0,0,0,20.3,5.843,8.354,8.354,0,0,0,17.977,8.1.692.692,0,0,1,17.388,8.432Z" transform="translate(-15.024 -3.029)" fill="#f07e0c"/>
    </g>
    <circle id="Ellipse_391" data-name="Ellipse 391" cx="1.464" cy="1.464" r="1.464" transform="translate(15.605 2.72)" fill="#333"/>
  </g>
</svg>
