<svg id="fixed-deposit-icon" xmlns="http://www.w3.org/2000/svg" width="24" height="24" viewBox="0 0 24 24">
  <rect id="Rectangle_144710" data-name="Rectangle 144710" width="24" height="24" fill="#fff" opacity="0"/>
  <g id="deposit" transform="translate(-1132.943 -1792.321)">
    <g id="Group_8178" data-name="Group 8178" transform="translate(1134.943 1794.321)">
      <g id="Group_8174" data-name="Group 8174" transform="translate(0 0)">
        <path id="Union_6" data-name="Union 6" d="M0,18.586c-.023-1,1.436-1.08,1.436-1.08s.071-.781.471-4.7S6.665,7.2,6.665,7.2h4.721s4.357,1.689,4.757,5.608.471,4.7.471,4.7,1.459.083,1.436,1.08c-.016.687-.693.794-1.112.794a2.207,2.207,0,0,1-.324-.021H1.436a2.293,2.293,0,0,1-.324.021C.694,19.381.016,19.274,0,18.586Zm6.7-14.4L5.029,1.48s.586-1,1.228-.8a3.549,3.549,0,0,1,1.233.8S7.491,0,8.793,0s1.36,1.48,1.36,1.48S10.942.341,11.792.532a1.041,1.041,0,0,1,.868.948L11.3,4.188Z" transform="translate(0.419 0.418)" fill="none"/>
        <path id="Subtraction_9" data-name="Subtraction 9" d="M1.521,20.218c-.935,0-1.5-.446-1.521-1.193-.024-1.073,1.12-1.382,1.471-1.451.1-.973.244-2.449.441-4.387A6.733,6.733,0,0,1,4.6,8.632a9.814,9.814,0,0,1,2.338-1.4.406.406,0,0,1,.147-.027h4.727a.405.405,0,0,1,.147.027,9.806,9.806,0,0,1,2.339,1.4,8.242,8.242,0,0,1,1.418,1.439,6.276,6.276,0,0,0-.915.157,7.871,7.871,0,0,0-.992-.946,9.293,9.293,0,0,0-2.077-1.261H7.161A9.321,9.321,0,0,0,5.085,9.282,5.858,5.858,0,0,0,2.722,13.27c-.356,3.487-.455,4.521-.471,4.693v.009a.4.4,0,0,1-.382.369c-.043,0-1.068.086-1.055.666,0,.109.011.4.708.4h.015a1.919,1.919,0,0,0,.244-.015.442.442,0,0,1,.065-.006H10.84a6.3,6.3,0,0,0,.544.814H1.873A2.837,2.837,0,0,1,1.521,20.218ZM11.727,4.927H7.12a.4.4,0,0,1-.346-.193L5.1,2.1a.406.406,0,0,1,0-.421C5.155,1.577,5.72.658,6.5.658A.987.987,0,0,1,6.792.7a3.049,3.049,0,0,1,.846.437c.021-.058.04-.107.061-.154A1.573,1.573,0,0,1,9.212,0a1.631,1.631,0,0,1,1.536.972c.013.027.026.055.037.081A1.924,1.924,0,0,1,12.017.511,1.334,1.334,0,0,1,12.3.542,1.452,1.452,0,0,1,13.489,1.88a.413.413,0,0,1-.043.191L12.09,4.7A.406.406,0,0,1,11.727,4.927ZM6.5,1.472c-.174,0-.417.231-.572.429L7.344,4.193h4.13l1.19-2.375a.647.647,0,0,0-.539-.481.494.494,0,0,0-.107-.012c-.455,0-.967.59-1.11.8a.407.407,0,0,1-.74-.217,1.694,1.694,0,0,0-.161-.6A.811.811,0,0,0,9.212.814a.762.762,0,0,0-.769.5,1.676,1.676,0,0,0-.129.577.406.406,0,0,1-.7.285,3.159,3.159,0,0,0-1.065-.7A.179.179,0,0,0,6.5,1.472Z" fill="#bcbcd8" stroke="#bcbcd8" stroke-linecap="round" stroke-width="0.2"/>
      </g>
      <path id="Path_5228" data-name="Path 5228" d="M1145.547,1800.144a.209.209,0,0,1-.2-.168l-.362-1.808a.209.209,0,1,1,.41-.082l.362,1.808a.209.209,0,0,1-.205.25Z" transform="translate(-1136.997 -1795.221)" fill="#bcbcd8"/>
      <path id="Path_5229" data-name="Path 5229" d="M1145.186,1800.144a.21.21,0,0,1-.205-.25l.362-1.808a.209.209,0,0,1,.41.082l-.362,1.808A.209.209,0,0,1,1145.186,1800.144Z" transform="translate(-1134.834 -1795.221)" fill="#bcbcd8"/>
      <g id="rupee" transform="translate(6.516 10.087)">
        <path id="Path_5230" data-name="Path 5230" d="M4.633-45.377v.526a.161.161,0,0,1-.046.119.161.161,0,0,1-.119.046H3.6a1.926,1.926,0,0,1-.666,1.208,2.613,2.613,0,0,1-1.424.568q.862.918,2.368,2.765a.141.141,0,0,1,.021.176.15.15,0,0,1-.149.092H2.745a.152.152,0,0,1-.129-.062Q1.037-41.832.046-42.885A.154.154,0,0,1,0-43v-.655a.159.159,0,0,1,.049-.116.159.159,0,0,1,.116-.049H.743a2.327,2.327,0,0,0,1.1-.222,1.008,1.008,0,0,0,.529-.645H.165a.161.161,0,0,1-.119-.046A.161.161,0,0,1,0-44.851v-.526A.16.16,0,0,1,.046-45.5a.162.162,0,0,1,.119-.047H2.3Q2-46.125.913-46.125H.165a.159.159,0,0,1-.116-.049A.159.159,0,0,1,0-46.29v-.686a.161.161,0,0,1,.046-.119.162.162,0,0,1,.119-.046H4.457a.16.16,0,0,1,.119.046.161.161,0,0,1,.047.119v.526a.16.16,0,0,1-.046.119.162.162,0,0,1-.119.047h-1.2a1.79,1.79,0,0,1,.33.743h.882a.161.161,0,0,1,.119.047.16.16,0,0,1,.046.119Zm0,0" transform="translate(0 47.141)" fill="#59d059"/>
      </g>
      <g id="Group_8187" data-name="Group 8187" transform="translate(5.463 4.361)">
        <path id="Rectangle_139888" data-name="Rectangle 139888" d="M.686-.35H6.632a1.036,1.036,0,0,1,0,2.072H.686a1.036,1.036,0,0,1,0-2.072ZM6.632,1.136a.45.45,0,1,0,0-.9H.686a.45.45,0,1,0,0,.9Z" transform="translate(0.35 0.35)" fill="#bcbcd8" stroke="#bcbcd8" stroke-linecap="round" stroke-width="0.2"/>
        <path id="Rectangle_139889" data-name="Rectangle 139889" d="M.686-.35H6.632a1.036,1.036,0,0,1,0,2.072H.686a1.036,1.036,0,0,1,0-2.072ZM6.632,1.136a.45.45,0,1,0,0-.9H.686a.45.45,0,1,0,0,.9Z" transform="translate(0.35 1.688)" fill="#bcbcd8" stroke="#bcbcd8" stroke-linecap="round" stroke-width="0.2"/>
      </g>
    </g>
    <g id="Group_9172" data-name="Group 9172" transform="translate(1147.935 1806.445)">
      <path id="Path_5231" data-name="Path 5231" d="M1.882,3.844A1.9,1.9,0,0,0,3.764,1.922,1.9,1.9,0,0,0,1.882,0,1.9,1.9,0,0,0,0,1.922,1.9,1.9,0,0,0,1.882,3.844Zm0-2.746a.824.824,0,1,1-.807.824A.816.816,0,0,1,1.882,1.1ZM5.646,4.943A1.923,1.923,0,1,0,7.528,6.865,1.9,1.9,0,0,0,5.646,4.943Zm0,2.746a.824.824,0,1,1,.807-.824.816.816,0,0,1-.807.824ZM6.592,0l.531,0a.413.413,0,0,1,.331.649L1.3,8.609a.4.4,0,0,1-.329.175l-.561,0a.412.412,0,0,1-.331-.649L6.262.178A.4.4,0,0,1,6.592,0Z" transform="translate(0 0)" fill="#bcbcd8"/>
    </g>
    <circle id="Ellipse_385" data-name="Ellipse 385" cx="1.046" cy="1.046" r="1.046" transform="translate(1148.942 1807.507)" fill="none"/>
    <circle id="Ellipse_386" data-name="Ellipse 386" cx="1.046" cy="1.046" r="1.046" transform="translate(1152.548 1812.251)" fill="none"/>
  </g>
</svg>
