<svg xmlns="http://www.w3.org/2000/svg" width="11.2" height="14" viewBox="0 0 11.2 14">
    <g id="Group_6366" transform="translate(-239 -598.901)">
        <path id="Path_145"
            d="M32.147,23.2c-.306-.32-.607-.678-.879-1-.128-.152-.251-.3-.365-.429l-.008-.01a4.289,4.289,0,0,0,.285-1.094,1.814,1.814,0,0,0-.256-1.387.587.587,0,0,0-.6-.14.764.764,0,0,0-.484.524,2.688,2.688,0,0,0,.415,2.178,15.647,15.647,0,0,1-.89,1.807A4.291,4.291,0,0,0,27.8,24.5c-.5.455-.7.907-.553,1.239a.57.57,0,0,0,.549.329,1.081,1.081,0,0,0,.556-.174,6.39,6.39,0,0,0,1.412-1.808,9.246,9.246,0,0,1,1.694-.313c.154-.014.308-.025.455-.033a3.116,3.116,0,0,0,1.537.984,1.566,1.566,0,0,0,.27.024.924.924,0,0,0,.812-.368.518.518,0,0,0-.006-.558c-.25-.407-1-.631-2.123-.631C32.316,23.2,32.233,23.2,32.147,23.2Zm-4.111,2.25a.521.521,0,0,1-.244.087.117.117,0,0,1-.025,0c-.011-.053.029-.284.426-.649a3.007,3.007,0,0,1,.7-.466A4.03,4.03,0,0,1,28.036,25.45Zm2.347-5.62c.041-.119.093-.173.125-.183h0c.031.033.162.22.1.982a2.586,2.586,0,0,1-.1.5A2,2,0,0,1,30.382,19.83ZM31.4,23.246a10.22,10.22,0,0,0-1.277.2c.2-.374.384-.754.538-1.1l.164.194c.186.22.395.468.611.71Zm2.63.849c.008.014.008.019.006.023a.408.408,0,0,1-.32.1.969.969,0,0,1-.166-.015,1.919,1.919,0,0,1-.834-.465C33.6,23.778,33.955,23.978,34.027,24.095Z"
            transform="translate(213.7 582.026)" fill="#fff" />
        <path id="Path_146"
            d="M22.783,5h-7.2a.791.791,0,0,0-.8.783V18.217a.792.792,0,0,0,.8.783h9.6a.791.791,0,0,0,.8-.783V8.13Zm0,1.106L24.852,8.13H22.783Zm2.4,12.111h-9.6V5.783h6.4V8.13a.791.791,0,0,0,.8.783h2.4v9.3Z"
            transform="translate(224.217 593.901)" fill="#fff" />
        <path id="Path_147"
            d="M34,68.491a.56.56,0,0,0-.224-.119,1.382,1.382,0,0,0-.36-.036h-.512a.311.311,0,0,0-.218.067.285.285,0,0,0-.073.216v1.517a.3.3,0,0,0,.065.2.237.237,0,0,0,.344,0,.3.3,0,0,0,.066-.207v-.519h.327A.881.881,0,0,0,34,69.449a.6.6,0,0,0,.2-.485.71.71,0,0,0-.048-.268A.542.542,0,0,0,34,68.491Zm-.331.634a.236.236,0,0,1-.125.083.773.773,0,0,1-.224.028h-.23v-.525h.23c.208,0,.292.041.325.075a.259.259,0,0,1,.066.186A.252.252,0,0,1,33.673,69.125Z"
            transform="translate(209.237 540.493)" fill="#fff" />
        <path id="Path_148"
            d="M46.083,68.522a.68.68,0,0,0-.279-.149,1.45,1.45,0,0,0-.357-.039h-.52a.246.246,0,0,0-.282.282V70.06a.621.621,0,0,0,.018.165.19.19,0,0,0,.089.115.355.355,0,0,0,.183.038h.519a1.584,1.584,0,0,0,.25-.018.834.834,0,0,0,.212-.063.723.723,0,0,0,.183-.121.862.862,0,0,0,.173-.22,1,1,0,0,0,.1-.274,1.612,1.612,0,0,0,.032-.331A1.037,1.037,0,0,0,46.083,68.522Zm-.347,1.38a.287.287,0,0,1-.092.053.45.45,0,0,1-.108.025c-.036,0-.087.005-.152.005H45.12v-1.26h.225a1.033,1.033,0,0,1,.3.038.354.354,0,0,1,.2.168.828.828,0,0,1,.082.417A.7.7,0,0,1,45.736,69.9Z"
            transform="translate(199.14 540.494)" fill="#fff" />
        <path id="Path_149"
            d="M59.119,68.335h-.94a.368.368,0,0,0-.155.028.2.2,0,0,0-.1.1.366.366,0,0,0-.029.156v1.514a.3.3,0,0,0,.066.208.24.24,0,0,0,.344,0,.3.3,0,0,0,.066-.209v-.61h.618a.236.236,0,0,0,.161-.05.175.175,0,0,0,.059-.137.177.177,0,0,0-.057-.137.233.233,0,0,0-.162-.051h-.618v-.427h.747a.241.241,0,0,0,.168-.052.2.2,0,0,0,0-.279A.242.242,0,0,0,59.119,68.335Z"
            transform="translate(188.001 540.493)" fill="#fff" />
    </g>
</svg>
