<svg xmlns="http://www.w3.org/2000/svg" width="19.2" height="24" viewBox="0 0 19.2 24">
    <g id="noun-profile-1594249" transform="translate(-249.196 -154)">
        <path id="Path_6342"
            d="M268.4,176.4a1.6,1.6,0,0,1-1.6,1.6H250.792a1.6,1.6,0,0,1-1.6-1.6,9.6,9.6,0,0,1,19.2,0Zm-9.6-7.466a7.467,7.467,0,0,0-7.448,6.933h14.9a7.467,7.467,0,0,0-7.448-6.933Zm0-3.2a5.867,5.867,0,1,1,5.867-5.866A5.867,5.867,0,0,1,258.8,165.733Zm0-2.133a3.733,3.733,0,1,0-3.733-3.733A3.733,3.733,0,0,0,258.8,163.6Z"
            transform="translate(0)" fill="#666" />
    </g>
</svg>
