<svg xmlns="http://www.w3.org/2000/svg" role="img" viewBox="17.79 36.67 88.79 84.92">
    <defs>
        <clipPath id="clip-path">
            <circle id="Ellipse_374" cx="60" cy="60" r="60" fill="#fff" stroke="#707070"
                stroke-width="1" transform="translate(439.5 978.234)" />
        </clipPath>
    </defs>
    <g id="Mask_Group_9" clip-path="url(#clip-path)" transform="translate(-439.5 -978.234)">
        <g id="Group_2822" transform="translate(459.055 1016.651)">
            <g id="Group_2578">
                <path id="Path_7548" fill="#fff"
                    d="M827.469,344.368c0,2.177-17.4,3.941-38.857,3.941s-38.857-1.765-38.857-3.941,17.4-3.941,38.857-3.941,38.857,1.765,38.857,3.941"
                    opacity=".1" transform="translate(-736.579 -183.145)" />
                <path id="Path_7549" fill="#ff9e9e"
                    d="M754.351,123.2l-11.14-7.32-4.5,8.08,14.64,2.943Z"
                    transform="translate(-730.634 -62.339)" />
                <path id="Path_7550" fill="#cc5656"
                    d="M767.309,132.626l1-3.7-3.654-2.4.356,3.572a2.874,2.874,0,0,0,2.293,2.532"
                    transform="translate(-744.597 -68.067)" />
                <path id="Path_7551" fill="#104a4f"
                    d="M800.9,138.357l14.135,85.21H804.989l-18.03-71.208h-1.83l1.83,71.208h-10.21l-8.229-71.9,4.31-14.671Z"
                    transform="translate(-746.673 -73.701)" />
                <path id="Path_7552" fill="#0b3236"
                    d="M800.9,138.357l-28.074-1.362-4.31,14.671.511,4.465,16.292,3.72-.193-7.492h1.83l2.114,8.349,16.149,3.687Z"
                    transform="translate(-746.673 -73.701)" />
                <path id="Line_1" fill="none" stroke="#286a70" stroke-width=".75"
                    d="M0 0L0.833 14.099" transform="translate(38.69 64.559)" />
                <path id="Path_7553" fill="none" stroke="#286a70" stroke-width=".75"
                    d="M808.01,139.734l.257,3.49a16.949,16.949,0,0,1-.933,6.922l-.754,2.119"
                    transform="translate(-767.15 -75.175)" />
                <path id="Path_7554" fill="#7396bd"
                    d="M803.66,136.636l-16.015-.68v-3.687l16.015.68Z"
                    transform="translate(-756.963 -71.159)" />
                <path id="Path_7555" fill="#96884a"
                    d="M805.315,136.706l-5.447-.231v-3.687l5.447.231Z"
                    transform="translate(-763.539 -71.438)" />
                <path id="Line_2" fill="none" stroke="#286a70" stroke-width=".75"
                    d="M0 0L5.198 67.7" transform="translate(26.74 78.138)" />
                <path id="Line_3" fill="none" stroke="#286a70" stroke-width=".75"
                    d="M0 0L12.474 66.92" transform="translate(53.378 78.918)" />
                <path id="Path_7556" fill="#1b508c"
                    d="M739.659,57.539s-9.6,11.477-16.989,22.525a8.477,8.477,0,0,0,2.412,11.817l3.814,2.486,5.869-9.962,1.733-1.386-.26-1.992,6.843-9.7Z"
                    transform="translate(-721.236 -30.955)" />
                <path id="Path_7557" fill="#fff" d="M803.192,93.607l-15.546-.747V59.016h11.2Z"
                    transform="translate(-756.963 -31.75)" />
                <path id="Path_7558" fill="#c1d3e6"
                    d="M798.172,108.269c-2.127-.9-3.393-2.3-3.617-3.8a3.671,3.671,0,0,0-1.534-2.412c-4.376-3.163-5.377-15.335-5.377-15.335v21.045Z"
                    transform="translate(-756.962 -46.653)" />
                <path id="Path_7559" fill="#ff9e9e"
                    d="M795.816,47.54l-.677-5.821-5.219.455-.594,5.367-2.925.416a6.245,6.245,0,0,0,12.345,0Z"
                    transform="translate(-756.293 -22.444)" />
                <path id="Path_7560" fill="#cc5656"
                    d="M795.017,42.581a1.845,1.845,0,0,0,1.525,1.515,2.535,2.535,0,0,1,1.186.62,4.173,4.173,0,0,0,2.507.967l-.461-3.964-4.758.414Z"
                    transform="translate(-760.929 -22.444)" />
                <path id="Line_4" fill="none" stroke="#2b4a57" stroke-width=".75"
                    d="M0 0L2.051 1.364" transform="translate(33.887 26.584)" />
                <path id="Path_7561" fill="#1b508c"
                    d="M835.068,57.539l13.509,15.173,3.1-5.226,9.39,4.491-3.039,13.538a7.346,7.346,0,0,1-11.97,3.95l-10.223-8.832Z"
                    transform="translate(-782.476 -30.955)" />
                <path id="Path_7562" fill="#1b508c"
                    d="M774.962,54.553l1.612,53.8s-6.324,4.245-14.9,0l3.985-17.845-4.548-34.575Z"
                    transform="translate(-742.688 -29.349)" />
                <path id="Line_5" fill="none" stroke="#9bbadb" stroke-width=".75"
                    d="M11.317 0L0 15.159" transform="translate(34.912 37.662)" />
                <path id="Line_6" fill="none" stroke="#9bbadb" stroke-width=".75"
                    d="M0 4.158L6.785 0" transform="translate(35.938 50.331)" />
                <path id="Path_7563" fill="#ff9e9e"
                    d="M769.454,128.836h2.688a.853.853,0,0,1,.8,1.14L771.862,133a.852.852,0,0,1-.908.559l-2.1-.26a.853.853,0,0,1-.735-1l.5-2.764a.853.853,0,0,1,.839-.7"
                    transform="translate(-746.451 -69.312)" />
                <path id="Line_7" fill="none" stroke="#2b4a57" stroke-width=".75"
                    d="M0 0L3.961 0.117" transform="translate(22.533 60.547)" />
                <path id="Line_8" fill="none" stroke="#2b4a57" stroke-width=".75"
                    d="M0 0L3.961 0.117" transform="translate(22.194 61.831)" />
                <path id="Line_9" fill="none" stroke="#2b4a57" stroke-width=".75"
                    d="M0 0L3.722 0.11" transform="translate(21.855 63.114)" />
                <path id="Line_10" fill="none" stroke="#133761" stroke-width=".75"
                    d="M0 0L2.794 5.847" transform="translate(10.14 46.465)" />
                <path id="Line_11" fill="none" stroke="#133761" stroke-width=".75"
                    d="M1.137 8.544L0 0" transform="translate(12.609 42.989)" />
                <path id="Line_12" fill="none" stroke="#133761" stroke-width=".75"
                    d="M4.321 2.858L0 0" transform="translate(6.891 49.779)" />
                <path id="Path_7564" fill="#133761"
                    d="M727.707,122.7l3.814,2.486,2.591-4.4.419-5.966-7.252,3.746a2.12,2.12,0,0,0-.447,3.477,8.4,8.4,0,0,0,.875.655"
                    transform="translate(-723.861 -61.77)" />
                <path id="Line_13" fill="none" stroke="#133761" stroke-width=".75"
                    d="M0 0L1.53 11.634" transform="translate(18.899 30.196)" />
                <path id="Path_7565" fill="#133761"
                    d="M835.61,73.778l.52,15.591,9.423,8.141c-.561-3.023-1.84-7.679-4.6-10.022C839.588,80.991,835.61,73.778,835.61,73.778Z"
                    transform="translate(-782.767 -39.691)" />
                <path id="Line_14" fill="none" stroke="#133761" stroke-width=".75"
                    d="M2.373 0L0 5.588" transform="translate(62.786 42.491)" />
                <path id="Line_15" fill="none" stroke="#133761" stroke-width=".75"
                    d="M0.175 0L0 8.176" transform="translate(65.419 42.664)" />
                <path id="Path_7566" fill="#133761"
                    d="M877,92.378l1.979-8.818-9.391-4.491-1.229,2.071Z"
                    transform="translate(-800.387 -42.538)" />
                <path id="Path_7567" fill="#ff9e9e"
                    d="M873.049,54.589l5.978-10.655v-.213a1.572,1.572,0,0,1,.639-1.266l3.193-2.354.748-3.184h.65l-.552,2.956,1.559-3.216.553.26-1.332,3.346,2.794-2.566.455.455L885.2,40.88l2.924-1.332.2.553-2.664,1.429-3.671,3.4-2.274,13.042Z"
                    transform="translate(-802.909 -19.721)" />
                <path id="Path_7568" fill="#cc5656"
                    d="M874.016,71.741l-.966,1.722,6.659,3.379.682-3.908Z"
                    transform="translate(-802.909 -38.595)" />
                <path id="Path_7569" fill="none" stroke="#133761" stroke-width=".75"
                    d="M770.525,144.8h7.862s.909,4.158-3.931,4.158S770.525,144.8,770.525,144.8Z"
                    transform="translate(-747.716 -77.899)" />
                <path id="Path_7570" fill="#ff9e9e"
                    d="M856.909,321.656l1.04,6.064a63.251,63.251,0,0,1,9.691,4.64.585.585,0,0,1-.317,1.078H852.737a1.093,1.093,0,0,1-1.045-1.406,11.037,11.037,0,0,1,.758-1.926,4.01,4.01,0,0,0,.263-3.039l-1.7-5.411Z"
                    transform="translate(-791.057 -173.046)" />
                <path id="Path_7571" fill="#fff"
                    d="M868.37,340.256a56.723,56.723,0,0,0-7.887-3.922l-2.843,2.4-4.206-1.353a4.031,4.031,0,0,1-.253.621,11.045,11.045,0,0,0-.759,1.926,1.093,1.093,0,0,0,1.046,1.405h14.585a.585.585,0,0,0,.317-1.078"
                    transform="translate(-791.787 -180.943)" />
                <path id="Path_7572" fill="#ff9e9e"
                    d="M796.925,329.533A1.1,1.1,0,0,0,798,328.249l-.329-1.864.133-6.369h-5.2l.863,6.322-.581,1.758a1.1,1.1,0,0,0,1.04,1.438Z"
                    transform="translate(-759.633 -172.163)" />
                <path id="Path_7573" fill="#fff"
                    d="M795.727,333.747a14.485,14.485,0,0,1,1.1,5.163.963.963,0,0,1-.964,1.007h-6.107a.768.768,0,0,1-.769-.83,6.461,6.461,0,0,1,1.109-3.2,5.806,5.806,0,0,1,1.423-2.189Z"
                    transform="translate(-757.684 -179.526)" />
                <path id="Path_7574" fill="#bfe8f8"
                    d="M789.98,16.532a2.437,2.437,0,0,0-1.438.473,3.127,3.127,0,0,0-5.762,1.013,3.11,3.11,0,0,0-2.882,3.666,2.2,2.2,0,0,0,2.366,3.673L785.01,27.7l4.591-4.5.238-1.769c.048,0,.093.014.141.014a2.458,2.458,0,0,0,0-4.916"
                    transform="translate(-752.379 -8.324)" />
                <path id="Path_7575" fill="#ff9e9e"
                    d="M796.5,28.42l-1.3-2.685s-2.165,1.343-3.378,1.3c-.043,1.494-1.83,2.48-1.83,2.48l1.071,2.462a1.278,1.278,0,0,0-1.395.817,1.318,1.318,0,0,0,.929,1.609,1.367,1.367,0,0,0,1.514-.42c3.36,1.575,5.975-.068,6.187-2.421.167-1.852-1.8-3.14-1.8-3.14"
                    transform="translate(-758.02 -13.845)" />
                <path id="Line_16" fill="none" stroke="#2b4a57" stroke-width=".75"
                    d="M0 0.717L2.159 0" transform="translate(33.778 14.682)" />
                <path id="Line_17" fill="none" stroke="#2b4a57" stroke-width=".75"
                    d="M0 0.728L0.946 0" transform="translate(36.81 13.588)" />
                <path id="Path_7576" fill="#2b4a57"
                    d="M798.3,33.238a.268.268,0,1,1-.364-.108.269.269,0,0,1,.364.108"
                    transform="translate(-762.422 -17.806)" />
                <path id="Path_7577" fill="#2b4a57"
                    d="M802.879,30.756a.268.268,0,1,1-.364-.108.269.269,0,0,1,.364.108"
                    transform="translate(-764.887 -16.471)" />
                <path id="Path_7578" fill="none" stroke="#2b4a57" stroke-width=".75"
                    d="M800.909,32.051l1.215,1.516-.607.384"
                    transform="translate(-764.099 -17.243)" />
                <path id="Line_18" fill="none" stroke="#2b4a57" stroke-width=".75" d="M2.498 0L0 0"
                    transform="translate(35.527 17.293)" />
                <path id="Path_7579" fill="#1b508c"
                    d="M808.43,54.553l7.075,53.859s4.756,3.092,13.556,0L825.85,89.624l-5.113-33.691Z"
                    transform="translate(-768.145 -29.349)" />
                <path id="Path_7580" fill="none" stroke="#133761" stroke-width=".75"
                    d="M828.252,144.8h7.862s.909,4.158-3.931,4.158S828.252,144.8,828.252,144.8Z"
                    transform="translate(-778.772 -77.899)" />
                <path id="Path_7581" fill="#7396bd"
                    d="M867.987,77.225l2.274-3.866L880.3,78.915l-1.137,5.263Z"
                    transform="translate(-800.185 -39.466)" />
                <path id="Path_7582" fill="#286a70" d="M846.268,319.684h10.049l-.668-4.028h-10.4Z"
                    transform="translate(-787.952 -169.818)" />
                <path id="Path_7583" fill="#286a70" d="M785.794,319.684H796l-.1-4.028H785.333Z"
                    transform="translate(-755.719 -169.818)" />
                <path id="Path_7584" fill="#7396bd"
                    d="M736.816,112.524l3.538,2.014-6.2,11.143-4.256-1.137Z"
                    transform="translate(-725.893 -60.536)" />
                <path id="Path_7585" fill="#fff"
                    d="M856.368,10.379A10.379,10.379,0,1,1,845.989,0a10.379,10.379,0,0,1,10.379,10.379"
                    transform="translate(-782.767)" />
                <path id="Path_7586" fill="#fff" d="M828.849,26.746l-9.941,7.567,12.994-2.2Z"
                    transform="translate(-773.782 -14.389)" />
                <path id="Path_7587" fill="#cc5656"
                    d="M853.67,17.229A3.819,3.819,0,0,1,854.2,15.6c.411-.781,2-2.193.685-2.673-.836-.356-.822.576-1.3.754a13.608,13.608,0,0,1-1.672-.028v-.013a2.956,2.956,0,0,1,2.7-2.851,2.557,2.557,0,0,1,2.975,2.687,2.832,2.832,0,0,1-.644,1.453c-.288.4-.548.576-.823.946a3.888,3.888,0,0,0-.671,1.672.911.911,0,0,0-.055.466v.014c-.562.068-1.124-.014-1.686.027H853.7c-.068-.068-.055-.206-.055-.3Zm.027,3.235h-.041a12.489,12.489,0,0,1-.014-1.59,3.829,3.829,0,0,1,1.713-.027c0,.027-.082,1.344-.082,1.6v.028h-.027Z"
                    transform="translate(-791.539 -5.796)" />
            </g>
        </g>
    </g>
</svg>