<svg xmlns="http://www.w3.org/2000/svg" width="9.332" height="9.332" viewBox="0 0 9.332 9.332">
  <path id="Path_1536" data-name="Path 1536" d="M6.2,6.666H2.467A.467.467,0,0,0,2,7.133v3.733a.467.467,0,0,0,.467.467H6.2a.467.467,0,0,0,.467-.467V7.133A.467.467,0,0,0,6.2,6.666ZM5.733,10.4h-2.8V7.6h2.8Zm5.562-8.11A.474.474,0,0,0,10.865,2h-2.8a.467.467,0,1,0,0,.933H9.741L7.268,5.4a.469.469,0,1,0,.663.663L10.4,3.591V5.266a.467.467,0,1,0,.933,0v-2.8a.467.467,0,0,0-.037-.177Z" transform="translate(-2 -2)" fill="#b4b4b4"/>
</svg>
