<svg id="Group_6322" data-name="Group 6322" xmlns="http://www.w3.org/2000/svg" width="30" height="29.966" viewBox="0 0 30 29.966">
  <g id="Path_1516" data-name="Path 1516" fill="none">
    <path d="M15,0A14.983,14.983,0,1,1,0,14.983,14.992,14.992,0,0,1,15,0Z" stroke="none"/>
    <path d="M 14.99999904632568 1.000001907348633 C 11.2602481842041 1.000001907348633 7.74439811706543 2.454643249511719 5.100109100341797 5.095952987670898 C 2.456108093261719 7.736963272094727 0.9999980926513672 11.24828338623047 0.9999980926513672 14.98308277130127 C 0.9999980926513672 18.7178840637207 2.456108093261719 22.22920227050781 5.100109100341797 24.87021255493164 C 7.74439811706543 27.51152229309082 11.2602481842041 28.96616363525391 14.99999904632568 28.96616363525391 C 18.73974990844727 28.96616363525391 22.25559997558594 27.51152229309082 24.89988899230957 24.87021255493164 C 27.54388809204102 22.22920227050781 29 18.7178840637207 29 14.98308277130127 C 29 11.24828338623047 27.54388809204102 7.736963272094727 24.89988899230957 5.095952987670898 C 22.25559997558594 2.454643249511719 18.73974990844727 1.000001907348633 14.99999904632568 1.000001907348633 M 14.99999904632568 1.9073486328125e-06 C 23.28426933288574 1.9073486328125e-06 30 6.708152770996094 30 14.98308277130127 C 30 23.25801277160645 23.28426933288574 29.96616363525391 14.99999904632568 29.96616363525391 C 6.715728759765625 29.96616363525391 -1.9073486328125e-06 23.25801277160645 -1.9073486328125e-06 14.98308277130127 C -1.9073486328125e-06 6.708152770996094 6.715728759765625 1.9073486328125e-06 14.99999904632568 1.9073486328125e-06 Z" stroke="none" fill="#f7991c"/>
  </g>
  <g id="padlock" transform="translate(10 7.991)">
    <path id="Path_1515" data-name="Path 1515" d="M9.41,9.43a1.006,1.006,0,0,0-.676,1.763v.939a.676.676,0,0,0,1.352,0v-.939A1.006,1.006,0,0,0,9.41,9.43Zm3.381-2.7V5.377a3.381,3.381,0,0,0-6.762,0V6.728A2.028,2.028,0,0,0,4,8.755v4.728a2.028,2.028,0,0,0,2.029,2.026h6.762a2.028,2.028,0,0,0,2.029-2.026V8.755A2.028,2.028,0,0,0,12.791,6.728ZM7.381,5.377a2.029,2.029,0,0,1,4.057,0V6.728H7.381Zm6.086,8.106a.676.676,0,0,1-.676.675H6.029a.676.676,0,0,1-.676-.675V8.755a.676.676,0,0,1,.676-.675h6.762a.676.676,0,0,1,.676.675Z" transform="translate(-4 -2)" fill="#f7991c"/>
  </g>
</svg>
