<svg width="15" height="15" viewBox="0 0 15 15" fill="none" xmlns="http://www.w3.org/2000/svg">
<path d="M7.5 0.260742C8.93185 0.260742 10.3319 0.684974 11.5225 1.48047C12.7129 2.27595 13.6406 3.40674 14.1885 4.72949C14.7364 6.05227 14.8799 7.50785 14.6006 8.91211C14.3212 10.3165 13.6316 11.6067 12.6191 12.6191C11.6067 13.6316 10.3165 14.3212 8.91211 14.6006C7.50785 14.8799 6.05227 14.7364 4.72949 14.1885C3.40674 13.6406 2.27595 12.7129 1.48047 11.5225C0.684974 10.3319 0.260742 8.93185 0.260742 7.5C0.260742 5.57994 1.02317 3.73854 2.38086 2.38086C3.73854 1.02317 5.57994 0.260742 7.5 0.260742Z" fill="black" fill-opacity="0.8" stroke="#DDB444" stroke-width="0.520833"/>
<g clip-path="url(#clip0_2781_322)">
<path d="M4.37796 6.82422C4.37658 6.84686 4.375 6.8695 4.375 6.89259V10.6489C4.375 11.1513 4.72928 11.5622 5.16241 11.5622H9.83759C10.2707 11.5622 10.625 11.1513 10.625 10.6489V6.89259C10.625 6.8695 10.6234 6.84686 10.622 6.82422H4.37796Z" fill="#FCB712"/>
<path d="M5.61347 6.82422C5.61268 6.84686 5.61169 6.8695 5.61169 6.89259V10.6489C5.61169 11.1513 5.8258 11.5622 6.08741 11.5622H8.91235C9.17397 11.5622 9.38807 11.1513 9.38807 10.6489V6.89259C9.38807 6.8695 9.38709 6.84686 9.3863 6.82422H5.61347Z" fill="#FECD05"/>
<path d="M7.5 7.33823C9.22589 7.33823 10.625 7.10818 10.625 6.82439C10.625 6.5406 9.22589 6.31055 7.5 6.31055C5.77411 6.31055 4.375 6.5406 4.375 6.82439C4.375 7.10818 5.77411 7.33823 7.5 7.33823Z" fill="#FFE815"/>
<path d="M6.1007 6.72935C6.09912 6.70282 6.09715 6.67652 6.09715 6.64977V5.74351C6.09715 5.09612 6.55118 4.56947 7.10931 4.56947H7.89061C8.44873 4.56947 8.90277 5.09612 8.90277 5.74351V6.64977C8.90277 6.67675 8.9008 6.70305 8.89922 6.72935H9.87688C9.87767 6.70282 9.87865 6.67629 9.87865 6.64977V5.74351C9.87865 4.47182 8.98695 3.4375 7.8908 3.4375H7.1095C6.01316 3.4375 5.12146 4.47182 5.12146 5.74351V6.64977C5.12146 6.67652 5.12245 6.70282 5.12323 6.72935H6.10089H6.1007Z" fill="#FECD05"/>
<path d="M6.10078 6.7294C6.10078 6.79 5.88195 6.83916 5.61185 6.83916C5.34176 6.83916 5.12292 6.79 5.12292 6.7294C5.12292 6.6688 5.34176 6.61963 5.61185 6.61963C5.88195 6.61963 6.10078 6.6688 6.10078 6.7294Z" fill="#FECD05"/>
<path d="M9.87727 6.7294C9.87727 6.79 9.65844 6.83916 9.38834 6.83916C9.11825 6.83916 8.89941 6.79 8.89941 6.7294C8.89941 6.6688 9.11825 6.61963 9.38834 6.61963C9.65844 6.61963 9.87727 6.6688 9.87727 6.7294Z" fill="#FECD05"/>
<path d="M7.49991 9.25481C7.75807 9.25481 7.96735 9.01206 7.96735 8.71261C7.96735 8.41316 7.75807 8.17041 7.49991 8.17041C7.24175 8.17041 7.03247 8.41316 7.03247 8.71261C7.03247 9.01206 7.24175 9.25481 7.49991 9.25481Z" fill="black"/>
<path d="M7.49995 8.48877L6.85803 10.3109H8.14186L7.49995 8.48877Z" fill="black"/>
</g>
<defs>
<clipPath id="clip0_2781_322">
<rect width="6.25" height="8.125" fill="white" transform="translate(4.375 3.4375)"/>
</clipPath>
</defs>
</svg>
