<svg xmlns="http://www.w3.org/2000/svg" width="11.69" height="7.015" viewBox="0 0 11.69 7.015">
  <g id="chart-down" transform="translate(0 1)">
    <path id="Path_94" data-name="Path 94" d="M13.1,10.087a.584.584,0,0,1-.584-.584V7.989L8.841,11.67a.584.584,0,0,1-.83,0L6.089,9.742,3,12.839a.587.587,0,0,1-.83-.83L5.674,8.5a.584.584,0,0,1,.83,0l1.923,1.928,3.267-3.267H10.18A.584.584,0,1,1,10.18,6H13.1a.593.593,0,0,1,.584.584V9.5A.584.584,0,0,1,13.1,10.087Z" transform="translate(-1.996 -6.996)" fill="#fff"/>
  </g>
</svg>
