<svg xmlns="http://www.w3.org/2000/svg" width="11.496" height="10.546" viewBox="0 0 11.496 10.546">
  <g id="filter" transform="translate(117 -39.454)">
    <g id="Path_1" transform="translate(-118 37.454)" fill="none" stroke-linecap="round" stroke-linejoin="round">
      <path d="M11.5,3H2L5.8,7.491V10.6l1.9.95V7.491Z" stroke="none"/>
      <path d="M 1.999999046325684 2.999995231628418 L 5.798279285430908 7.491465091705322 L 5.798279285430908 10.59655475616455 L 7.6974196434021 11.5461254119873 L 7.6974196434021 7.491465091705322 L 11.49569892883301 2.999995231628418 L 1.999999046325684 2.999995231628418 M 1.999999046325684 1.999995231628418 L 11.49569892883301 1.999995231628418 C 11.88502979278564 1.999995231628418 12.23895931243896 2.225955009460449 12.40281963348389 2.57911491394043 C 12.56667900085449 2.932285308837891 12.51066970825195 3.348444938659668 12.25926971435547 3.64571475982666 L 8.697420120239258 7.857606410980225 L 8.697420120239258 11.5461254119873 C 8.697420120239258 11.89270496368408 8.517969131469727 12.21456527709961 8.223149299621582 12.3967752456665 C 7.928329944610596 12.5789852142334 7.560189723968506 12.59554481506348 7.250209331512451 12.44055557250977 L 5.351069450378418 11.49098491668701 C 5.012279510498047 11.32159519195557 4.798279762268066 10.9753246307373 4.798279762268066 10.59655475616455 L 4.798279762268066 7.857606410980225 L 1.236429214477539 3.64571475982666 C 0.9850292205810547 3.348444938659668 0.9290199279785156 2.932285308837891 1.092879295349121 2.57911491394043 C 1.256739616394043 2.225955009460449 1.610669136047363 1.999995231628418 1.999999046325684 1.999995231628418 Z" stroke="none" fill="#666"/>
    </g>
  </g>
</svg>
