<svg xmlns="http://www.w3.org/2000/svg" width="123.416" height="21.176" viewBox="0 0 123.416 21.176">
  <g id="trend" transform="translate(-26 -318)">
    <text id="BULLISH" transform="translate(125.656 330.176)" fill="#30303a" font-size="8" font-family="SF Compact Display" font-weight="700"><tspan x="-15" y="0">BULLISH</tspan></text>
    <g id="Group_3941" data-name="Group 3941" transform="translate(27 318)">
      <g id="Path_1615" data-name="Path 1615" transform="translate(0 1.176)" fill="#fff">
        <path d="M 52.58585739135742 19.5 L 10.5879955291748 19.5 C 7.636395454406738 19.5 4.858925342559814 18.4664306640625 2.767235517501831 16.58967018127441 C 0.6603354811668396 14.69925975799561 -0.4999944865703583 12.18144035339355 -0.4999944865703583 9.5 C -0.4999944865703583 6.818570137023926 0.6603354811668396 4.300739765167236 2.767235517501831 2.410330057144165 C 4.858925342559814 0.5335800051689148 7.636395454406738 -0.5 10.5879955291748 -0.5 L 52.58585739135742 -0.5 C 55.53745651245117 -0.5 58.31492614746094 0.5335800051689148 60.4066162109375 2.410330057144165 C 62.51352691650391 4.300739765167236 63.67385482788086 6.818570137023926 63.67385482788086 9.5 C 63.67385482788086 12.18144035339355 62.51352691650391 14.69925975799561 60.4066162109375 16.58967018127441 C 58.31492614746094 18.4664306640625 55.53745651245117 19.5 52.58585739135742 19.5 Z" stroke="none"/>
        <path d="M 10.58799362182617 0 C 4.740406036376953 0 -3.814697265625e-06 4.253290176391602 -3.814697265625e-06 9.5 C -3.814697265625e-06 14.7467098236084 4.740406036376953 19 10.58799362182617 19 L 52.58585357666016 19 C 58.43343353271484 19 63.17384719848633 14.7467098236084 63.17384719848633 9.5 C 63.17384719848633 4.253290176391602 58.43343353271484 0 52.58585357666016 0 L 10.58799362182617 0 M 10.58799362182617 -1 L 52.58585357666016 -1 C 55.66089630126953 -1 58.55695343017578 0.0789794921875 60.74052429199219 2.038169860839844 C 62.95453643798828 4.024680137634277 64.17384338378906 6.674670219421387 64.17384338378906 9.5 C 64.17384338378906 12.32532978057861 62.95453643798828 14.97531986236572 60.74052429199219 16.96183013916016 C 58.55695343017578 18.9210205078125 55.66089630126953 20 52.58585357666016 20 L 10.58799362182617 20 C 7.512947082519531 20 4.616893768310547 18.9210205078125 2.433315277099609 16.96183013916016 C 0.2193069458007812 14.9753303527832 -1.000007629394531 12.32532978057861 -1.000007629394531 9.5 C -1.000007629394531 6.674670219421387 0.2193069458007812 4.024669647216797 2.433315277099609 2.038169860839844 C 4.616893768310547 0.0789794921875 7.512947082519531 -1 10.58799362182617 -1 Z" stroke="none" fill="#ccc"/>
      </g>
      <rect id="Rectangle_139555" data-name="Rectangle 139555" width="83" height="20" rx="10" transform="translate(38.656 0.676)" fill="#fff"/>
      <text id="Trend-2" data-name="Trend" transform="translate(7.656 14.176)" fill="#333" font-size="10" font-family="SF Compact Display"><tspan x="0" y="0">Trend</tspan></text>
    </g>
    <g id="Group_3871" data-name="Group 3871" transform="translate(64.787 318)">
      <path id="Subtraction_4" data-name="Subtraction 4" d="M37.667,21.176H10.588A10.588,10.588,0,0,1,10.588,0H37.616a12.089,12.089,0,0,0-1.377.877H10.588A9.711,9.711,0,0,0,3.721,17.455,9.648,9.648,0,0,0,10.588,20.3H36.279a12.081,12.081,0,0,0,1.388.875Z" transform="translate(0)" fill="#37a177"/>
      <path id="Subtraction_3" data-name="Subtraction 3" d="M41.323,21.176H14a12.081,12.081,0,0,0,1.391-.877H41.323A9.711,9.711,0,0,0,48.19,3.721,9.648,9.648,0,0,0,41.323.877H15.431A12.085,12.085,0,0,0,14.054,0H41.323a10.588,10.588,0,0,1,0,21.176Z" transform="translate(32.719 0)" fill="#c44437"/>
      <g id="Group_3868" data-name="Group 3868" transform="translate(10 7.821)">
        <path id="Union_1" data-name="Union 1" d="M0,5.644,4.284,1.357,7.261,4.333l2.6-2.6L8.532.248,12.787,0l-.692,4.206-1.252-1.39L7.261,6.4,4.284,3.423,1.032,6.676Z" transform="translate(0 0)" fill="#3aa97d"/>
      </g>
      <g id="Group_3869" data-name="Group 3869" transform="translate(61.843 6.786)">
        <path id="Union_2" data-name="Union 2" d="M8.531,6.427,9.865,4.946l-2.6-2.6L4.284,5.319,0,1.032,1.032,0,4.284,3.253,7.261.277l3.583,3.583,1.251-1.39.692,4.206Z" transform="translate(0 0)" fill="#c44437"/>
      </g>
      <g id="Group_6324" data-name="Group 6324" transform="translate(-20)">
        <g id="Path_1516" data-name="Path 1516" transform="translate(52.384 0.545)" fill="none">
          <path d="M9.849,0A9.939,9.939,0,0,1,19.7,10.028,9.939,9.939,0,0,1,9.849,20.056,9.939,9.939,0,0,1,0,10.028,9.939,9.939,0,0,1,9.849,0Z" stroke="none"/>
          <path d="M 9.848530769348145 1.19999885559082 C 5.079710960388184 1.19999885559082 1.200000762939453 5.160228729248047 1.200000762939453 10.02800846099854 C 1.200000762939453 14.89578819274902 5.079710960388184 18.85601806640625 9.848530769348145 18.85601806640625 C 14.61735057830811 18.85601806640625 18.49706077575684 14.89578819274902 18.49706077575684 10.02800846099854 C 18.49706077575684 5.160228729248047 14.61735057830811 1.19999885559082 9.848530769348145 1.19999885559082 M 9.848530769348145 -1.9073486328125e-06 C 15.28772068023682 -1.9073486328125e-06 19.69706153869629 4.489688873291016 19.69706153869629 10.02800846099854 C 19.69706153869629 15.56632804870605 15.28772068023682 20.0560188293457 9.848530769348145 20.0560188293457 C 4.409340858459473 20.0560188293457 0 15.56632804870605 0 10.02800846099854 C 0 4.489688873291016 4.409340858459473 -1.9073486328125e-06 9.848530769348145 -1.9073486328125e-06 Z" stroke="none" fill="#f7991c"/>
        </g>
        <g id="padlock" transform="translate(58.95 5.894)">
          <path id="Path_1515" data-name="Path 1515" d="M7.552,6.973a.662.662,0,0,0-.625.433.682.682,0,0,0,.181.747v.628a.444.444,0,1,0,.888,0V8.153a.682.682,0,0,0,.181-.747.662.662,0,0,0-.625-.433Zm2.22-1.808v-.9a2.22,2.22,0,1,0-4.44,0v.9A1.344,1.344,0,0,0,4,6.521V9.685a1.344,1.344,0,0,0,1.332,1.356h4.44A1.344,1.344,0,0,0,11.1,9.685V6.521A1.344,1.344,0,0,0,9.772,5.165ZM6.22,4.26a1.332,1.332,0,1,1,2.664,0v.9H6.22Zm4,5.425a.448.448,0,0,1-.444.452H5.332a.448.448,0,0,1-.444-.452V6.521a.448.448,0,0,1,.444-.452h4.44a.448.448,0,0,1,.444.452Z" transform="translate(-4 -2)" fill="#f7991c"/>
        </g>
      </g>
    </g>
  </g>
</svg>
