<svg xmlns="http://www.w3.org/2000/svg" width="11.276" height="11.277" viewBox="0 0 11.276 11.277">
  <g id="pen" transform="translate(-2 -2)" opacity="0.605">
    <path id="Path_1532" d="M13.276,4.954a.564.564,0,0,0-.164-.4L10.722,2.163a.572.572,0,0,0-.8,0l-1.6,1.6L2.163,9.921a.564.564,0,0,0-.164.4v2.391a.564.564,0,0,0,.564.564H4.954a.564.564,0,0,0,.428-.164L11.511,6.95l1.6-1.567a.671.671,0,0,0,.124-.186.564.564,0,0,0,0-.135.4.4,0,0,0,0-.079ZM4.723,12.149h-1.6v-1.6l5.6-5.6,1.6,1.6Zm6.394-6.394-1.6-1.6.8-.795,1.59,1.59Z" transform="translate(0 0)" fill="#fff"/>
  </g>
</svg>
