<svg width="54" height="54" viewBox="0 0 54 54" fill="none" xmlns="http://www.w3.org/2000/svg">
<path d="M27.2214 45.7625C37.3915 45.7625 45.6364 37.3621 45.6364 27C45.6364 16.638 37.3915 8.23759 27.2214 8.23759C17.0512 8.23759 8.8064 16.638 8.8064 27C8.8064 37.3621 17.0512 45.7625 27.2214 45.7625ZM27.2214 45.7625V8.25387M8.81439 27H45.6284M40.235 40.0637C37.4235 37.4772 32.6399 35.7751 27.2111 35.7751C21.7823 35.7751 17.0204 37.4703 14.2066 40.0474M40.235 13.9364C37.4235 16.5228 32.6399 18.225 27.2111 18.225C21.7823 18.225 17.0204 16.5298 14.2066 13.9526M27.0535 8.4505C21.4991 12.4459 17.8415 19.2465 17.8415 26.9639C17.8415 34.6814 21.482 41.4517 27.017 45.4506M27.661 8.4505C33.2154 12.4459 36.8731 19.2465 36.8731 26.9639C36.8731 34.6814 33.2314 41.4517 27.6976 45.4506" stroke="#79798E" stroke-linecap="round" stroke-linejoin="round"/>
<ellipse cx="17.1261" cy="27.4817" rx="2.52381" ry="2.57143" fill="#C9A648"/>
<ellipse cx="34.1618" cy="16.5532" rx="3.15476" ry="3.21429" fill="#59D059"/>
<ellipse cx="27.2213" cy="35.1959" rx="2.52381" ry="2.57143" fill="#AA4A39"/>
</svg>
