<svg xmlns="http://www.w3.org/2000/svg" width="2.042" height="10.042" viewBox="0 0 2.042 10.042">
  <g id="Group_4070" transform="translate(-306 -231.832)">
    <g id="ic_more_vert_24px" transform="translate(296 226.832)">
      <path id="Path_5082" d="M11.021,6.042A1.021,1.021,0,1,0,10,5.021,1.024,1.024,0,0,0,11.021,6.042Z" transform="translate(0 1)" fill="#0065a1"/>
    </g>
    <g id="ic_more_vert_24px-2" transform="translate(296 230.832)">
      <path id="Path_5082-2" d="M11.021,6.042A1.021,1.021,0,1,0,10,5.021,1.024,1.024,0,0,0,11.021,6.042Z" transform="translate(0 1)" fill="#0065a1"/>
    </g>
    <g id="ic_more_vert_24px-3" transform="translate(296 234.832)">
      <path id="Path_5082-3" d="M11.021,6.042A1.021,1.021,0,1,0,10,5.021,1.024,1.024,0,0,0,11.021,6.042Z" transform="translate(0 1)" fill="#0065a1"/>
    </g>
  </g>
</svg>
