<svg id="padlock" xmlns="http://www.w3.org/2000/svg" width="7.615" height="9.518" viewBox="0 0 7.615 9.518">
  <path id="Path_1515" d="M7.807,7.235a.709.709,0,0,0-.476,1.242v.662a.476.476,0,1,0,.952,0V8.477a.709.709,0,0,0-.476-1.242Zm2.38-1.9V4.38a2.38,2.38,0,0,0-4.759,0v.952A1.428,1.428,0,0,0,4,6.759v3.331a1.428,1.428,0,0,0,1.428,1.428h4.759a1.428,1.428,0,0,0,1.428-1.428V6.759A1.428,1.428,0,0,0,10.187,5.331ZM6.38,4.38a1.428,1.428,0,0,1,2.856,0v.952H6.38Zm4.283,5.711a.476.476,0,0,1-.476.476H5.428a.476.476,0,0,1-.476-.476V6.759a.476.476,0,0,1,.476-.476h4.759a.476.476,0,0,1,.476.476Z" transform="translate(-4 -2)" fill="#a8a8a8"/>
</svg>
