<svg xmlns="http://www.w3.org/2000/svg" width="15.73" height="13.429" viewBox="0 0 15.73 13.429">
  <g id="Group_64" data-name="Group 64" transform="translate(-923.5 -156)">
    <path id="Path_94" data-name="Path 94" d="M938.863,171.167v4.45a1.229,1.229,0,0,1-1.227,1.227H926.894a1.229,1.229,0,0,1-1.227-1.227v-4.45" transform="translate(-0.9 -7.915)" fill="none" stroke="#fff" stroke-width="1"/>
    <path id="Path_95" data-name="Path 95" d="M930.119,166.024h-3.05c-1.037,0-3.069-.556-3.069-1.842v-2.762a.922.922,0,0,1,.921-.921H937.81a.922.922,0,0,1,.921.921v2.762c0,1.286-2.032,1.842-3.069,1.842h-3" transform="translate(0 -2.159)" fill="none" stroke="#fff" stroke-width="1"/>
    <path id="Path_96" data-name="Path 96" d="M939.8,172.341h-2.3V170.5h2.3Z" transform="translate(-7.286 -7.555)" fill="none" stroke="#fff" stroke-width="1"/>
    <g id="Group_63" data-name="Group 63" transform="translate(928.603 156.5)">
      <path id="Path_97" data-name="Path 97" d="M939.524,158.341v-.921a.95.95,0,0,0-.975-.921h-3.574a.95.95,0,0,0-.975.921v.921" transform="translate(-934 -156.5)" fill="none" stroke="#fff" stroke-width="1"/>
    </g>
  </g>
</svg>
