<svg xmlns="http://www.w3.org/2000/svg" width="11.961" height="11.961" viewBox="0 0 11.961 11.961">
  <g id="info-circle" transform="translate(-2 -2)">
    <path id="Path_93" data-name="Path 93" d="M7.98,7.382a.6.6,0,0,0-.6.6v2.392a.6.6,0,1,0,1.2,0V7.98A.6.6,0,0,0,7.98,7.382Zm.227-2.344a.618.618,0,0,0-.652.126.688.688,0,0,0-.126.2.5.5,0,0,0-.048.227.6.6,0,0,0,.173.425.688.688,0,0,0,.2.126.6.6,0,0,0,.825-.55.628.628,0,0,0-.173-.425A.6.6,0,0,0,8.208,5.038ZM7.98,2a5.98,5.98,0,1,0,5.98,5.98A5.98,5.98,0,0,0,7.98,2Zm0,10.765A4.784,4.784,0,1,1,12.765,7.98,4.784,4.784,0,0,1,7.98,12.765Z" fill="#fff"/>
  </g>
</svg>
