<svg xmlns="http://www.w3.org/2000/svg" width="15" height="14" viewBox="0 0 18.161 10.282">
  <g id="Group_62" transform="translate(-995.357 -159.065)">
    <path id="Path_91" d="M1013.013,163.372a1.688,1.688,0,1,1-1.013,1.547" transform="translate(-9.25 -2.119)" fill="none" stroke="#000" stroke-width="1"/>
    <path id="Path_92" d="M1013.717,161.663a4.388,4.388,0,0,1,.721,2.421,4.22,4.22,0,1,1-8.438,0,4.389,4.389,0,0,1,.721-2.42" transform="translate(-5.781 -1.213)" fill="none" stroke="#000" stroke-width="1"/>
    <path id="Path_93" d="M1004.438,159.565c4.689,0,8.438,4.641,8.438,4.641s-3.749,4.641-8.438,4.641S996,164.206,996,164.206,999.749,159.565,1004.438,159.565Z" transform="translate(0 0)" fill="none" stroke="#000" stroke-width="1"/>
  </g>
</svg>
