<svg xmlns="http://www.w3.org/2000/svg" xmlns:xlink="http://www.w3.org/1999/xlink" width="79.743"
    height="79.743" viewBox="0 0 79.743 79.743">
    <defs>
        <filter id="Path_1516" x="0" y="0" width="79.743" height="79.743">
            <feOffset dy="3" />
            <feGaussianBlur stdDeviation="3" result="blur" />
            <feFlood flood-opacity="0.161" />
            <feComposite operator="in" in2="blur" />
            <feComposite in="SourceGraphic" />
        </filter>
    </defs>
    <g id="Group_3944" transform="translate(-719 -1099)">
        <g id="Group_3872" transform="translate(728 1105)">
            <g transform="matrix(1, 0, 0, 1, -9, -6)" filter="url(#Path_1516)">
                <g id="Path_1516-2" transform="translate(9 6)" fill="none">
                    <path d="M30.872,0A30.872,30.872,0,1,1,0,30.872,30.872,30.872,0,0,1,30.872,0Z"
                        stroke="none" />
                    <path
                        d="M 30.87158203125 1.000003814697266 C 26.8385009765625 1.000003814697266 22.92659378051758 1.789661407470703 19.24452209472656 3.347053527832031 C 15.68755340576172 4.851520538330078 12.49286270141602 7.005512237548828 9.749183654785156 9.749183654785156 C 7.005512237548828 12.49286270141602 4.851520538330078 15.68755340576172 3.347053527832031 19.24452209472656 C 1.789661407470703 22.92659378051758 1.000003814697266 26.8385009765625 1.000003814697266 30.87158203125 C 1.000003814697266 34.9046630859375 1.789661407470703 38.81657409667969 3.347053527832031 42.49864196777344 C 4.851520538330078 46.05561065673828 7.005512237548828 49.25030136108398 9.749183654785156 51.99398040771484 C 12.49286270141602 54.73765182495117 15.68755340576172 56.89164352416992 19.24452209472656 58.39611053466797 C 22.92659378051758 59.9535026550293 26.8385009765625 60.74316024780273 30.87158203125 60.74316024780273 C 34.9046630859375 60.74316024780273 38.81657409667969 59.9535026550293 42.49864196777344 58.39611053466797 C 46.05561065673828 56.89164352416992 49.25030136108398 54.73765182495117 51.99398040771484 51.99398040771484 C 54.73765182495117 49.25030136108398 56.89164352416992 46.05561065673828 58.39611053466797 42.49864196777344 C 59.9535026550293 38.81657409667969 60.74316024780273 34.9046630859375 60.74316024780273 30.87158203125 C 60.74316024780273 26.8385009765625 59.9535026550293 22.92659378051758 58.39611053466797 19.24452209472656 C 56.89164352416992 15.68755340576172 54.73765182495117 12.49286270141602 51.99398040771484 9.749183654785156 C 49.25030136108398 7.005512237548828 46.05561065673828 4.851520538330078 42.49864196777344 3.347053527832031 C 38.81657409667969 1.789661407470703 34.9046630859375 1.000003814697266 30.87158203125 1.000003814697266 M 30.87158203125 3.814697265625e-06 C 47.92148208618164 3.814697265625e-06 61.74316024780273 13.82168197631836 61.74316024780273 30.87158203125 C 61.74316024780273 47.92148208618164 47.92148208618164 61.74316024780273 30.87158203125 61.74316024780273 C 13.82168197631836 61.74316024780273 3.814697265625e-06 47.92148208618164 3.814697265625e-06 30.87158203125 C 3.814697265625e-06 13.82168197631836 13.82168197631836 3.814697265625e-06 30.87158203125 3.814697265625e-06 Z"
                        stroke="none" fill="#f7991c" />
                </g>
            </g>
            <g id="padlock" transform="translate(20.243 17.207)">
                <path id="Path_1515"
                    d="M15.134,17.309a2.074,2.074,0,0,0-1.392,3.632v1.935a1.392,1.392,0,1,0,2.784,0V20.942a2.074,2.074,0,0,0-1.392-3.632Zm6.959-5.567V8.959a6.959,6.959,0,0,0-13.918,0v2.784A4.175,4.175,0,0,0,4,15.918V25.66a4.175,4.175,0,0,0,4.175,4.175H22.093a4.175,4.175,0,0,0,4.175-4.175V15.918A4.175,4.175,0,0,0,22.093,11.742ZM10.959,8.959a4.175,4.175,0,0,1,8.351,0v2.784H10.959Zm12.526,16.7a1.392,1.392,0,0,1-1.392,1.392H8.175A1.392,1.392,0,0,1,6.784,25.66V15.918a1.392,1.392,0,0,1,1.392-1.392H22.093a1.392,1.392,0,0,1,1.392,1.392Z"
                    transform="translate(-4 -2)" fill="#f7991c" />
            </g>
        </g>
    </g>
</svg>
