<svg xmlns="http://www.w3.org/2000/svg" width="14.641" height="10.404" viewBox="0 0 14.641 10.404">
  <path id="Path_10" data-name="Path 10" d="M1.6-13.579H4.476v1.342a4.191,4.191,0,0,1,1.255-1.195,3.078,3.078,0,0,1,1.528-.355,2.631,2.631,0,0,1,1.524.39,2.8,2.8,0,0,1,.917,1.16,4.807,4.807,0,0,1,1.323-1.225,3.053,3.053,0,0,1,1.474-.325,2.474,2.474,0,0,1,2.018.879,4.279,4.279,0,0,1,.726,2.749v5.775H12.152V-9.622a1.633,1.633,0,0,0-.211-.927.9.9,0,0,0-.769-.476,1.036,1.036,0,0,0-.875.45,2.47,2.47,0,0,0-.332,1.446v4.745H6.876V-9.449a3.613,3.613,0,0,0-.061-.823,1.133,1.133,0,0,0-.342-.558.839.839,0,0,0-.57-.212,1.046,1.046,0,0,0-.874.459,2.568,2.568,0,0,0-.342,1.507v4.693H1.6Z" transform="translate(-1.1 14.287)" fill="none" stroke="#fff" stroke-width="1"/>
</svg>
