<svg width="46" height="46" viewBox="0 0 46 46" fill="none" xmlns="http://www.w3.org/2000/svg">
<circle opacity="0.4" cx="23" cy="23" r="23" fill="black"/>
<g clip-path="url(#clip0_541_4956)">
<mask id="mask0_541_4956" style="mask-type:alpha" maskUnits="userSpaceOnUse" x="11" y="13" width="24" height="20">
<path fill-rule="evenodd" clip-rule="evenodd" d="M35 13H11V21H35V13ZM35 25H11V33H35V25Z" fill="#D9D9D9"/>
</mask>
<g mask="url(#mask0_541_4956)">
<path d="M31.7668 17.4H32.9334C33.1678 17.4 33.3579 17.466 33.4756 17.5467C33.5956 17.629 33.6001 17.6917 33.6001 17.7V20.9C33.6001 20.9083 33.5956 20.971 33.4756 21.0533C33.3579 21.134 33.1678 21.2 32.9334 21.2H31.7668C31.5324 21.2 31.3423 21.134 31.2246 21.0533C31.1046 20.971 31.1001 20.9083 31.1001 20.9V17.7C31.1001 17.6917 31.1046 17.629 31.2246 17.5467C31.3423 17.466 31.5324 17.4 31.7668 17.4Z" fill="#F10000" stroke="#F10000"/>
<path d="M32.3 30.1V15" stroke="#F10000"/>
<path d="M27.1334 21.3H25.9667C25.3224 21.3 24.8 21.6582 24.8 22.1V29.7C24.8 30.1418 25.3224 30.5 25.9667 30.5H27.1334C27.7777 30.5 28.3 30.1418 28.3 29.7V22.1C28.3 21.6582 27.7777 21.3 27.1334 21.3Z" fill="#00FF00"/>
<path d="M26.6 15.3V32.2" stroke="#00FF00"/>
<path d="M21.3335 26.3H20.1668C19.5225 26.3 19.0001 26.6582 19.0001 27.1V30.3C19.0001 30.7418 19.5225 31.1 20.1668 31.1H21.3335C21.9778 31.1 22.5001 30.7418 22.5001 30.3V27.1C22.5001 26.6582 21.9778 26.3 21.3335 26.3Z" fill="#F10000"/>
<path d="M20.6501 19.9V33" stroke="#F10000"/>
<path d="M15.5334 17.5H14.3667C13.7224 17.5 13.2001 17.8582 13.2001 18.3V23.9C13.2001 24.3418 13.7224 24.7 14.3667 24.7H15.5334C16.1777 24.7 16.7001 24.3418 16.7001 23.9V18.3C16.7001 17.8582 16.1777 17.5 15.5334 17.5Z" fill="#00FF00"/>
<path d="M14.9 15.9V30.6" stroke="#00FF00"/>
</g>
<path d="M11 23H35" stroke="#E6E8F3" stroke-width="1.5" stroke-dasharray="2 2"/>
</g>
<defs>
<clipPath id="clip0_541_4956">
<rect width="24" height="24" fill="white" transform="translate(11 11)"/>
</clipPath>
</defs>
</svg>
