<svg id="vector" xmlns="http://www.w3.org/2000/svg" width="35" height="35" viewBox="0 0 35 35">
    <defs>
        <clipPath id="clip_path_0">
            <path d="M0,0h35v35h-35z M 0,0" />
        </clipPath>
    </defs>
    <g id="g_0">
        <path fill="#535866" d="M17.5,17.5m-17.5,0a17.5,17.5 0,1 1,35 0a17.5,17.5 0,1 1,-35 0"
            clip-path="url(#clip_path_0)" />
        <path fill="#535866"
            d="M30,30c-1.547,-1.882 -4.457,-3.4 -7.535,-4.165 0,0 -0.811,-0.183 -0.811,-2.753a13.682,13.682 0,0 0,2.049 -4.859c0.981,-0.207 1.368,-1.8 1.368,-2.636 0,-0.551 -0.388,-1.736 -1.015,-1.562 0,0 2.26,-9.024 -6.556,-9.024s-6.556,9.024 -6.556,9.024c-0.627,-0.174 -1.015,1.012 -1.015,1.563 0,0.839 0.387,2.429 1.368,2.636a13.686,13.686 0,0 0,2.049 4.859c0,2.569 -0.811,2.753 -0.811,2.753 -3.078,0.761 -5.988,2.283 -7.535,4.165"
            stroke-linejoin="round" stroke-width="1" stroke="#fff" />
        <path fill="#535866"
            d="M22.312,25.593c-0.21,0.764 -2.167,2.454 -4.812,2.454s-4.6,-1.69 -4.812,-2.454"
            stroke-linejoin="round" stroke-width="1" stroke="#fff" />
    </g>
</svg>