<svg width="18" height="19" viewBox="0 0 18 19" fill="none" xmlns="http://www.w3.org/2000/svg">
    <g clip-path="url(#clip0_3856_757)">
        <path
            d="M9 16.611C12.7279 16.611 15.75 13.5889 15.75 9.86102C15.75 6.1331 12.7279 3.11102 9 3.11102C5.27208 3.11102 2.25 6.1331 2.25 9.86102C2.25 13.5889 5.27208 16.611 9 16.611Z"
            stroke="black" stroke-linejoin="round" />
        <path
            d="M6.92627 7.46894V12.2537C6.92626 12.3265 6.94539 12.398 6.98175 12.461C7.01811 12.524 7.07041 12.5764 7.1334 12.6128C7.19639 12.6492 7.26785 12.6684 7.34061 12.6685C7.41337 12.6685 7.48487 12.6494 7.54792 12.6131L11.695 10.2204C11.758 10.184 11.8103 10.1316 11.8467 10.0686C11.8831 10.0056 11.9022 9.93412 11.9022 9.86135C11.9022 9.78859 11.8831 9.71709 11.8467 9.65407C11.8103 9.59104 11.758 9.53872 11.695 9.50232L7.54792 7.10959C7.48487 7.07327 7.41337 7.05418 7.34061 7.05423C7.26785 7.05428 7.19639 7.07347 7.1334 7.10989C7.07041 7.1463 7.01811 7.19865 6.98175 7.26168C6.94539 7.3247 6.92626 7.39618 6.92627 7.46894Z"
            stroke="black" stroke-linecap="round" stroke-linejoin="round" />
    </g>
    <defs>
        <clipPath id="clip0_3856_757">
            <rect width="18" height="18" fill="white" transform="translate(0 0.861023)" />
        </clipPath>
    </defs>
</svg>
