<svg xmlns="http://www.w3.org/2000/svg" width="8.989" height="10.1" viewBox="0 0 8.989 10.1">
    <g id="Group_6024" transform="translate(0.05 0.05)">
        <path id="Path_6278"
            d="M36.714,1.615c0-.008,0-.015,0-.023V.256A.253.253,0,0,0,36.461,0H28.087a.251.251,0,0,0-.255.249V1.592c0,.008-.005.015,0,.023s0,.008,0,.01v.013a.022.022,0,0,0,0,.013.019.019,0,0,1,0,.01.108.108,0,0,1,0,.013s0,.008,0,.01,0,.008.005.013,0,.008.005.01,0,.008.005.01a.019.019,0,0,1,.005.01s.005.008.005.01l.008.01s.005.005.005.008a.013.013,0,0,1,.008,0l3.188,3.615V9.744a.247.247,0,0,0,.146.231.273.273,0,0,0,.112.026.266.266,0,0,0,.165-.056l1.877-1.469a.246.246,0,0,0,.093-.2v-2.9l3.185-3.615a.008.008,0,0,0,.005,0l.008-.008.008-.01.008-.01a19.706,19.706,0,0,0,.011-.021s0-.008.005-.01,0-.008.005-.013a.015.015,0,0,0,0-.01.022.022,0,0,0,0-.013c0-.005,0-.008,0-.01a.108.108,0,0,0,0-.013.108.108,0,0,1,0-.013S36.711,1.618,36.714,1.615ZM33,5.113a.262.262,0,0,0-.069.167V8.151L31.607,9.205V5.279a.262.262,0,0,0-.069-.167L28.661,1.846h7.221Zm3.174-3.779H28.363V.513h7.816Z"
            transform="translate(-27.828)" fill="#fff" stroke="#fff" stroke-width="0.1" />
    </g>
</svg>
