<svg xmlns="http://www.w3.org/2000/svg" role="img" viewBox="24.85 35.98 66.17 85.54">
    <defs>
        <clipPath id="clip-path">
            <circle id="Ellipse_374" cx="60" cy="60" r="60" fill="#fff" stroke="#707070"
                stroke-width="1" transform="translate(439.5 978.234)" />
        </clipPath>
    </defs>
    <g id="Mask_Group_9" clip-path="url(#clip-path)" transform="translate(-439.5 -978.234)">
        <g id="Group_2840" transform="translate(460.004 956.957)">
            <path id="Path_7640" fill="#f2c9c9" stroke="rgba(0,0,0,0)" stroke-width="1"
                d="M1039.7,421.077c0,2.695-21.534,4.879-48.1,4.879s-48.1-2.184-48.1-4.879,21.535-4.879,48.1-4.879,48.1,2.185,48.1,4.879"
                transform="translate(-940.207 -173.061)" />
            <path id="Path_7641" fill="#d48273" stroke="rgba(0,0,0,0)" stroke-width="1"
                d="M993.578,365.531s-1.609,22.25-.59,25.628c.687,2.279,1.155,4.485,1.386,5.678a1.019,1.019,0,0,1-.732,1.178,41.483,41.483,0,0,1-4.354.972s-10.723,3.217-11.152,1.716,4.879-4.182,6.166-5.2a16.986,16.986,0,0,0,2.719-3.54,2.847,2.847,0,0,0,.4-1.928l-3.6-24.5Z"
                transform="translate(-955.021 -151.371)" />
            <path id="Path_7642" fill="#d48273" stroke="rgba(0,0,0,0)" stroke-width="1"
                d="M993.578,365.531s-1.609,22.25-.59,25.628c.687,2.279,1.155,4.485,1.386,5.678a1.019,1.019,0,0,1-.732,1.178,41.483,41.483,0,0,1-4.354.972s-10.723,3.217-11.152,1.716,4.879-4.182,6.166-5.2a16.986,16.986,0,0,0,2.719-3.54,2.847,2.847,0,0,0,.4-1.928l-3.6-24.5Z"
                transform="translate(-955.021 -151.371)" />
            <path id="Path_7643" fill="#104a4f" stroke="rgba(0,0,0,0)" stroke-width="1"
                d="M993.643,419.689a1.02,1.02,0,0,0,.732-1.178c-.113-.58-.282-1.4-.5-2.352a4.253,4.253,0,0,1-3.561.706,2.587,2.587,0,0,0-1.69-.019,5.733,5.733,0,0,1-4.035.075c-.1.093-.192.183-.282.255-1.287,1.019-6.595,3.7-6.166,5.2s11.152-1.715,11.152-1.715a41.669,41.669,0,0,0,4.354-.972"
                transform="translate(-955.021 -173.045)" />
            <path id="Path_7644" fill="#d48273" stroke="rgba(0,0,0,0)" stroke-width="1"
                d="M1031.336,365.531s4.714,22.25,4.167,25.628a56.086,56.086,0,0,0-.594,5.678,1.2,1.2,0,0,0,.9,1.178,45.289,45.289,0,0,0,4.489.972s11.172,3.217,11.392,1.716-5.463-4.182-6.892-5.2a20.863,20.863,0,0,1-3.214-3.54,3.16,3.16,0,0,1-.67-1.928l.182-24.5Z"
                transform="translate(-977.806 -151.371)" />
            <path id="Path_7645" fill="#d48273" stroke="rgba(0,0,0,0)" stroke-width="1"
                d="M1031.336,365.531s4.714,22.25,4.167,25.628a56.086,56.086,0,0,0-.594,5.678,1.2,1.2,0,0,0,.9,1.178,45.289,45.289,0,0,0,4.489.972s11.172,3.217,11.392,1.716-5.463-4.182-6.892-5.2a20.863,20.863,0,0,1-3.214-3.54,3.16,3.16,0,0,1-.67-1.928l.182-24.5Z"
                transform="translate(-977.806 -151.371)" />
            <path id="Path_7646" fill="#104a4f" stroke="rgba(0,0,0,0)" stroke-width="1"
                d="M1038.48,419.689a1.2,1.2,0,0,1-.9-1.178c.032-.58.086-1.4.176-2.352a4.614,4.614,0,0,0,3.659.706,2.575,2.575,0,0,1,1.688-.019,5.736,5.736,0,0,0,4.046.075c.109.093.217.183.318.255,1.429,1.019,7.111,3.7,6.892,5.2s-11.391-1.716-11.391-1.716a45.548,45.548,0,0,1-4.49-.972"
                transform="translate(-980.48 -173.045)" />
            <path id="Path_7647" fill="#875c43" stroke="rgba(0,0,0,0)" stroke-width="1"
                d="M973.043,232.969s-4.021,6.434-1.93,23.162,7.56,54.045,7.56,54.045H993.31l-1.448-63.267,10.777,63.267h14.8l-2.091-11.9s2.976-49.059-3.137-65.3Z"
                transform="translate(-951.767 -94.622)" />
            <path id="Path_7648" fill="#694734" stroke="rgba(0,0,0,0)" stroke-width="1"
                d="M1015.194,243.43a50.622,50.622,0,0,0-2.352-10.462H973.677a16.994,16.994,0,0,0-1.686,5.013c5.242,1.971,21.117,6.992,43.2,5.45"
                transform="translate(-952.401 -94.622)" />
            <path id="Line_40" fill="none" stroke="#d48273" stroke-width=".5" d="M0 0L17.479 5.522"
                transform="translate(31.356 147.033)" />
            <path id="Line_41" fill="none" stroke="#d48273" stroke-width=".5" d="M0.417 11.396L0 0"
                transform="translate(39.678 141.617)" />
            <path id="Path_7649" fill="none" stroke="#d48273" stroke-width=".5"
                d="M1002.908,238.687s-.06,5.98,2.68,7.489" transform="translate(-965.636 -97.07)" />
            <path id="Path_7650" fill="none" stroke="#d48273" stroke-width=".5"
                d="M1036.584,234.759a13.674,13.674,0,0,0,6.527,11.514"
                transform="translate(-980.052 -95.388)" />
            <path id="Path_7651" fill="none" stroke="#d48273" stroke-width=".5"
                d="M976.6,235.4s-1.458,6.819-6.088,11.149"
                transform="translate(-951.766 -95.661)" />
            <path id="Path_7652" fill="#c15848" stroke="rgba(0,0,0,0)" stroke-width="1"
                d="M1021.881,110.4a3.611,3.611,0,1,1-3.611-3.611,3.612,3.612,0,0,1,3.611,3.611"
                transform="translate(-970.666 -40.604)" />
            <path id="Path_7653" fill="#6560d1" stroke="rgba(0,0,0,0)" stroke-width="1"
                d="M981.261,147.083c-2.337.7-6.2,2.151-7.7,8.209s-4.5,13.94-4.5,13.94l-2.52,3.163.482,3.378s-3.109,6.916-1.179,8.257,8.471-.965,8.471-.965L969,197.649s17.478,5.362,42.357,0l-2.949-11.742s6.809,4.236,9.168,3.217-1.019-16.246-1.019-16.246a6.125,6.125,0,0,0-1.287-6.487s-1.708-10.7-4.021-14.745a10.988,10.988,0,0,0-5.536-4.563Z"
                transform="translate(-949.497 -57.855)" />
            <path id="Line_42" fill="none" stroke="#5450ad" stroke-width=".5" d="M0 2.882L7.241 0"
                transform="translate(18.301 113.563)" />
            <path id="Line_43" fill="none" stroke="#5450ad" stroke-width=".5" d="M0 0L7.935 1.045"
                transform="translate(20.526 111.887)" />
            <path id="Line_44" fill="none" stroke="#5450ad" stroke-width=".5" d="M0 0L1.072 14.852"
                transform="translate(52.588 102.585)" />
            <path id="Line_45" fill="none" stroke="#5450ad" stroke-width=".5" d="M0 5.026L7.541 0"
                transform="translate(54.994 106.901)" />
            <path id="Path_7654" fill="none" stroke="#5450ad" stroke-width=".5"
                d="M1034.174,188.851s5.129-.3,8.145.694" transform="translate(-979.021 -75.717)" />
            <path id="Path_7655" fill="none" stroke="#5450ad" stroke-width=".5"
                d="M992.294,160.031s-4.826,7.332-1.206,11.474"
                transform="translate(-960 -63.398)" />
            <path id="Line_46" fill="none" stroke="#5450ad" stroke-width=".5" d="M0 0L0.627 3.37"
                transform="translate(30.391 95.668)" />
            <path id="Path_7656" fill="none" stroke="#5450ad" stroke-width=".5"
                d="M1015.31,201.46a43.393,43.393,0,0,1-13.652,12.712"
                transform="translate(-965.101 -81.133)" />
            <path id="Line_47" fill="none" stroke="#5450ad" stroke-width=".5" d="M0 3.119L12.926 0"
                transform="translate(42.316 129.92)" />
            <path id="Path_7657" fill="#4f3778" stroke="rgba(0,0,0,0)" stroke-width="1"
                d="M1047.742,212.891c-.043-2.231-2.417-5.884-4.057-8.423l-9.356,3.995,3.673,2.01s6.809,4.236,9.168,3.217a1.216,1.216,0,0,0,.572-.8"
                transform="translate(-979.087 -82.421)" />
            <path id="Path_7658" fill="#d48273" stroke="rgba(0,0,0,0)" stroke-width="1"
                d="M988.439,178.276s19.215,5.989,23.732,7.7,7.359,4.771,8.378,6.97c0,0-2.037,7.185-10.026,4.879S988,181.906,988,181.906l-4.289.268-3.089,1.019-.074-3.431,2.627-1.072-2.9.053v-.657l3.967-.523Z"
                transform="translate(-955.95 -70.903)" />
            <path id="Line_48" fill="none" stroke="#9c5f54" stroke-width=".5" d="M3.31 0L0 1.246"
                transform="translate(24.622 108.871)" />
            <path id="Line_49" fill="none" stroke="#9c5f54" stroke-width=".5" d="M3.31 0L0 1.246"
                transform="translate(24.622 109.946)" />
            <path id="Path_7659" fill="#9c5f54" stroke="rgba(0,0,0,0)" stroke-width="1"
                d="M1004.654,183.124l-4.809,4.263c1.255,1.089,2.777,2.375,4.441,3.711a14.8,14.8,0,0,1,8.131-5.486c-2.549-.828-5.293-1.7-7.763-2.487"
                transform="translate(-964.325 -73.284)" />
            <path id="Path_7660" fill="#4f3778" stroke="rgba(0,0,0,0)" stroke-width="1"
                d="M974.5,201.652l2.6-.777L974.308,190.5c-3.667,1.93-10.315,9.785-8.279,12.117,1.93,1.341,8.472-.965,8.472-.965"
                transform="translate(-949.686 -76.441)" />
            <path id="Path_7661" fill="#9c5f54" stroke="rgba(0,0,0,0)" stroke-width="1"
                d="M974.892,193.116a27.6,27.6,0,0,0,1.939,6.057l2.97-2.964-1.537-5.709a16.114,16.114,0,0,0-3.372,2.616"
                transform="translate(-953.643 -76.441)" />
            <path id="Path_7662" fill="#2b4a57" stroke="rgba(0,0,0,0)" stroke-width="1"
                d="M1033.876,171.639h0a.141.141,0,0,1-.174-.1l-.331-1.153a.141.141,0,0,1,.272-.078l.331,1.154a.141.141,0,0,1-.1.174"
                transform="translate(-978.674 -67.755)" />
            <path id="Rectangle_1780" fill="#f2dcdc" stroke="rgba(0,0,0,0)" stroke-width="1"
                d="M0 0H1.167V8.768H0z" transform="rotate(-15.992 358.069 -136.902)" />
            <path id="Path_7663" fill="#f2dcdc" stroke="rgba(0,0,0,0)" stroke-width="1"
                d="M1032.7,168.628l-.56.161a3.834,3.834,0,0,0,.74,1.323l.228-.065.227-.065a3.83,3.83,0,0,0-.074-1.514Z"
                transform="translate(-978.151 -67.009)" />
            <path id="Path_7664" fill="#5450ad" stroke="rgba(0,0,0,0)" stroke-width="1"
                d="M993.928,195.282s-5.7,13.163-15.344,12.412l3.3-8.879Z"
                transform="translate(-955.223 -78.488)" />
            <path id="Line_50" fill="none" stroke="#694734" stroke-width=".5" d="M0 0L13.27 0"
                transform="translate(27.228 212.256)" />
            <path id="Line_51" fill="none" stroke="#694734" stroke-width=".5" d="M0 0L13.27 0"
                transform="translate(51.194 212.256)" />
            <path id="Path_7665" fill="#f47561" stroke="rgba(0,0,0,0)" stroke-width="1"
                d="M1010.861,111.154a5.491,5.491,0,0,0-3.914,1.577,5.326,5.326,0,0,0-1.552,4.331l.32,3.54h10.29l.319-3.529a5.377,5.377,0,0,0-1.779-4.551,5.469,5.469,0,0,0-3.685-1.367"
                transform="translate(-966.691 -42.474)" />
            <path id="Path_7666" fill="#9c5f54" stroke="rgba(0,0,0,0)" stroke-width="1"
                d="M1006.192,126.231a1.2,1.2,0,1,1-1.532-1.14,1.377,1.377,0,0,1,1.532,1.14"
                transform="translate(-966.061 -48.425)" />
            <path id="Path_7667" fill="#9c5f54" stroke="rgba(0,0,0,0)" stroke-width="1"
                d="M1021.972,126.231a1.2,1.2,0,1,0,1.531-1.14,1.377,1.377,0,0,0-1.531,1.14"
                transform="translate(-973.763 -48.425)" />
            <path id="Path_7668" fill="#d48273" stroke="rgba(0,0,0,0)" stroke-width="1"
                d="M1008.462,137.612l-.294-2.753h-5.326l-.294,2.753a2.451,2.451,0,0,1-1.765,2.1l-7.506,2.141c3.7,1.809,6.723,2.352,12.228,2.352s8.529-.542,12.229-2.352l-7.507-2.141a2.451,2.451,0,0,1-1.765-2.1"
                transform="translate(-961.513 -52.622)" />
            <path id="Path_7669" fill="#9c5f54" stroke="rgba(0,0,0,0)" stroke-width="1"
                d="M1009.843,135.711a3.608,3.608,0,0,0,3.615,2.633,3.986,3.986,0,0,0,2.121-.6c-.007-.045-.019-.088-.025-.133l-.293-2.753h-5.326Z"
                transform="translate(-968.605 -52.622)" />
            <path id="Line_52" fill="none" stroke="#2b4a57" stroke-width=".5" d="M0 0.845L2.447 0"
                transform="translate(44.853 87.921)" />
            <path id="Path_7670" fill="#d48273" stroke="rgba(0,0,0,0)" stroke-width="1"
                d="M1015.587,119.664a5.5,5.5,0,0,1-1.629-2.844h-5.05a5.5,5.5,0,0,1-1.629,2.844,2.1,2.1,0,0,1-.57,1.937c0,5.563,2.606,7.088,4.724,7.088s4.724-1.525,4.724-7.088a2.1,2.1,0,0,1-.57-1.937"
                transform="translate(-967.263 -44.899)" />
            <path id="Path_7671" fill="none" stroke="#2b4a57" stroke-width=".5"
                d="M1014.658,125.531V127.6l.983-.294" transform="translate(-970.666 -48.629)" />
            <path id="Path_7672" fill="#fff" stroke="rgba(0,0,0,0)" stroke-width="1"
                d="M1015.14,131.264c0,.578-.306,1.045-.683,1.045s-.684-.468-.684-1.045.307-1.045.684-1.045.683.468.683,1.045"
                transform="translate(-970.287 -50.635)" />
            <path id="Path_7673" fill="#2b4a57" stroke="rgba(0,0,0,0)" stroke-width="1"
                d="M1011.572,124.943a.442.442,0,1,1-.442-.442.442.442,0,0,1,.442.442"
                transform="translate(-968.966 -48.187)" />
            <path id="Path_7674" fill="#2b4a57" stroke="rgba(0,0,0,0)" stroke-width="1"
                d="M1018.589,124.943a.442.442,0,1,1-.442-.442.442.442,0,0,1,.442.442"
                transform="translate(-971.97 -48.187)" />
            <path id="Path_7675" fill="none" stroke="#2b4a57" stroke-width=".5"
                d="M1009.5,121.027a1.688,1.688,0,0,1,2.211,0"
                transform="translate(-968.456 -46.522)" />
            <path id="Path_7676" fill="none" stroke="#2b4a57" stroke-width=".5"
                d="M1018.787,121.027a1.688,1.688,0,0,0-2.211,0"
                transform="translate(-971.487 -46.522)" />
            <path id="Path_7677" fill="none" stroke="#fff" stroke-width=".5"
                d="M1011.776,123.9a1.525,1.525,0,1,1-1.509-1.743A1.639,1.639,0,0,1,1011.776,123.9Z"
                transform="translate(-968.14 -47.183)" />
            <path id="Path_7678" fill="none" stroke="#fff" stroke-width=".5"
                d="M1018.921,123.9a1.525,1.525,0,1,1-1.509-1.743A1.638,1.638,0,0,1,1018.921,123.9Z"
                transform="translate(-971.199 -47.183)" />
            <path id="Line_53" fill="none" stroke="#fff" stroke-width=".5" d="M0 0L1.067 0"
                transform="translate(43.636 76.715)" />
            <path id="Line_54" fill="none" stroke="#fff" stroke-width=".5" d="M1.593 0L0 0"
                transform="translate(39.025 76.715)" />
            <path id="Line_55" fill="none" stroke="#fff" stroke-width=".5" d="M1.593 0L0 0"
                transform="translate(47.722 76.715)" />
            <path id="Path_7679" fill="#d48273" stroke="rgba(0,0,0,0)" stroke-width="1"
                d="M979.357,175.176l20.674-11.152,3.86-6.112s5.254-3.646,5.63-3.164-2.2,2.306-2.2,2.306l1.921.737a.652.652,0,0,1,.4.447l.323,1.249a.347.347,0,0,1-.268.427l-1.248.25-2.306,1.609a3.4,3.4,0,0,1-3.316,3.646S992.2,180,988.558,183.808s-8.379,2.982-10.094.9c-2.734-3.324.893-9.53.893-9.53"
                transform="translate(-954.735 -61.117)" />
            <path id="Line_56" fill="none" stroke="#9c5f54" stroke-width=".5" d="M0 1.394L2.379 0"
                transform="translate(50.209 95.936)" />
            <path id="Path_7680" fill="none" stroke="#9c5f54" stroke-width=".5"
                d="M1026.3,162.225l2.332-1.186,2.01.241" transform="translate(-975.651 -63.829)" />
            <path id="Path_7681" fill="none" stroke="#9c5f54" stroke-width=".5"
                d="M1027.146,163.914l2.131-1.287,1.889-.085"
                transform="translate(-976.012 -64.473)" />
            <path id="Line_57" fill="none" stroke="#9c5f54" stroke-width=".5" d="M0 3.98L7.378 0"
                transform="translate(29.936 107.212)" />
            <path id="Path_7682" fill="#fff" stroke="rgba(0,0,0,0)" stroke-width="1"
                d="M953.518,93.588,941.15,95.275c-2.293.312-4.381-1.081-4.324-2.885l.638-20.271c.052-1.655,1.9-2.93,4.026-2.777l11.73.845c1.9.136,3.345,1.37,3.345,2.846V90.772c0,1.388-1.285,2.575-3.048,2.816"
                transform="translate(-930.735 -10.402)" />
            <path id="Path_7683" fill="#fff" stroke="rgba(0,0,0,0)" stroke-width="1"
                d="M981.709,118.8l11.015,9.182-11.935-2.654Z"
                transform="translate(-957.765 -44.413)" />
            <path id="Path_7684" fill="#1b508c" stroke="rgba(0,0,0,0)" stroke-width="1"
                d="M953.272,98.729a4.9,4.9,0,0,1,.684-2.087c.526-1,2.561-2.806.877-3.42-1.07-.456-1.052.737-1.666.965a17.409,17.409,0,0,1-2.14-.035v-.017a3.783,3.783,0,0,1,3.455-3.648,3.272,3.272,0,0,1,3.805,3.437,3.623,3.623,0,0,1-.824,1.859c-.368.508-.7.736-1.052,1.21a4.97,4.97,0,0,0-.859,2.14,1.17,1.17,0,0,0-.07.6v.017c-.719.088-1.438-.017-2.157.035h-.017c-.088-.088-.07-.263-.07-.386Zm.035,4.139h-.053a15.932,15.932,0,0,1-.017-2.034,4.894,4.894,0,0,1,2.192-.035c0,.035-.105,1.719-.105,2.052v.035h-.035Z"
                transform="translate(-938.705 -25.404)" />
        </g>
    </g>
</svg>