<svg xmlns="http://www.w3.org/2000/svg" width="86.606" height="52.11" viewBox="0 0 86.606 52.11">
    <g id="Group_6386" transform="translate(-15.003 -79.174)">
        <g id="Group_6384" transform="translate(47.115 118.091)">
            <g id="Group_6381" transform="translate(7.539 7.352)">
                <path id="Path_6321"
                    d="M162.95,200.275h1.089v.2q0,1.481-1.989,1.482a2.255,2.255,0,0,1-1.766-.513,3.788,3.788,0,0,1-.417-2.175,3.2,3.2,0,0,1,.436-1.984,2.2,2.2,0,0,1,1.7-.508,2.067,2.067,0,0,1,1.625.495,3.219,3.219,0,0,1,.412,1.945v.37h-3.064q-.01.17-.01.222a1.665,1.665,0,0,0,.206.995,1.044,1.044,0,0,0,.822.249,1.368,1.368,0,0,0,.777-.146A.8.8,0,0,0,162.95,200.275Zm.01-1.434,0-.2a1.136,1.136,0,0,0-.187-.783,1.249,1.249,0,0,0-.812-.18,1.036,1.036,0,0,0-.788.217,1.624,1.624,0,0,0-.182.947Z"
                    transform="translate(-159.867 -196.756)" fill="#fff" />
                <path id="Path_6322"
                    d="M184.221,199.979h1.08v.175l-.066.767q-.2,1.048-1.942,1.048a2.148,2.148,0,0,1-1.7-.516,5.267,5.267,0,0,1,0-4.13,2.022,2.022,0,0,1,1.639-.529,2.413,2.413,0,0,1,1.591.384,1.962,1.962,0,0,1,.417,1.458h-1.075a.8.8,0,0,0-.914-.884q-.649,0-.814.28a3.4,3.4,0,0,0-.166,1.376,2.931,2.931,0,0,0,.183,1.331q.182.272.893.272a.96.96,0,0,0,.718-.188A1.46,1.46,0,0,0,184.221,199.979Z"
                    transform="translate(-176.047 -196.773)" fill="#fff" />
                <path id="Path_6323"
                    d="M206.5,197.037V202.1h-1.085l.062-.868-.019-.005a1.37,1.37,0,0,1-1.459.931q-1.539,0-1.539-1.72v-3.4h1.085v3.106a1.5,1.5,0,0,0,.161.849.833.833,0,0,0,.668.2q1.042,0,1.042-1.4v-2.762Z"
                    transform="translate(-192.213 -196.957)" fill="#fff" />
                <path id="Path_6324"
                    d="M224.825,196.786h1.085l-.066.709.024.005a1.282,1.282,0,0,1,1.222-.794q1.194,0,1.193,1.683v.355h-1.023q.019-.206.019-.27,0-.81-.564-.81-.805,0-.805,1.2v2.979h-1.085Z"
                    transform="translate(-209.201 -196.706)" fill="#fff" />
                <path id="Path_6325"
                    d="M244.98,200.275h1.089v.2q0,1.481-1.989,1.482a2.255,2.255,0,0,1-1.766-.513,3.788,3.788,0,0,1-.417-2.175,3.2,3.2,0,0,1,.436-1.984,2.2,2.2,0,0,1,1.7-.508,2.066,2.066,0,0,1,1.624.495,3.218,3.218,0,0,1,.412,1.945v.37h-3.064q-.009.17-.009.222a1.665,1.665,0,0,0,.206.995,1.044,1.044,0,0,0,.822.249,1.369,1.369,0,0,0,.777-.146A.8.8,0,0,0,244.98,200.275Zm.009-1.434,0-.2a1.136,1.136,0,0,0-.187-.783,1.249,1.249,0,0,0-.812-.18,1.036,1.036,0,0,0-.788.217,1.622,1.622,0,0,0-.182.947Z"
                    transform="translate(-222.166 -196.756)" fill="#fff" />
            </g>
            <g id="Group_6382" transform="translate(32.506 5.147)">
                <path id="Path_6326"
                    d="M270.933,187.54l-1.179,7.075h-2.109l-1.226-3.882q-.091-.29-.268-1.016l-.127-.508-.122-.508h-.048l-.058.467-.062.461-.145.928-.676,4.059h-1.244l1.179-7.075h2.109l1.108,3.587q.146.477.331,1.156l.154.575.153.58h.043l.062-.456.062-.456.142-.912.679-4.074Z"
                    transform="translate(-263.667 -187.54)" fill="#ec4117" />
                <path id="Path_6327"
                    d="M297.792,196.116q1.331,0,1.667.459a2.876,2.876,0,0,1,.09,1.936,4.395,4.395,0,0,1-.764,2.162,2.436,2.436,0,0,1-1.786.513q-1.408,0-1.744-.477a3.281,3.281,0,0,1-.065-2.1,3.844,3.844,0,0,1,.746-2.027A2.727,2.727,0,0,1,297.792,196.116Zm-.166.938a1.2,1.2,0,0,0-.919.267,2.891,2.891,0,0,0-.395,1.247,3.172,3.172,0,0,0-.056,1.4q.131.28.842.28a1.12,1.12,0,0,0,.916-.3,3.756,3.756,0,0,0,.417-1.42,2.353,2.353,0,0,0,.015-1.213Q298.3,197.054,297.626,197.054Z"
                    transform="translate(-287.517 -194.053)" fill="#ec4117" />
                <path id="Path_6328"
                    d="M324.807,196.353l-1.854,4.955h-1.624l-.091-2.218q-.024-.575-.032-.876l-.009-.435-.009-.435h-.034l-.154.435-.155.441q-.1.29-.318.871l-.831,2.218h-1.648l-.2-4.955h1.11l.059,2.3q.01.43.01.923v.461l0,.461h.019l.173-.461.168-.461q.13-.347.35-.917l.883-2.3h1.4l.116,2.3q.032.648.044.917l.014.461.014.461h.024l.159-.461.154-.461q.161-.477.322-.923l.829-2.3Z"
                    transform="translate(-304.818 -194.233)" fill="#ec4117" />
            </g>
            <g id="Group_6383" transform="translate(0 0)">
                <path id="Path_6329"
                    d="M131.879,174.509c.578.044.841-.223.892-.579A.815.815,0,0,0,132.1,173c-1.85-.246-1.817-1.171-1.817-1.171v-2.779a1.481,1.481,0,0,1,1.557-1.368c1.4,0,1.358.919,1.358.919v1.817l1.637.879v-2.975s.166-2.06-3.155-2.177a2.931,2.931,0,0,0-3.155,2.556v3.654S128.7,174.269,131.879,174.509Z"
                    transform="translate(-128.524 -166.14)" fill="#004b9c" />
                <path id="Path_6330"
                    d="M132.366,186.179c-.578-.044-.841.222-.892.579a.815.815,0,0,0,.672.932c1.85.246,1.817,1.171,1.817,1.171v2.779a1.481,1.481,0,0,1-1.558,1.368c-1.4,0-1.358-.918-1.358-.918v-1.817l-1.637-.879v2.975s-.166,2.06,3.155,2.177a2.931,2.931,0,0,0,3.155-2.556v-3.654S135.541,186.419,132.366,186.179Z"
                    transform="translate(-129.196 -181.355)" fill="#004b9c" />
            </g>
        </g>
        <path id="Path_6333"
            d="M107.849,269.726a77.317,77.317,0,0,1,9.835,17.236c-4.549,4.433-11.9,9.269-17.55,3.822l1.394-1.591c4.1,4.008,8.019.452,11.756-3.1a66.647,66.647,0,0,0-8.326-14.135Z"
            transform="translate(-72.338 -161.92)" fill="#fff" fill-rule="evenodd" />
        <path id="Path_6334"
            d="M127,100.5c-.7,1.2-1.112,3.692,2.232,3.692l7.641.017,4.928,9.658,5.367-15.96,3.511,6.305h12.2l-9.7-3.042L147.79,91.7l-6.358,13.478-1.748-4.652-8.66-.019a19.319,19.319,0,0,0,1.522-7.366,15.132,15.132,0,0,0-3.111-9.519,11.954,11.954,0,0,0-7.249-4.253,12.8,12.8,0,0,0-12.358,4.862,12.8,12.8,0,0,0-12.358-4.862,11.954,11.954,0,0,0-7.249,4.253,15.132,15.132,0,0,0-3.111,9.519c-.057,5.565,2.251,10.745,5.663,15.386l2.99-2.179q-.524-.724-1.008-1.465c-2.243-3.442-4-7.527-3.958-11.7.049-4.751,2.274-9.289,7.314-10.179a9.1,9.1,0,0,1,8.828,3.52c2.237,2.9,3.741,2.634,5.784-.007A9.1,9.1,0,0,1,121.544,83c5.04.89,7.265,5.428,7.314,10.179A16.888,16.888,0,0,1,127,100.5"
            transform="translate(-61.27 0)" fill="#dd332c" fill-rule="evenodd" />
        <path id="Path_6335"
            d="M20.692,323.755a.766.766,0,0,1-.08.876l-.158.185a.765.765,0,0,1-1.076.086l-1.185-1.01a.765.765,0,0,1-.086-1.076l.158-.185a.766.766,0,0,1,.946-.175,4.088,4.088,0,0,1,1.136-.9c1.465-.737,2.853.047,3.917,1.074.667.644,1.322,1.3,1.973,1.963q1.157,1.176,2.294,2.372c.451.474.905.944,1.341,1.432a3.22,3.22,0,0,1,.8,2.073,5,5,0,0,1-1.3,3.187l-.627.766a4.988,4.988,0,0,1-2.868,1.9,3.221,3.221,0,0,1-2.19-.375c-.564-.33-1.115-.683-1.669-1.031q-1.4-.879-2.778-1.78c-.777-.507-1.55-1.019-2.314-1.546-1.214-.838-2.259-2.051-1.827-3.628a4.085,4.085,0,0,1,.655-1.291.765.765,0,0,1-.015-.962l.15-.191a.765.765,0,0,1,1.072-.128l1.224.962a.765.765,0,0,1,.128,1.072l-.15.191a.766.766,0,0,1-.843.252c-.046.067-.091.135-.133.2a1.675,1.675,0,0,0-.189.411c-.168.612.616,1.189,1.046,1.486.75.517,1.509,1.02,2.272,1.518q1.368.893,2.751,1.763c.535.337,1.068.679,1.614,1a1.254,1.254,0,0,0,.848.136,3.193,3.193,0,0,0,1.69-1.208l.627-.766a3.2,3.2,0,0,0,.851-1.9,1.255,1.255,0,0,0-.3-.8c-.421-.472-.861-.927-1.3-1.385q-1.126-1.184-2.271-2.349c-.638-.649-1.282-1.294-1.937-1.927-.376-.363-1.1-1.017-1.663-.732a1.672,1.672,0,0,0-.366.266c-.06.055-.118.112-.174.171"
            transform="translate(0 -205.718)" fill="#fff" fill-rule="evenodd" />
        <g id="Group_6385" transform="translate(47.115 109.659)">
            <path id="Path_6331"
                d="M256.193,148.242h-.654v3.594h.654Zm-1.148,2.375a1.275,1.275,0,1,0-1.275,1.317,1.3,1.3,0,0,0,1.275-1.317m-2.808-1.226c-.665-.091-.809.338-.809.338v-.348l-.665.01v2.445h.676v-1.3s.055-.451.41-.5h.388Zm-1.984-.013h-.477v-.708H249.2l-.011.428a.355.355,0,0,1-.487.28v.61h.41v1.205a.653.653,0,0,0,.31.552c.233.184.831.09.831.09v-.563h-.244a.219.219,0,0,1-.233-.225v-1.053h.477Zm-1.937.715s-.089-.746-.783-.748-.768.343-.768.343V149.4h-.65v2.433h.658V150.3a.485.485,0,0,1,.466-.36.422.422,0,0,1,.436.33v1.562h.643Zm-2.709.524a1.275,1.275,0,1,0-1.275,1.317,1.3,1.3,0,0,0,1.275-1.317m-4.545-.073a.619.619,0,0,1,.54-.6c.535,0,.6.394.6.394l.606-.184a1.148,1.148,0,0,0-1.2-.853,1.321,1.321,0,0,0-1.2,1.424,1.261,1.261,0,0,0,1.241,1.216,1.179,1.179,0,0,0,1.167-.825l-.576-.225a.51.51,0,0,1-.631.383.666.666,0,0,1-.54-.728m16.405,2.914H240.223v-6.219h17.244Zm-3.689-3.515a.7.7,0,1,0,.618.7.661.661,0,0,0-.618-.7m-8.82.7a.622.622,0,1,1-.618-.7.661.661,0,0,1,.618.7"
                transform="translate(-223.666 -147.074)" fill="#005492" />
            <path id="Path_6332"
                d="M178.721,148.791h-.7l-.591,1.367-.613-1.367h-.754l1.02,2.125-.576,1.3h.731Zm-2.8,1.712-.6-.146a.591.591,0,0,1-.689.369.553.553,0,0,1-.442-.55h1.726a2.44,2.44,0,0,0-.02-.541,1.159,1.159,0,0,0-1.164-.947,1.285,1.285,0,0,0-1.208,1.317,1.228,1.228,0,0,0,1.141,1.317,1.185,1.185,0,0,0,1.257-.819m-2.871-1.022s-.089-.746-.783-.748-.768.343-.768.343v-.285h-.65v2.433h.658v-1.532a.485.485,0,0,1,.466-.36.422.422,0,0,1,.436.33v1.562h.643Zm-2.689.524a1.275,1.275,0,1,0-1.274,1.317,1.3,1.3,0,0,0,1.274-1.317m-3-.415s-.044-.9-.853-.9a.713.713,0,0,0-.776.484.73.73,0,0,0-.687-.485.9.9,0,0,0-.743.4v-.3l-.643.011v2.433h.676V149.76a.4.4,0,0,1,.4-.417.4.4,0,0,1,.432.338v1.543h.676v-1.5s.078-.405.443-.405a.415.415,0,0,1,.421.338v1.566h.654Zm11.57-2.963v6.219a5.219,5.219,0,0,1-2.682.833c-2.727.113-4.677-.766-8.511-.879s-5.364.653-5.364.653v-6.309a18.672,18.672,0,0,1,5.12-.676c2.5.09,6.937.977,8.134.991a6.948,6.948,0,0,0,3.3-.834m-4.209,2.61a.557.557,0,0,0-.534.488h1.079a.541.541,0,0,0-.545-.488m-5.009.791a.622.622,0,1,1-.618-.7.661.661,0,0,1,.618.7"
                transform="translate(-162.371 -146.463)" fill="#539733" />
        </g>
    </g>
</svg>
