<svg xmlns="http://www.w3.org/2000/svg" width="50" height="50" viewBox="0 0 50 50">
  <g id="Group_9881" data-name="Group 9881" transform="translate(-170 -830)">
    <rect id="Rectangle_140479" data-name="Rectangle 140479" width="50" height="50" rx="3" transform="translate(170 830)" fill="none"/>
    <g id="Group_9880" data-name="Group 9880" transform="translate(1 1)">
      <g id="Group_9869" data-name="Group 9869" transform="translate(1053.388 657.105) rotate(90)" opacity="0.5">
        <g id="Group_9868" data-name="Group 9868" transform="translate(182.282 852.017)">
          <g id="Group_9866" data-name="Group 9866" transform="translate(25.226 0) rotate(90)">
            <rect id="Rectangle_140480" data-name="Rectangle 140480" width="19.742" height="25.226" rx="3" transform="translate(0 0)" fill="#23232b" stroke="#79798e" stroke-linecap="round" stroke-linejoin="round" stroke-width="1.5"/>
            <path id="Path_9555" data-name="Path 9555" d="M3.361,4.265H1.471l-.983-.68L0,2.4V.187a3.249,3.249,0,0,1,3.2.6,4.05,4.05,0,0,1,.91,3.478Z" transform="translate(19.372 4.501) rotate(180)" fill="#79798e"/>
            <path id="Path_9556" data-name="Path 9556" d="M3.361,0H1.471L.488.68,0,1.865V4.079a3.249,3.249,0,0,0,3.2-.6A4.05,4.05,0,0,0,4.113,0Z" transform="translate(0.394 0.236)" fill="#79798e"/>
            <path id="Path_9557" data-name="Path 9557" d="M3.361,4.265H1.471l-.983-.68L0,2.4V.187a3.249,3.249,0,0,1,3.2.6,4.05,4.05,0,0,1,.91,3.478Z" transform="translate(0.394 20.961)" fill="#79798e"/>
            <path id="Path_9558" data-name="Path 9558" d="M3.361,0H1.471L.488.68,0,1.865V4.079a3.249,3.249,0,0,0,3.2-.6A4.05,4.05,0,0,0,4.113,0Z" transform="translate(19.372 25.226) rotate(180)" fill="#79798e"/>
          </g>
        </g>
      </g>
      <g id="Group_9873" data-name="Group 9873" transform="translate(205.508 842.212) rotate(90)">
        <g id="Group_9872" data-name="Group 9872" transform="translate(0 0)">
          <g id="Group_9870" data-name="Group 9870" transform="translate(25.576 0) rotate(90)">
            <rect id="Rectangle_140481" data-name="Rectangle 140481" width="20.015" height="25.575" rx="3" transform="translate(0 0)" fill="#23232b" stroke="#79798e" stroke-linecap="round" stroke-linejoin="round" stroke-width="1.5"/>
            <path id="Path_9563" data-name="Path 9563" d="M3.408,4.324H1.491l-1-.689L0,2.433V.189A3.294,3.294,0,0,1,3.248.8,4.107,4.107,0,0,1,4.17,4.324Z" transform="translate(19.64 4.563) rotate(180)" fill="#79798e"/>
            <path id="Path_9564" data-name="Path 9564" d="M3.408,0H1.491L.5.689,0,1.891V4.135a3.294,3.294,0,0,0,3.248-.609A4.106,4.106,0,0,0,4.17,0Z" transform="translate(0.399 0.239)" fill="#79798e"/>
            <path id="Path_9565" data-name="Path 9565" d="M3.408,4.324H1.491l-1-.689L0,2.433V.189A3.294,3.294,0,0,1,3.248.8,4.107,4.107,0,0,1,4.17,4.324Z" transform="translate(0.399 21.251)" fill="#79798e"/>
            <path id="Path_9566" data-name="Path 9566" d="M3.408,0H1.491L.5.689,0,1.891V4.135a3.294,3.294,0,0,0,3.248-.609A4.106,4.106,0,0,0,4.17,0Z" transform="translate(19.64 25.576) rotate(180)" fill="#79798e"/>
          </g>
        </g>
      </g>
      <g id="Group_9879" data-name="Group 9879" transform="translate(187.876 847.143)">
        <path id="Union_126" data-name="Union 126" d="M.624,13.358h0Zm1-1.6h0Zm10.636-1.707h0Zm-.927,0h0ZM12.261,10.048Zm0,0v0Zm-4.574,0h0Zm-.927,0h0ZM7.687,10.048Zm0,0v0Zm-4.573,0h0Zm-.927,0h0ZM3.114,10.048Zm0,0v0Zm9.147-4.641h0ZM12.261,5.406Zm-.927,0h0Zm-3.647,0h0ZM7.687,5.406Zm-.927,0h0Zm-3.646,0h0ZM3.114,5.406Zm-.927,0h0ZM7.728,3.7H1.277V2.984s3.842-1.878,5-2.5a2.324,2.324,0,0,1,2.84,0c1.19.673,3.181,1.479,5.069,2.5V3.7Z" transform="translate(0 0)" fill="none" stroke="#79798e" stroke-linecap="round" stroke-linejoin="round" stroke-width="1"/>
        <g id="Group_9878" data-name="Group 9878" transform="translate(11.695 3.675) rotate(90)">
          <path id="Polygon_16" data-name="Polygon 16" d="M3.979,0l.732.559L5.606.348l.443.81.9.173.077.921.755.528-.3.873.476.791-.629.674.115.917L6.6,6.392l-.266.885-.919-.019-.6.7-.832-.393-.832.393-.6-.7-.919.019-.266-.885L.514,6.034l.115-.917L0,4.443l.476-.791-.3-.873.755-.528.077-.921.9-.173.443-.81.895.211Z" transform="translate(0 7.957) rotate(-90)" fill="#59d059"/>
          <g id="ecommerce-rupee" transform="translate(1.891 5.487) rotate(-90)">
            <path id="Path_9571" data-name="Path 9571" d="M2.339,4.825.146,2.778V2.632H1.17s1.608.146,1.608-1.316C2.778,0,1.17,0,1.17,0H0" fill="none" stroke="#014a9f" stroke-width="0.7"/>
            <path id="Path_9572" data-name="Path 9572" d="M0,0H3.509" fill="none" stroke="#014a9f" stroke-width="0.7"/>
            <path id="Path_9573" data-name="Path 9573" d="M0,0H3.509" transform="translate(0 1.326)" fill="none" stroke="#014a9f" stroke-width="0.7"/>
          </g>
        </g>
      </g>
    </g>
  </g>
</svg>
