<svg xmlns="http://www.w3.org/2000/svg" width="50" height="50" viewBox="0 0 50 50">
  <g id="Group_9948" data-name="Group 9948" transform="translate(-290 -679)">
    <rect id="Rectangle_140547" data-name="Rectangle 140547" width="50" height="50" rx="3" transform="translate(290 679)" fill="none"/>
    <g id="Group_9947" data-name="Group 9947" transform="translate(1.387 0.467)">
      <g id="Icon_awesome-chart-pie" data-name="Icon awesome-chart-pie" transform="translate(298.613 690.419)" fill="none">
        <path d="M11.784,14.862V2.781a.843.843,0,0,0-.939-.845A12.616,12.616,0,0,0,.007,14.862,12.781,12.781,0,0,0,12.785,27.047,12.528,12.528,0,0,0,19.9,24.73a.836.836,0,0,0,.083-1.267Z" stroke="none"/>
        <path d="M 12.63201904296875 25.54755210876465 C 12.67668914794922 25.54755210876465 12.72139930725098 25.54727363586426 12.76621913909912 25.54671287536621 C 14.75797367095947 25.52181243896484 16.67889976501465 24.97001838684082 18.36837577819824 23.94354438781738 L 10.28386974334717 15.46274280548096 L 10.28386974334717 3.557950258255005 C 7.894432544708252 4.069742679595947 5.733466148376465 5.358855247497559 4.135079383850098 7.240872859954834 C 2.345689535140991 9.347783088684082 1.412159562110901 12.03637313842773 1.506459474563599 14.81132316589355 C 1.603129506111145 17.65254211425781 2.823039531707764 20.3418025970459 4.941469669342041 22.38371276855469 C 7.058169364929199 24.42394256591797 9.789389610290527 25.54755210876465 12.63201904296875 25.54755210876465 M 12.63201427459717 27.04755401611328 C 5.953262329101562 27.04754829406738 0.2349536269903183 21.55234527587891 0.007329503539949656 14.86233329772949 C -0.2157305032014847 8.298583030700684 4.57621955871582 2.821682929992676 10.84535980224609 1.935782909393311 C 11.34249687194824 1.865291833877563 11.78386974334717 2.278263330459595 11.78386974334717 2.78065299987793 L 11.78386974334717 14.86233329772949 L 19.9831485748291 23.46354293823242 C 20.34350967407227 23.82390213012695 20.31614875793457 24.43571281433105 19.90056037902832 24.73031234741211 C 17.88624954223633 26.15911293029785 15.43634986877441 27.01345252990723 12.78496932983398 27.04659271240234 C 12.73392677307129 27.04723358154297 12.68294715881348 27.04755401611328 12.63201427459717 27.04755401611328 Z" stroke="none" fill="#79798e"/>
      </g>
      <path id="Icon_awesome-chart-pie-2" data-name="Icon awesome-chart-pie" d="M27.889,15.151H15.282l8.4,9.067a.808.808,0,0,0,1.179.039,14.13,14.13,0,0,0,3.885-8.081.9.9,0,0,0-.853-1.024Z" transform="translate(296.585 689.756)" fill="#3875be"/>
      <path id="Icon_awesome-chart-pie-3" data-name="Icon awesome-chart-pie" d="M28.942,11.681C28.471,5.429,23,.433,16.161,0A.888.888,0,0,0,15.2.85V12.56H28.015a.88.88,0,0,0,.927-.879Z" transform="translate(296.668 691.347)" fill="#59d059"/>
    </g>
  </g>
</svg>
