<svg xmlns="http://www.w3.org/2000/svg" width="50" height="50" viewBox="0 0 50 50">
  <g id="Group_9899" data-name="Group 9899" transform="translate(-50 -951)">
    <rect id="Rectangle_140495" data-name="Rectangle 140495" width="50" height="50" rx="3" transform="translate(50 951)" fill="none"/>
    <g id="Group_9898" data-name="Group 9898" transform="translate(-4.056 61.629)">
      <path id="Path_9594" data-name="Path 9594" d="M66.351,4747.865V4729.19l12.258-4.285" transform="translate(0 -3820.351)" fill="none" stroke="#79798e" stroke-width="1.2"/>
      <g id="Group_9897" data-name="Group 9897" transform="translate(0 -0.178)">
        <path id="Path_9595" data-name="Path 9595" d="M69.282,4734.155l6.6-.729" transform="translate(-0.549 -3807.803)" fill="none" stroke="#79798e" stroke-width="1.2"/>
        <path id="Path_9596" data-name="Path 9596" d="M69.282,4734l6.535-1.4" transform="translate(-0.549 -3811.378)" fill="none" stroke="#79798e" stroke-width="1.2"/>
        <path id="Path_9597" data-name="Path 9597" d="M69.282,4733.972l6.562-1.524" transform="translate(-0.549 -3815.743)" fill="none" stroke="#79798e" stroke-width="1.2"/>
        <path id="Path_9598" data-name="Path 9598" d="M69.282,4733.835l6.52-2.114" transform="translate(-0.549 -3820.131)" fill="none" stroke="#79798e" stroke-width="1.2"/>
      </g>
      <path id="Path_9599" data-name="Path 9599" d="M89.3,4719.008l1.173-1.317,3.9,3.637v9.263a21.978,21.978,0,0,0-2.291-1.157,6.86,6.86,0,0,0-2.779-.531Z" transform="translate(-4.299 -3819)" fill="#79798e"/>
      <path id="Path_9600" data-name="Path 9600" d="M90.588,4719.338l3.39,2.02v4.13a11.477,11.477,0,0,0-2.4,1.465,20.291,20.291,0,0,0-2.268,2.472v-8.8Z" transform="translate(-12 -3815.245)" fill="#79798e"/>
      <path id="Path_9601" data-name="Path 9601" d="M74.985,4722.994l12.945-4.7" transform="translate(-1.617 -3819.113)" fill="none" stroke="#79798e" stroke-width="1.2"/>
      <path id="Path_9602" data-name="Path 9602" d="M83.619,4746.323l-2.937,6.145,2.7-1.006.833,3.089,3.138-6.61Z" transform="translate(-2.684 -3824.363)" fill="#79798e"/>
      <path id="Path_9603" data-name="Path 9603" d="M84.412,4746.323l2.937,6.145-2.7-1.006-.833,3.089-3.138-6.61Z" transform="translate(4.551 -3824.363)" fill="#79798e"/>
      <path id="Polygon_19" data-name="Polygon 19" d="M6.238,0,7.386.876,8.79.545l.694,1.27,1.416.272.121,1.444,1.183.827L11.73,5.727l.747,1.24L11.49,8.023l.181,1.438-1.329.562L9.925,11.41l-1.441-.03-.942,1.1-1.3-.617-1.3.617-.942-1.1-1.441.03-.417-1.387L.806,9.461.987,8.023,0,6.967l.747-1.24L.273,4.358l1.183-.827.121-1.444,1.416-.272L3.687.545l1.4.331Z" transform="translate(78.608 912.555)" fill="#59d059"/>
      <g id="ecommerce-rupee" transform="translate(82.482 915.519)">
        <path id="Path_9604" data-name="Path 9604" d="M23.668,24.565l-3.439-3.209v-.229h1.6s2.522.229,2.522-2.063C24.356,17,21.834,17,21.834,17H20" transform="translate(-20 -17)" fill="none" stroke="#014a9f" stroke-width="1.2"/>
        <path id="Path_9605" data-name="Path 9605" d="M20,17h5.5" transform="translate(-20 -17)" fill="none" stroke="#014a9f" stroke-width="1.2"/>
        <path id="Path_9606" data-name="Path 9606" d="M20,23h5.5" transform="translate(-20 -20.921)" fill="none" stroke="#014a9f" stroke-width="1.2"/>
      </g>
    </g>
  </g>
</svg>
