<svg xmlns="http://www.w3.org/2000/svg" width="200" height="200" viewBox="0 0 200 200">
  <g id="Group_9954" data-name="Group 9954" transform="translate(-95 -126)">
    <g id="Group_9652" data-name="Group 9652" transform="translate(4.396)">
      <g id="Group_9646" data-name="Group 9646" transform="translate(0 10)">
        <g id="Group_9645" data-name="Group 9645">
          <g id="Group_9642" data-name="Group 9642">
            <g id="Group_9656" data-name="Group 9656">
              <path id="Polygon_13" data-name="Polygon 13" d="M17.765,3.025a2,2,0,0,1,3.47,0L37.282,31a2,2,0,0,1-1.735,3H3.453a2,2,0,0,1-1.735-3Z" transform="translate(170.604 190)" fill="#f04839"/>
              <g id="Group_9655" data-name="Group 9655" transform="translate(0 -1.424)">
                <path id="Path_9547" data-name="Path 9547" d="M190.021,205.366v7.17" transform="translate(0 -2.256)" fill="none" stroke="#fff" stroke-linecap="round" stroke-linejoin="round" stroke-width="1.5"/>
                <path id="Path_9548" data-name="Path 9548" d="M190.021,205.366v1.372" transform="translate(0 8)" fill="none" stroke="#fff" stroke-linecap="round" stroke-linejoin="round" stroke-width="1.5"/>
              </g>
            </g>
            <g id="Group_9657" data-name="Group 9657" transform="translate(-23.181 1.175)">
              <g id="Group_9663" data-name="Group 9663" transform="translate(-1)">
                <path id="Polygon_13-2" data-name="Polygon 13" d="M9.269,2.99a2,2,0,0,1,3.462,0L20.262,16a2,2,0,0,1-1.731,3H3.469a2,2,0,0,1-1.731-3Z" transform="translate(171.786 190.825)" fill="#4e4e4e" opacity="0.4"/>
                <g id="Group_9655-2" data-name="Group 9655" transform="translate(182.701 198.99)" opacity="0.4">
                  <path id="Path_9547-2" data-name="Path 9547" d="M190.021,205.366v4.484" transform="translate(-190.021 -205.366)" fill="none" stroke="#fff" stroke-linecap="round" stroke-linejoin="round" stroke-width="1"/>
                  <path id="Path_9548-2" data-name="Path 9548" d="M190.021,205.366v.858" transform="translate(-190.021 -198.327)" fill="none" stroke="#fff" stroke-linecap="round" stroke-linejoin="round" stroke-width="1"/>
                </g>
              </g>
              <g id="Group_9662" data-name="Group 9662" transform="translate(2.074 3.842)">
                <path id="Path_9549" data-name="Path 9549" d="M7.1,2.733a1.54,1.54,0,0,1,2.661,0L15.162,12a1.54,1.54,0,0,1-1.33,2.316H3.022A1.54,1.54,0,0,1,1.691,12Z" transform="translate(232.786 189.825)" fill="#4e4e4e" opacity="0.4"/>
                <g id="Group_9658" data-name="Group 9658" transform="translate(240.993 196.338)" opacity="0.4">
                  <path id="Path_9547-3" data-name="Path 9547" d="M190.021,205.366v2.946" transform="translate(-190.021 -205.366)" fill="none" stroke="#fff" stroke-linecap="round" stroke-linejoin="round" stroke-width="1"/>
                  <path id="Path_9548-3" data-name="Path 9548" d="M190.021,205.366v.564" transform="translate(-190.021 -200.741)" fill="none" stroke="#fff" stroke-linecap="round" stroke-linejoin="round" stroke-width="1"/>
                </g>
              </g>
            </g>
            <circle id="Ellipse_480" data-name="Ellipse 480" cx="12.5" cy="12.5" r="12.5" transform="translate(188 215)" fill="#1a1a22"/>
            <g id="Icon_feather-zoom-in" data-name="Icon feather-zoom-in" transform="translate(191.424 218.517)">
              <path id="Path_9524" data-name="Path 9524" d="M23.458,13.979A9.479,9.479,0,1,1,13.979,4.5a9.479,9.479,0,0,1,9.479,9.479Z" transform="translate(-4.5 -4.5)" fill="none" stroke="#79798e" stroke-linecap="round" stroke-linejoin="round" stroke-width="1.5"/>
              <path id="Path_9525" data-name="Path 9525" d="M31.3,31.3l-6.33-6.328" transform="translate(-8.801 -8.801)" fill="none" stroke="#79798e" stroke-linecap="round" stroke-linejoin="round" stroke-width="1.5"/>
              <g id="Group_9644" data-name="Group 9644" transform="translate(9.479 -2.829) rotate(45)">
                <path id="Path_9526" data-name="Path 9526" d="M0,0V4.915" transform="translate(10.441 6.966) rotate(45)" fill="none" stroke="#79798e" stroke-linecap="round" stroke-linejoin="round" stroke-width="1.5"/>
                <path id="Path_9527" data-name="Path 9527" d="M0,0H4.915" transform="translate(6.965 6.966) rotate(45)" fill="none" stroke="#79798e" stroke-linecap="round" stroke-linejoin="round" stroke-width="1.5"/>
              </g>
              <path id="Path_9546" data-name="Path 9546" d="M31.3,31.3,28.931,28.93" transform="translate(-8.802 -8.801)" fill="none" stroke="#79798e" stroke-linecap="round" stroke-linejoin="round" stroke-width="4"/>
            </g>
          </g>
        </g>
      </g>
    </g>
    <g id="Group_9651" data-name="Group 9651" transform="translate(2)">
      <g id="Ellipse_481" data-name="Ellipse 481" transform="translate(126 159)" fill="none" stroke="#2c2c37" stroke-width="1">
        <circle cx="67" cy="67" r="67" stroke="none"/>
        <circle cx="67" cy="67" r="66.5" fill="none"/>
      </g>
      <g id="Ellipse_482" data-name="Ellipse 482" transform="translate(112 145)" fill="none" stroke="#2c2c37" stroke-width="1" opacity="0.5">
        <circle cx="81" cy="81" r="81" stroke="none"/>
        <circle cx="81" cy="81" r="80.5" fill="none"/>
      </g>
      <g id="Ellipse_483" data-name="Ellipse 483" transform="translate(93 126)" fill="none" stroke="#2c2c37" stroke-width="1" opacity="0.3">
        <circle cx="100" cy="100" r="100" stroke="none"/>
        <circle cx="100" cy="100" r="99.5" fill="none"/>
      </g>
      <g id="Ellipse_484" data-name="Ellipse 484" transform="translate(143 176)" fill="none" stroke="#2c2c37" stroke-width="1" opacity="0.3">
        <circle cx="50" cy="50" r="50" stroke="none"/>
        <circle cx="50" cy="50" r="49.5" fill="none"/>
      </g>
    </g>
    <g id="Group_9653" data-name="Group 9653" transform="translate(221.298 163.002) rotate(45)">
      <path id="Path_9526-2" data-name="Path 9526" d="M0,0V4.915" transform="translate(10.441 6.966) rotate(45)" fill="none" stroke="#40404d" stroke-linecap="round" stroke-linejoin="round" stroke-width="1.5"/>
      <path id="Path_9527-2" data-name="Path 9527" d="M0,0H4.915" transform="translate(6.965 6.966) rotate(45)" fill="none" stroke="#40404d" stroke-linecap="round" stroke-linejoin="round" stroke-width="1.5"/>
    </g>
    <g id="Polygon_12" data-name="Polygon 12" transform="translate(167 252)" fill="none">
      <path d="M2.106,1.789a1,1,0,0,1,1.789,0L5.276,4.553A1,1,0,0,1,4.382,6H1.618A1,1,0,0,1,.724,4.553Z" stroke="none"/>
      <path d="M 3 2.236062526702881 L 1.618319511413574 5.000002861022949 L 4.381840229034424 4.999752998352051 L 3.000010013580322 2.236072540283203 C 3.000008106231689 2.236068248748779 3.000008821487427 2.236063003540039 3 2.236062526702881 M 3 1.23606538772583 C 3.355082511901855 1.23606538772583 3.710165023803711 1.420327663421631 3.894429922103882 1.788852691650391 L 5.276390075683594 4.552783012390137 C 5.608839988708496 5.217682838439941 5.125349998474121 6.000002861022949 4.381969928741455 6.000002861022949 L 1.618030071258545 6.000002861022949 C 0.8746500015258789 6.000002861022949 0.3911600112915039 5.217682838439941 0.7236099243164062 4.552783012390137 L 2.105570077896118 1.788852691650391 C 2.289834976196289 1.420327663421631 2.644917488098145 1.23606538772583 3 1.23606538772583 Z" stroke="none" fill="#40404d"/>
    </g>
    <circle id="Ellipse_485" data-name="Ellipse 485" cx="1.5" cy="1.5" r="1.5" transform="translate(134 158)" fill="#40404d" opacity="0.5"/>
    <circle id="Ellipse_486" data-name="Ellipse 486" cx="1" cy="1" r="1" transform="translate(178 192)" fill="#40404d"/>
  </g>
</svg>
