<svg xmlns="http://www.w3.org/2000/svg" width="42.231" height="26" viewBox="0 0 42.231 26">
    <g id="noun-family-1309534" transform="translate(-97.996 -124.845)">
        <path id="Path_6336"
            d="M110.107,270.4l.361-1.427H99.976a.463.463,0,0,1-.343-.19,1.032,1.032,0,0,1-.188-.85c.989-5.016,4.954-8.656,9.429-8.656a8.536,8.536,0,0,1,3.815.915l.359-1.42a9.949,9.949,0,0,0-4.174-.922c-5.295,0-9.723,4.2-10.829,9.807a2.192,2.192,0,0,0,1.931,2.743Z"
            transform="translate(0 -121.858)" fill="#666" />
        <path id="Path_6337"
            d="M171.99,129.631v.528a4.786,4.786,0,1,0,9.573,0v-.528a4.786,4.786,0,1,0-9.573,0Zm8.146.528a3.359,3.359,0,1,1-6.719,0v-.528a3.359,3.359,0,1,1,6.719,0Z"
            transform="translate(-67.794 0)" fill="#666" />
        <path id="Path_6338"
            d="M426.143,270.266a7.974,7.974,0,0,1,4.265-1.26c4.111,0,7.68,3.207,8.679,7.8a1.076,1.076,0,0,1-.181.891.439.439,0,0,1-.34.191h-10.5l.361,1.427h10.135a2.205,2.205,0,0,0,1.915-2.812c-1.114-5.122-5.2-8.922-10.073-8.922a9.367,9.367,0,0,0-4.633,1.236Z"
            transform="translate(-300.315 -130.774)" fill="#666" />
        <path id="Path_6339"
            d="M422.5,141.448v.528a4.787,4.787,0,0,0,9.574,0v-.528a4.787,4.787,0,0,0-9.574,0Zm8.146.528a3.36,3.36,0,1,1-6.72,0v-.528a3.36,3.36,0,1,1,6.72,0Z"
            transform="translate(-297.314 -10.826)" fill="#666" />
        <path id="Path_6340"
            d="M261.884,341.7a1.067,1.067,0,0,0,.955,1.277h12.823a1.067,1.067,0,0,0,.955-1.277c-.544-4.05-3.635-7.153-7.367-7.153s-6.824,3.1-7.367,7.153Zm13.266-.15h-11.8c.574-3.2,3.058-5.575,5.9-5.575s5.326,2.373,5.9,5.575Z"
            transform="translate(-150.145 -192.128)" fill="#666" />
        <path id="Path_6341"
            d="M299.05,223.4a4.263,4.263,0,1,0,8.526,0v-.46a4.262,4.262,0,0,0-8.525,0v.46Zm1.427-.46a2.835,2.835,0,1,1,5.671,0v.46a2.835,2.835,0,1,1-5.671,0Z"
            transform="translate(-184.208 -85.972)" fill="#666" />
    </g>
</svg>
