<svg xmlns="http://www.w3.org/2000/svg" viewBox="12 6.81 19 21.19" height="40" width="40">
    <g id="Group_6398" transform="translate(-98.5 -1020.5)">
        <g id="Group_6369" transform="translate(1 77)">
            <g transform="matrix(1, 0, 0, 1, 97.5, 943.5)">
                <g id="knob-2" transform="translate(12.5 9.5)" fill="#1765a5"
                    stroke="rgba(0,0,0,0.04)" stroke-width="0.5">
                    <circle cx="9" cy="9" r="9" stroke="none" />
                    <circle cx="9" cy="9" r="9.25" fill="none" />
                </g>
            </g>
            <path id="Path_5945" d="M7,12.386,10.386,9l3.386,3.386Z"
                transform="translate(108.614 941.307)" fill="#1765a5" />
        </g>
        <g id="twotone-3d_rotation-24px" transform="translate(112.874 1032)">
            <path id="Path_3733" d="M0,0H14V14H0Z" fill="none" />
            <path id="Path_3734"
                d="M11.292,5A2.266,2.266,0,0,0,9.215,6.377H8.124A2.281,2.281,0,0,0,6.042,5,1.994,1.994,0,0,0,4,7.042C4,8.727,5.832,10.39,8.608,12.9l.058.058.058-.058c2.777-2.514,4.608-4.177,4.608-5.862A1.994,1.994,0,0,0,11.292,5Z"
                transform="translate(-1.667 -2.083)" fill="#fff" opacity="0.3" />
            <path id="Path_3735"
                d="M10.458,3A3.493,3.493,0,0,0,7.833,4.219,3.493,3.493,0,0,0,5.208,3,3.177,3.177,0,0,0,2,6.208c0,2.205,1.983,4,4.987,6.732l.846.764.846-.77c3-2.724,4.987-4.521,4.987-6.726A3.177,3.177,0,0,0,10.458,3ZM7.892,12.071l-.058.058-.058-.058C5,9.557,3.167,7.894,3.167,6.208A1.994,1.994,0,0,1,5.208,4.167,2.281,2.281,0,0,1,7.291,5.543H8.382a2.266,2.266,0,0,1,2.077-1.377A1.994,1.994,0,0,1,12.5,6.208C12.5,7.894,10.668,9.557,7.892,12.071Z"
                transform="translate(-0.833 -1.25)" fill="#fff" />
            <g id="Group_2654" transform="translate(5.314 5.25)">
                <line id="Line_72" y2="3.5" transform="translate(1.75)" fill="none" stroke="#fff"
                    stroke-width="1" />
                <line id="Line_73" x1="3.5" transform="translate(0 1.75)" fill="none" stroke="#fff"
                    stroke-width="1" />
            </g>
        </g>
    </g>
</svg>