<svg xmlns="http://www.w3.org/2000/svg" width="23.5" height="22.293" viewBox="0 0 23.5 22.293">
  <g id="Group_8837" data-name="Group 8837" transform="translate(-335.5 -508.707)">
    <ellipse id="Ellipse_433" data-name="Ellipse 433" cx="8.5" cy="8" rx="8.5" ry="8" transform="translate(342 515)" fill="#3bff00" opacity="0.5"/>
    <g id="Group_8836" data-name="Group 8836" transform="translate(335.5 508.707)">
      <g id="Rectangle_140010" data-name="Rectangle 140010" transform="translate(0 4.027)" fill="none" stroke="#30303a" stroke-width="0.6">
        <path d="M2,0h.314a0,0,0,0,1,0,0V13.046a0,0,0,0,1,0,0H2a2,2,0,0,1-2-2V2A2,2,0,0,1,2,0Z" stroke="none"/>
        <path d="M1.757.3h0a.257.257,0,0,1,.257.257V12.489a.257.257,0,0,1-.257.257h0A1.457,1.457,0,0,1,.3,11.29V1.757A1.457,1.457,0,0,1,1.757.3Z" fill="none"/>
      </g>
      <g id="Rectangle_140009" data-name="Rectangle 140009" transform="translate(1.627 1.548)" fill="none" stroke="#30303a" stroke-width="0.8">
        <path d="M3,0h.1a0,0,0,0,1,0,0V17.806a0,0,0,0,1,0,0H3a3,3,0,0,1-3-3V3A3,3,0,0,1,3,0Z" stroke="none"/>
        <path d="M2.39.4h0A.306.306,0,0,1,2.7.706V17.1a.306.306,0,0,1-.306.306h0A1.99,1.99,0,0,1,.4,15.415V2.39A1.99,1.99,0,0,1,2.39.4Z" fill="none"/>
      </g>
      <g id="Rectangle_140008" data-name="Rectangle 140008" transform="translate(3.949)" fill="none" stroke="#30303a" stroke-width="1">
        <rect width="16.258" height="20.903" rx="3" stroke="none"/>
        <rect x="0.5" y="0.5" width="15.258" height="19.903" rx="2.5" fill="none"/>
      </g>
      <line id="Line_1224" data-name="Line 1224" x2="6.813" transform="translate(8.685 13.341)" fill="none" stroke="#79798e" stroke-linecap="round" stroke-width="1"/>
      <path id="Path_6307" data-name="Path 6307" d="M0,0H6.765" transform="translate(8.685 16.299)" fill="none" stroke="#79798e" stroke-linecap="round" stroke-width="1"/>
      <path id="Icon_awesome-star" data-name="Icon awesome-star" d="M4.526.226,3.683,1.914,1.8,2.185a.407.407,0,0,0-.229.7L2.932,4.194,2.609,6.049a.412.412,0,0,0,.6.43L4.9,5.6l1.688.876a.412.412,0,0,0,.6-.43L6.862,4.194,8.227,2.881A.407.407,0,0,0,8,2.185L6.111,1.914,5.268.226a.416.416,0,0,0-.742,0Z" transform="translate(6.794 3.249)" fill="#2170cc"/>
      <circle id="Ellipse_434" data-name="Ellipse 434" cx="4.479" cy="4.479" r="4.479" transform="translate(7.613 2.439)" fill="#014a9f"/>
      <g id="ecommerce-rupee" transform="translate(10.341 4.96)">
        <path id="Path_6303" data-name="Path 6303" d="M22.335,21.815l-2.189-2.043v-.146h1.021s1.605.146,1.605-1.313C22.773,17,21.167,17,21.167,17H20" transform="translate(-20 -17)" fill="none" stroke="#75ea75" stroke-width="0.6"/>
        <path id="Path_6304" data-name="Path 6304" d="M20,17h3.5" transform="translate(-20 -17)" fill="none" stroke="#75ea75" stroke-width="0.6"/>
        <path id="Path_6305" data-name="Path 6305" d="M20,23h3.5" transform="translate(-20 -21.677)" fill="none" stroke="#75ea75" stroke-width="0.6"/>
      </g>
    </g>
  </g>
</svg>
