<svg xmlns="http://www.w3.org/2000/svg" width="200" height="200" viewBox="0 0 200 200">
  <g id="Group_9951" data-name="Group 9951" transform="translate(-95 -264)">
    <g id="Group_9652" data-name="Group 9652" transform="translate(4.396 138)">
      <g id="Group_9646" data-name="Group 9646" transform="translate(0 10)">
        <g id="Group_9645" data-name="Group 9645">
          <g id="Group_9642" data-name="Group 9642">
            <g id="Group_9659" data-name="Group 9659">
              <path id="Icon_material-find-in-page" data-name="Icon material-find-in-page" d="M6.011,35.142V10.6L13.757,3H28.751a3.221,3.221,0,0,1,3.232,3.2L32,35.8A3.221,3.221,0,0,1,28.768,39H9.26a2.977,2.977,0,0,1-2.587-.912A4.952,4.952,0,0,1,6.011,35.142Z" transform="translate(171.021 190.768)" fill="none" stroke="#79798e" stroke-linecap="round" stroke-linejoin="round" stroke-width="1.5"/>
              <path id="Path_9541" data-name="Path 9541" d="M-2680.979,201.846h8.162v-7.678" transform="translate(2858)" fill="none" stroke="#79798e" stroke-linecap="round" stroke-linejoin="round" stroke-width="1.5"/>
              <g id="Group_9643" data-name="Group 9643" transform="translate(0.241 0.333)">
                <path id="Path_9545" data-name="Path 9545" d="M-2675.369,206.667h4.234" transform="translate(2858 15)" fill="none" stroke="#79798e" stroke-linecap="round" stroke-linejoin="round" stroke-width="1"/>
                <path id="Path_9544" data-name="Path 9544" d="M-2675.368,206.667h7.443" transform="translate(2858 10)" fill="none" stroke="#79798e" stroke-linecap="round" stroke-linejoin="round" stroke-width="1"/>
                <path id="Path_9543" data-name="Path 9543" d="M-2675.369,206.667h11.482" transform="translate(2858 5)" fill="none" stroke="#79798e" stroke-linecap="round" stroke-linejoin="round" stroke-width="1"/>
                <path id="Path_9542" data-name="Path 9542" d="M-2675.369,206.667h13.89" transform="translate(2858)" fill="none" stroke="#79798e" stroke-linecap="round" stroke-linejoin="round" stroke-width="1"/>
              </g>
            </g>
            <circle id="Ellipse_480" data-name="Ellipse 480" cx="14" cy="14" r="14" transform="translate(187 214)" fill="#1a1a22"/>
            <g id="Icon_feather-zoom-in" data-name="Icon feather-zoom-in" transform="translate(191.424 218.517)">
              <path id="Path_9524" data-name="Path 9524" d="M23.458,13.979A9.479,9.479,0,1,1,13.979,4.5a9.479,9.479,0,0,1,9.479,9.479Z" transform="translate(-4.5 -4.5)" fill="none" stroke="#79798e" stroke-linecap="round" stroke-linejoin="round" stroke-width="1.5"/>
              <path id="Path_9525" data-name="Path 9525" d="M31.3,31.3l-6.33-6.328" transform="translate(-8.801 -8.801)" fill="none" stroke="#79798e" stroke-linecap="round" stroke-linejoin="round" stroke-width="1.5"/>
              <g id="Group_9644" data-name="Group 9644" transform="translate(19.629 -0.671) rotate(90)">
                <path id="Path_9526" data-name="Path 9526" d="M0,0V9.007" transform="translate(13.335 6.966) rotate(45)" fill="none" stroke="#f04839" stroke-linecap="round" stroke-linejoin="round" stroke-width="1.5"/>
                <path id="Path_9527" data-name="Path 9527" d="M0,0H9.007" transform="translate(6.965 6.966) rotate(45)" fill="none" stroke="#f04839" stroke-linecap="round" stroke-linejoin="round" stroke-width="1.5"/>
              </g>
              <path id="Path_9546" data-name="Path 9546" d="M31.3,31.3,28.931,28.93" transform="translate(-8.802 -8.801)" fill="none" stroke="#79798e" stroke-linecap="round" stroke-linejoin="round" stroke-width="4"/>
            </g>
          </g>
        </g>
      </g>
      <g id="Group_9660" data-name="Group 9660" transform="translate(-27.294 12.824)" opacity="0.4">
        <path id="Icon_material-find-in-page-2" data-name="Icon material-find-in-page" d="M6.007,22.484V7.609L10.7,3h9.089a1.952,1.952,0,0,1,1.959,1.94l.01,17.941a1.952,1.952,0,0,1-1.959,1.94H7.976a1.8,1.8,0,0,1-1.568-.553A3,3,0,0,1,6.007,22.484Z" transform="translate(171.021 190.768)" fill="none" stroke="#79798e" stroke-linecap="round" stroke-linejoin="round" stroke-width="1"/>
        <path id="Path_9541-2" data-name="Path 9541" d="M-2680.979,198.822h4.948v-4.654" transform="translate(2858 -0.157)" fill="none" stroke="#79798e" stroke-linecap="round" stroke-linejoin="round" stroke-width="1"/>
        <g id="Group_9643-2" data-name="Group 9643" transform="translate(180.568 201.789)">
          <path id="Path_9545-2" data-name="Path 9545" d="M-2675.369,206.667h2.566" transform="translate(2675.369 -197.574)" fill="none" stroke="#79798e" stroke-linecap="round" stroke-linejoin="round" stroke-width="1"/>
          <path id="Path_9544-2" data-name="Path 9544" d="M-2675.369,206.667h4.512" transform="translate(2675.369 -200.605)" fill="none" stroke="#79798e" stroke-linecap="round" stroke-linejoin="round" stroke-width="1"/>
          <path id="Path_9543-2" data-name="Path 9543" d="M-2675.368,206.667h7.065" transform="translate(2675.369 -203.636)" fill="none" stroke="#79798e" stroke-linecap="round" stroke-linejoin="round" stroke-width="1"/>
          <path id="Path_9542-2" data-name="Path 9542" d="M-2675.369,206.667h8.419" transform="translate(2675.369 -206.667)" fill="none" stroke="#79798e" stroke-linecap="round" stroke-linejoin="round" stroke-width="1"/>
        </g>
      </g>
      <g id="Group_9661" data-name="Group 9661" transform="translate(37.979 12.824)" opacity="0.4">
        <path id="Icon_material-find-in-page-3" data-name="Icon material-find-in-page" d="M6.007,22.484V7.609L10.7,3h9.089a1.952,1.952,0,0,1,1.959,1.94l.01,17.941a1.952,1.952,0,0,1-1.959,1.94H7.976a1.8,1.8,0,0,1-1.568-.553A3,3,0,0,1,6.007,22.484Z" transform="translate(171.021 190.768)" fill="none" stroke="#79798e" stroke-linecap="round" stroke-linejoin="round" stroke-width="1"/>
        <path id="Path_9541-3" data-name="Path 9541" d="M-2680.979,198.822h4.948v-4.654" transform="translate(2858 -0.157)" fill="none" stroke="#79798e" stroke-linecap="round" stroke-linejoin="round" stroke-width="1"/>
        <g id="Group_9643-3" data-name="Group 9643" transform="translate(180.568 201.789)">
          <path id="Path_9545-3" data-name="Path 9545" d="M-2675.369,206.667h2.566" transform="translate(2675.369 -197.574)" fill="none" stroke="#79798e" stroke-linecap="round" stroke-linejoin="round" stroke-width="1"/>
          <path id="Path_9544-3" data-name="Path 9544" d="M-2675.369,206.667h4.512" transform="translate(2675.369 -200.605)" fill="none" stroke="#79798e" stroke-linecap="round" stroke-linejoin="round" stroke-width="1"/>
          <path id="Path_9543-3" data-name="Path 9543" d="M-2675.369,206.667h6.793" transform="translate(2675.369 -203.636)" fill="none" stroke="#79798e" stroke-linecap="round" stroke-linejoin="round" stroke-width="1"/>
          <path id="Path_9542-3" data-name="Path 9542" d="M-2675.369,206.667h8.419" transform="translate(2675.369 -206.667)" fill="none" stroke="#79798e" stroke-linecap="round" stroke-linejoin="round" stroke-width="1"/>
        </g>
      </g>
    </g>
    <g id="Group_9651" data-name="Group 9651" transform="translate(2 138)">
      <g id="Ellipse_481" data-name="Ellipse 481" transform="translate(126 159)" fill="none" stroke="#2c2c37" stroke-width="1">
        <circle cx="67" cy="67" r="67" stroke="none"/>
        <circle cx="67" cy="67" r="66.5" fill="none"/>
      </g>
      <g id="Ellipse_482" data-name="Ellipse 482" transform="translate(112 145)" fill="none" stroke="#2c2c37" stroke-width="1" opacity="0.5">
        <circle cx="81" cy="81" r="81" stroke="none"/>
        <circle cx="81" cy="81" r="80.5" fill="none"/>
      </g>
      <g id="Ellipse_483" data-name="Ellipse 483" transform="translate(93 126)" fill="none" stroke="#2c2c37" stroke-width="1" opacity="0.3">
        <circle cx="100" cy="100" r="100" stroke="none"/>
        <circle cx="100" cy="100" r="99.5" fill="none"/>
      </g>
      <g id="Ellipse_484" data-name="Ellipse 484" transform="translate(143 176)" fill="none" stroke="#2c2c37" stroke-width="1" opacity="0.3">
        <circle cx="50" cy="50" r="50" stroke="none"/>
        <circle cx="50" cy="50" r="49.5" fill="none"/>
      </g>
    </g>
    <g id="Group_9653" data-name="Group 9653" transform="translate(221.298 301.002) rotate(45)">
      <path id="Path_9526-2" data-name="Path 9526" d="M0,0V4.915" transform="translate(10.441 6.966) rotate(45)" fill="none" stroke="#40404d" stroke-linecap="round" stroke-linejoin="round" stroke-width="1.5"/>
      <path id="Path_9527-2" data-name="Path 9527" d="M0,0H4.915" transform="translate(6.965 6.966) rotate(45)" fill="none" stroke="#40404d" stroke-linecap="round" stroke-linejoin="round" stroke-width="1.5"/>
    </g>
    <g id="Polygon_12" data-name="Polygon 12" transform="translate(167 390)" fill="none">
      <path d="M2.106,1.789a1,1,0,0,1,1.789,0L5.276,4.553A1,1,0,0,1,4.382,6H1.618A1,1,0,0,1,.724,4.553Z" stroke="none"/>
      <path d="M 3 2.236062526702881 L 1.618319511413574 5.000002861022949 L 4.381840229034424 4.999752998352051 L 3.000010013580322 2.236072540283203 C 3.000008106231689 2.236068248748779 3.000008821487427 2.236063003540039 3 2.236062526702881 M 3 1.23606538772583 C 3.355082511901855 1.23606538772583 3.710165023803711 1.420327663421631 3.894429922103882 1.788852691650391 L 5.276390075683594 4.552783012390137 C 5.608839988708496 5.217682838439941 5.125349998474121 6.000002861022949 4.381969928741455 6.000002861022949 L 1.618030071258545 6.000002861022949 C 0.8746500015258789 6.000002861022949 0.3911600112915039 5.217682838439941 0.7236099243164062 4.552783012390137 L 2.105570077896118 1.788852691650391 C 2.289834976196289 1.420327663421631 2.644917488098145 1.23606538772583 3 1.23606538772583 Z" stroke="none" fill="#40404d"/>
    </g>
    <circle id="Ellipse_485" data-name="Ellipse 485" cx="1.5" cy="1.5" r="1.5" transform="translate(134 296)" fill="#40404d" opacity="0.5"/>
    <circle id="Ellipse_486" data-name="Ellipse 486" cx="1" cy="1" r="1" transform="translate(178 330)" fill="#40404d"/>
    <circle id="Ellipse_487" data-name="Ellipse 487" cx="1" cy="1" r="1" transform="translate(248 414)" fill="#40404d"/>
  </g>
</svg>
