<svg xmlns="http://www.w3.org/2000/svg" width="50" height="50" viewBox="0 0 50 50">
  <g id="Group_9941" data-name="Group 9941" transform="translate(-290 -558)">
    <rect id="Rectangle_140539" data-name="Rectangle 140539" width="50" height="50" rx="3" transform="translate(290 558)" fill="none"/>
    <g id="Group_9938" data-name="Group 9938" transform="translate(50.159 -52.081)">
      <g id="Group_9937" data-name="Group 9937" transform="translate(249.767 629)">
        <g id="Rectangle_140540" data-name="Rectangle 140540" transform="translate(0 1.796)" fill="none" stroke="#79798e" stroke-width="1">
          <rect width="17.268" height="16.404" rx="2" stroke="none"/>
          <rect x="0.5" y="0.5" width="16.268" height="15.404" rx="1.5" fill="none"/>
        </g>
        <line id="Line_1613" data-name="Line 1613" y1="3.601" transform="translate(4.98)" fill="none" stroke="#79798e" stroke-linecap="round" stroke-width="1"/>
        <line id="Line_1614" data-name="Line 1614" y1="3.601" transform="translate(12.616)" fill="none" stroke="#79798e" stroke-linecap="round" stroke-width="1"/>
        <line id="Line_1615" data-name="Line 1615" x2="15.945" transform="translate(0.771 7.403)" fill="none" stroke="#79798e" stroke-width="1"/>
        <g id="Group_9936" data-name="Group 9936" transform="translate(3.715 9.909)">
          <g id="Ellipse_493" data-name="Ellipse 493" transform="translate(4.076 3.415)" fill="none" stroke="#79798e" stroke-width="1">
            <circle cx="0.854" cy="0.854" r="0.854" stroke="none"/>
            <circle cx="0.854" cy="0.854" r="0.354" fill="none"/>
          </g>
          <g id="Ellipse_494" data-name="Ellipse 494" transform="translate(0 3.415)" fill="none" stroke="#79798e" stroke-width="1">
            <circle cx="0.854" cy="0.854" r="0.854" stroke="none"/>
            <circle cx="0.854" cy="0.854" r="0.354" fill="none"/>
          </g>
          <g id="Ellipse_495" data-name="Ellipse 495" transform="translate(8.152)" fill="none" stroke="#79798e" stroke-width="1">
            <circle cx="0.854" cy="0.854" r="0.854" stroke="none"/>
            <circle cx="0.854" cy="0.854" r="0.354" fill="none"/>
          </g>
          <g id="Ellipse_496" data-name="Ellipse 496" transform="translate(4.076)" fill="none" stroke="#79798e" stroke-width="1">
            <circle cx="0.854" cy="0.854" r="0.854" stroke="none"/>
            <circle cx="0.854" cy="0.854" r="0.354" fill="none"/>
          </g>
          <g id="Ellipse_497" data-name="Ellipse 497" fill="none" stroke="#79798e" stroke-width="1">
            <circle cx="0.854" cy="0.854" r="0.854" stroke="none"/>
            <circle cx="0.854" cy="0.854" r="0.354" fill="none"/>
          </g>
        </g>
      </g>
    </g>
    <g id="Group_9940" data-name="Group 9940" transform="translate(276.523 238.266)">
      <g id="Group_9939" data-name="Group 9939" transform="translate(37.477 335.481)">
        <path id="Path_9624" data-name="Path 9624" d="M9.416,1.676c4.906-.1,9.416,6.12,9.416,12.056s-4.216,6.76-9.416,6.76S0,19.668,0,13.732,4.51,1.78,9.416,1.676Z" transform="translate(0 4.881)" fill="#014a9f"/>
        <path id="Path_9625" data-name="Path 9625" d="M5.351,8.5c2.028-.041,3.306-1.8,4.32-3.955.835-1.775,3.05-2.581-1.3-2.83a21.267,21.267,0,0,1-3.019.479c-.9,0-1.674-.519-2.727-.482-4.975.161-2.3,1.07-1.51,2.834C2,6.522,3.323,8.542,5.351,8.5Z" transform="translate(4.068 -2.957)" fill="#014a9f"/>
      </g>
      <g id="ecommerce-rupee" transform="translate(43.477 347.735)">
        <path id="Path_9626" data-name="Path 9626" d="M24.64,26.569l-4.35-4.06v-.29h2.03s3.19.29,3.19-2.61c0-2.61-3.19-2.61-3.19-2.61H20" transform="translate(-20 -17)" fill="none" stroke="#59d059" stroke-width="1.2"/>
        <path id="Path_9627" data-name="Path 9627" d="M20,17h6.959" transform="translate(-20 -17)" fill="none" stroke="#59d059" stroke-width="1.2"/>
        <path id="Path_9628" data-name="Path 9628" d="M20,23h6.959" transform="translate(-20 -20.37)" fill="none" stroke="#59d059" stroke-width="1.2"/>
      </g>
    </g>
  </g>
</svg>
