<svg xmlns="http://www.w3.org/2000/svg" width="20.887" height="20.887" viewBox="0 0 20.887 20.887">
  <g id="Component_195_8" transform="translate(0.5 0.5)">
    <g id="basic-exclamation" transform="translate(-1 -1)">
      <path id="Path_3146" d="M17.974,3.913a9.943,9.943,0,1,1-14.062,0,9.942,9.942,0,0,1,14.062,0Z" transform="translate(0 0)" fill="none" stroke="#359a35" stroke-width="1"/>
    </g>
    <path id="Path_3602" d="M3.032,6.389a.588.588,0,0,1-.419-.176L.166,3.689A.584.584,0,0,1,1,2.875L3.015,4.951,7.276.194a.583.583,0,1,1,.868.778L3.467,6.2a.589.589,0,0,1-.423.194Z" transform="translate(5.797 7)" fill="#359a35"/>
  </g>
</svg>
