<svg xmlns="http://www.w3.org/2000/svg" width="10" height="10" viewBox="0 0 10 10">
  <g id="Group_7145" data-name="Group 7145" transform="translate(-14.5 -14.5)">
    <path id="Path_3617" data-name="Path 3617" d="M39.6,39.664l-2.733,2.283-1-1.067a.333.333,0,1,0-.483.45l1.217,1.3a.333.333,0,0,0,.233.1.3.3,0,0,0,.217-.067l2.983-2.5a.333.333,0,0,0,.033-.467.317.317,0,0,0-.467-.033Z" transform="translate(-18.088 -21.649)" fill="#359a35"/>
    <path id="Path_3618" data-name="Path 3618" d="M19.5,14.5a5,5,0,1,0,5,5,5,5,0,0,0-5-5Zm0,9.42a4.42,4.42,0,1,1,4.42-4.42,4.42,4.42,0,0,1-4.42,4.42Z" transform="translate(0 0)" fill="#359a35"/>
  </g>
</svg>
