<svg id="Component_62_3" data-name="Component 62 – 3" xmlns="http://www.w3.org/2000/svg" width="16" height="16" viewBox="0 0 16 16">
  <g id="Polygon_33" transform="translate(0)">
    <path id="Intersection_1" d="M.965,16H.909A1.028,1.028,0,0,1,0,14.932a1.178,1.178,0,0,1,.123-.525L7.159.545A1.089,1.089,0,0,1,7.3.334a.948.948,0,0,1,.51-.313h.006l.008,0A.868.868,0,0,1,8,0a.891.891,0,0,1,.272.042.905.905,0,0,1,.2.094,1.047,1.047,0,0,1,.368.408l7.034,13.861a1.171,1.171,0,0,1,0,1.049v0l-.01.019a.077.077,0,0,1-.006.013l-.008.015-.013.021,0,.008-.011.018-.005.008-.011.017-.006.009-.01.014a1,1,0,0,1-.281.264A.9.9,0,0,1,15.1,16h0l-.028,0H.965Zm0-1.07h14.07L8,1.07Z" transform="translate(0)" fill="#d04344"/>
  </g>
  <rect id="Rectangle_1157" width="1" height="4.267" transform="translate(7.565 5.297)" fill="#d04344"/>
  <rect id="Rectangle_1158" width="1" height="2.133" transform="translate(7.565 10.984)" fill="#d04344"/>
</svg>
