<svg xmlns="http://www.w3.org/2000/svg" width="19.414" height="19.414" viewBox="0 0 19.414 19.414">
  <g id="Icon_feather-eye-off" data-name="Icon feather-eye-off" transform="translate(49.207 49.207)">
    <path id="Path_3542" data-name="Path 3542" d="M15.36,18.326a7.855,7.855,0,0,1-4.86,1.821c-5.727,0-9-7.074-9-7.074A16.049,16.049,0,0,1,5.64,7.821M8.782,6.212A6.931,6.931,0,0,1,10.5,6c5.727,0,9,7.074,9,7.074a16.49,16.49,0,0,1-1.767,2.821m-5.5-.946a2.339,2.339,0,0,1-2.4.762A2.561,2.561,0,0,1,8.061,13.8a2.793,2.793,0,0,1,.7-2.6" transform="translate(-50 -52.574)" fill="none" stroke="#999" stroke-linecap="round" stroke-linejoin="round" stroke-width="1"/>
    <path id="Path_3543" data-name="Path 3543" d="M1.5,1.5l18,18" transform="translate(-50 -50)" fill="none" stroke="#999" stroke-linecap="round" stroke-linejoin="round" stroke-width="1"/>
  </g>
</svg>
