<svg id="google-color" xmlns="http://www.w3.org/2000/svg" width="60" height="60" viewBox="0 0 60 60">
  <g id="Ellipse_319" data-name="Ellipse 319" fill="#fff" stroke="#c9c9c9" stroke-width="0.5">
    <circle cx="30" cy="30" r="30" stroke="none"/>
    <circle cx="30" cy="30" r="29.75" fill="none"/>
  </g>
  <g id="Icons" transform="translate(18.993 19.08)">
    <g id="Color-" transform="translate(0 0)">
      <g id="Google">
        <path id="Fill-1" d="M4.81,18.575a6.633,6.633,0,0,1,.337-2.083L1.365,13.6a11.3,11.3,0,0,0,0,9.938l3.78-2.893a6.639,6.639,0,0,1-.334-2.074" transform="translate(-0.213 -7.354)" fill="#fbbc05" fill-rule="evenodd"/>
        <path id="Fill-2" d="M12.708,5.123A6.5,6.5,0,0,1,16.845,6.6l3.269-3.264A11.229,11.229,0,0,0,2.624,6.783L6.405,9.671a6.622,6.622,0,0,1,6.3-4.547" transform="translate(-1.471 -0.533)" fill="#eb4335" fill-rule="evenodd"/>
        <path id="Fill-3" d="M12.708,32.9a6.622,6.622,0,0,1-6.3-4.547L2.623,31.244a11.2,11.2,0,0,0,10.084,6.25,10.709,10.709,0,0,0,7.321-2.8l-3.589-2.775a6.948,6.948,0,0,1-3.731.982" transform="translate(-1.471 -15.053)" fill="#34a853" fill-rule="evenodd"/>
        <path id="Fill-4" d="M34.439,21.773a9.282,9.282,0,0,0-.255-2.04H23.714v4.335h6.027a5.053,5.053,0,0,1-2.3,3.354L31.035,30.2a11.16,11.16,0,0,0,3.4-8.424" transform="translate(-12.477 -10.552)" fill="#4285f4" fill-rule="evenodd"/>
      </g>
    </g>
  </g>
</svg>
