<svg id="Group_29062" data-name="Group 29062" xmlns="http://www.w3.org/2000/svg" width="20.685" height="19.996" viewBox="0 0 20.685 19.996">
  <g id="Group_29057" data-name="Group 29057" transform="translate(0 0)">
    <g id="Group_29063" data-name="Group 29063">
      <g id="Group_29064" data-name="Group 29064" transform="translate(4.081 3.43)">
        <path id="Path_3344" data-name="Path 3344" d="M241.968,207.908a4.2,4.2,0,0,0-2.016-1.119,4.213,4.213,0,0,0-3.933,1.119,4.2,4.2,0,0,0,5.394,6.4,4.25,4.25,0,0,0,1.023-1.02,4.176,4.176,0,0,0-.468-5.38" transform="translate(-233.536 -205.429)" fill="#056ca4"/>
        <path id="Path_3345" data-name="Path 3345" d="M189.071,160.785c.04-.04.08-.081.117-.121l.017-.018,0,0h0l0,0,.015-.016,0,0,.011-.012.015-.016,0,0h0l0,0,.038-.043,0,0,.019-.021,0,0,.021-.024h0l0,0,.007-.008,0,0,.027-.031.006-.007,0,0h0l.022-.026.063-.077c.03-.037.059-.075.088-.113l0,0,.03-.04.028-.038,0,0h0l.007-.009.011-.015.028-.04a5.447,5.447,0,0,0-.218-6.552,5.552,5.552,0,0,0-.388-.43,5.471,5.471,0,0,0-7.722,0,5.532,5.532,0,0,0-.425.476,5.446,5.446,0,0,0,4.286,8.82h0a5.342,5.342,0,0,0,3.121-.986v0a1.705,1.705,0,0,0,.268-.194c.008-.006.02-.012.028-.018l.064-.051.031-.024.066-.056.025-.021.044-.039.044-.039.046-.043.041-.038.084-.082m-.469-.468a4.838,4.838,0,0,1-.633.531,4.789,4.789,0,1,1-3.912-8.559,4.854,4.854,0,0,1,2.245-.014,4.777,4.777,0,0,1,2.3,8.042" transform="translate(-179.754 -151.489)" fill="#056ca4"/>
        <path id="Path_9448" data-name="Path 9448" d="M0,0,2.516,0V1.012L0,1.009Z" transform="translate(14.109 15.85) rotate(-45)" fill="#056ca4"/>
        <path id="Path_3346" data-name="Path 3346" d="M630.925,601.036l-.891.888-.7.7h0l-.191.19,3.488,3.478,1.781-1.776Z" transform="translate(-618.94 -590.857)" fill="#056ca4"/>
        <path id="Path_3347" data-name="Path 3347" d="M587.612,558.521l-.97-.967-.079.1-.024.028-.007.008-.006.008-.025.03,0,0h0l-.013.015-.025.028-.023.026-.009.01,0,0,0,0-.031.035h0l-.006.006-.008.009-.016.018,0,0-.006.007-.015.016-.014.014-.011.011c-.04.043-.084.088-.129.133s-.075.073-.113.109l-.033.031-.086.079-.034.031-.116.1,0,0-.121.1-.013.011.97.967.348-.348Z" transform="translate(-576.445 -548.359)" fill="#056ca4"/>
      </g>
      <g id="Group_29059" data-name="Group 29059" transform="translate(0 9.946)">
        <path id="Path_3360" data-name="Path 3360" d="M51.789,477.594a8.151,8.151,0,0,1-7.838-5.866l-.369-.3-.193.4a8.74,8.74,0,0,0,13.172,4.922l-.411-.409a8.126,8.126,0,0,1-4.362,1.259" transform="translate(-42.404 -470.7)" fill="#bcbcd8"/>
        <path id="Path_3364" data-name="Path 3364" d="M606.13,677.737a.284.284,0,0,0-.4-.071q-.14.1-.284.188l.411.409c.066-.043.132-.087.2-.132a.282.282,0,0,0,.071-.394" transform="translate(-591.704 -672.218)" fill="#bcbcd8"/>
        <path id="Path_3365" data-name="Path 3365" d="M764.981,440.051a.284.284,0,0,0,.277-.225c.016-.076.031-.153.045-.23a.284.284,0,0,0-.558-.1c-.013.072-.027.144-.042.215a.283.283,0,0,0,.219.336.288.288,0,0,0,.059.006" transform="translate(-747.334 -439.262)" fill="#bcbcd8"/>
        <path id="Path_3366" data-name="Path 3366" d="M737.888,507.366c-.065.166-.137.332-.213.493a.284.284,0,0,0,.514.241c.081-.173.158-.35.227-.528a.284.284,0,0,0-.529-.206" transform="translate(-720.9 -505.648)" fill="#bcbcd8"/>
        <path id="Path_3367" data-name="Path 3367" d="M717.571,576.414a.284.284,0,0,0-.309,0l.392.391a.283.283,0,0,0-.083-.389" transform="translate(-700.977 -573.262)" fill="#bcbcd8"/>
        <path id="Path_3368" data-name="Path 3368" d="M706.056,578.428c-.041.061-.082.122-.123.181a.284.284,0,0,0,.465.324c.044-.063.089-.128.132-.194l0,0-.392-.391a.285.285,0,0,0-.084.082" transform="translate(-689.855 -575.197)" fill="#bcbcd8"/>
        <path id="Path_3373" data-name="Path 3373" d="M.828,446.06l0,.005-.8,1.63a.284.284,0,0,0,.51.248l.446-.913q-.11-.389-.184-.789a.281.281,0,0,1,.027-.18" transform="translate(0 -445.906)" fill="#bcbcd8"/>
        <path id="Path_3382" data-name="Path 3382" d="M55.31,442.063a8.147,8.147,0,0,0,.188.8l.753.613a.283.283,0,1,0,.359-.439l-1.4-1.14-.006,0a.282.282,0,0,1,.106.173" transform="translate(-53.951 -441.83)" fill="#bcbcd8"/>
        <path id="Path_3385" data-name="Path 3385" d="M35.814,440.3a8.152,8.152,0,0,1-.188-.8.281.281,0,0,0-.106-.173l-.017-.012-.01-.006-.016-.009-.01-.005-.018-.008-.009,0-.022-.007-.006,0a.278.278,0,0,0-.061-.007h-.041l-.019,0-.012,0-.019.005-.01,0-.019.008-.009,0-.02.011-.007,0-.021.015,0,0-.023.02,0,0-.018.02-.006.008-.012.016-.006.009-.01.017a.281.281,0,0,0-.027.18q.073.4.184.79l.193-.4Z" transform="translate(-34.267 -439.267)" fill="#bcbcd8"/>
      </g>
      <g id="Group_29058" data-name="Group 29058" transform="translate(0.796)">
        <path id="Path_3402" data-name="Path 3402" d="M132.656,3.078a8.171,8.171,0,0,1,13.733,3.354l.369.3.193-.4a8.735,8.735,0,0,0-14.705-3.651.283.283,0,0,0,.41.391" transform="translate(-129.963 0)" fill="#bcbcd8"/>
        <path id="Path_3403" data-name="Path 3403" d="M35.293,295.449a.284.284,0,0,0,.33-.227c.013-.072.027-.144.042-.215a.284.284,0,0,0-.555-.117c-.016.076-.031.153-.045.23a.283.283,0,0,0,.228.329" transform="translate(-35.06 -287.992)" fill="#bcbcd8"/>
        <path id="Path_3404" data-name="Path 3404" d="M64.441,184.085a.284.284,0,0,0,.378-.135c.108-.228.228-.454.356-.671a.284.284,0,0,0-.489-.288c-.138.232-.266.474-.381.718a.283.283,0,0,0,.136.377" transform="translate(-63.615 -178.711)" fill="#bcbcd8"/>
        <path id="Path_3405" data-name="Path 3405" d="M783.466,234.55l0-.005.8-1.63a.284.284,0,0,0-.51-.248l-.446.913q.11.389.184.789a.281.281,0,0,1-.027.18" transform="translate(-766.32 -227.242)" fill="#bcbcd8"/>
        <path id="Path_3419" data-name="Path 3419" d="M706.371,255.639a8.12,8.12,0,0,0-.188-.8l-.753-.613a.283.283,0,1,0-.359.439l1.4,1.138a.282.282,0,0,1-.1-.167" transform="translate(-689.756 -248.411)" fill="#bcbcd8"/>
        <path id="Path_3422" data-name="Path 3422" d="M758.539,279.97a8.188,8.188,0,0,1,.188.8.282.282,0,0,0,.1.167h0l.008.006.012.009.009.006.012.007.009,0,.013.006.008,0,.015.006.005,0,.018.005h0a.285.285,0,0,0,.069.009h.037l.019,0,.012,0,.018-.005.011,0,.019-.008.009,0,.019-.01.007,0,.021-.014,0,0,.023-.02,0,0,.018-.019.006-.008.011-.016.006-.01.01-.017a.281.281,0,0,0,.027-.18q-.073-.4-.184-.789l-.193.4Z" transform="translate(-742.112 -273.539)" fill="#bcbcd8"/>
      </g>
    </g>
  </g>
  <path id="Path_3463" data-name="Path 3463" d="M-4.394-8.582l.094-.589h1.477a1.057,1.057,0,0,0,.554-.153,1.207,1.207,0,0,0,.412-.409,1.011,1.011,0,0,0,.157-.538.774.774,0,0,0-.232-.57.8.8,0,0,0-.593-.232H-4l.094-.589H-2.32a1.39,1.39,0,0,1,.684.165,1.24,1.24,0,0,1,.471.452,1.246,1.246,0,0,1,.173.656,1.643,1.643,0,0,1-.145.684,1.975,1.975,0,0,1-.4.577,1.875,1.875,0,0,1-.577.4,1.688,1.688,0,0,1-.7.145Zm1.854,2.31-1.854-2.31h.919l1.854,2.31ZM-4.2-9.847l.1-.589H-.089L-.3-9.847Zm.2-1.226.094-.589H.351l-.212.589Z" transform="translate(11.733 18.21)" fill="#fff"/>
</svg>
