<svg id="portfolio-icon-white" xmlns="http://www.w3.org/2000/svg" width="24" height="24" viewBox="0 0 24 24">
  <rect id="Rectangle_144710" data-name="Rectangle 144710" width="24" height="24" fill="#fff" opacity="0"/>
  <g id="Group_29257" data-name="Group 29257" transform="translate(-30.706 -146.105)">
    <path id="Shape_9" data-name="Shape 9" d="M2.212,16.81A1.77,1.77,0,0,1,.443,15.041V8.673A1.755,1.755,0,0,1,0,7.52V3.54A1.329,1.329,0,0,1,1.327,2.212H6.636V1.327A1.329,1.329,0,0,1,7.963,0h3.981a1.329,1.329,0,0,1,1.328,1.327v.885h5.751A1.328,1.328,0,0,1,20.349,3.54V7.52a1.755,1.755,0,0,1-.442,1.151v6.369a1.771,1.771,0,0,1-1.769,1.769Zm-.885-1.769a.886.886,0,0,0,.885.885H18.138a.886.886,0,0,0,.885-.885V9.375a6.928,6.928,0,0,1-3.1.8h-4.2v1.77h-3.1v-1.77h-4.2a6.929,6.929,0,0,1-3.1-.8ZM9.511,11.06h1.327V9.733H9.511Zm6.414-1.769c1.392,0,3.539-.76,3.539-1.77V3.54a.443.443,0,0,0-.442-.443H1.327a.443.443,0,0,0-.443.443V7.52c0,1.01,2.147,1.77,3.539,1.77h4.2V8.848h3.1v.443ZM12.387,2.212V1.327a.443.443,0,0,0-.443-.443H7.963a.443.443,0,0,0-.443.443v.885Z" transform="translate(33 150)" fill="#767f88" stroke="#767f88" stroke-width="0.2"/>
    <rect id="Rectangle_140375" data-name="Rectangle 140375" width="3.273" height="3.273" transform="translate(41.526 158.754)" fill="#54a831"/>
  </g>
</svg>
