<svg id="Component_191_49" data-name="Component 191 – 49" xmlns="http://www.w3.org/2000/svg" width="24" height="24" viewBox="0 0 24 24">
  <g id="Group_8786" data-name="Group 8786">
    <rect id="Rectangle_139660" data-name="Rectangle 139660" width="24" height="24" rx="3" fill="#29292b" opacity="0"/>
    <g id="Icon_feather-eye-off" data-name="Icon feather-eye-off" transform="translate(3.504 4.623)">
      <path id="Path_6440" data-name="Path 6440" d="M12.28,13.842A6.963,6.963,0,0,1,8.5,15c-4.455,0-7-4.5-7-4.5A10.842,10.842,0,0,1,4.72,7.159M7.164,6.135A6.532,6.532,0,0,1,8.5,6c4.455,0,7,4.5,7,4.5A10.442,10.442,0,0,1,14.125,12.3m-4.063-.51a2,2,0,0,1-2.8.252,1.94,1.94,0,0,1-.186-2.9" transform="translate(0 -2.623)" fill="none" stroke="#999" stroke-linecap="round" stroke-linejoin="round" stroke-width="1"/>
      <path id="Path_6441" data-name="Path 6441" d="M1.5,1.5l14,12" transform="translate(0)" fill="none" stroke="#999" stroke-linecap="round" stroke-linejoin="round" stroke-width="1"/>
    </g>
  </g>
</svg>
