<svg id="upstox" xmlns="http://www.w3.org/2000/svg" width="24" height="24" viewBox="0 0 24 24">
  <rect id="Image_14" data-name="Image 14" width="24" height="24" rx="3" fill="#41246e"/>
  <circle id="Ellipse_442" data-name="Ellipse 442" cx="10" cy="10" r="10" transform="translate(2 2)" fill="#41246e"/>
  <g id="Group_30892" data-name="Group 30892" transform="translate(4.849 9.027)">
    <path id="Path_14201" data-name="Path 14201" d="M8.28,3.307A1.429,1.429,0,0,1,6.718,4.751,1.281,1.281,0,0,1,5.365,3.307V1.833a3.6,3.6,0,0,1-.673.925,3.631,3.631,0,0,1-.472.4l0,.393a2.128,2.128,0,0,0,2.32,2.286,2.005,2.005,0,0,0,1.735-.81v.7H9.424V.193H8.28Z" transform="translate(-1.717 -0.079)" fill="#fff"/>
    <path id="Path_14202" data-name="Path 14202" d="M17.276,0A2.355,2.355,0,0,0,15.3.87V.116H14.152v7.83H15.3V4.888a2.357,2.357,0,0,0,1.978.87,2.721,2.721,0,0,0,2.788-2.849A2.77,2.77,0,0,0,17.276,0m-.138,4.733A1.79,1.79,0,0,1,15.3,2.909a1.836,1.836,0,0,1,1.833-1.884h0a1.793,1.793,0,0,1,1.782,1.884,1.748,1.748,0,0,1-1.783,1.824" transform="translate(-5.762)" fill="#fff"/>
    <path id="Path_14203" data-name="Path 14203" d="M3.368,1.572A3.527,3.527,0,0,0,3.646.2H2.523a2.465,2.465,0,0,1-.193.953,2.532,2.532,0,0,1-.546.805A2.566,2.566,0,0,1,0,2.682V3.79A3.68,3.68,0,0,0,2.578,2.736a3.57,3.57,0,0,0,.789-1.163" transform="translate(0 -0.08)" fill="#fff"/>
  </g>
</svg>
