<svg xmlns="http://www.w3.org/2000/svg" xmlns:xlink="http://www.w3.org/1999/xlink" width="20" height="20" viewBox="0 0 20 20">
  <defs>
    <clipPath id="clip-path">
      <rect id="Rectangle_140548" data-name="Rectangle 140548" width="20" height="20" transform="translate(-0.129 -0.129)" fill="#fff"/>
    </clipPath>
  </defs>
  <g id="edit" transform="translate(0.129 0.129)" clip-path="url(#clip-path)">
    <g id="Group_30909" data-name="Group 30909" transform="translate(0 0.246)">
      <g id="Rectangle_140550" data-name="Rectangle 140550" transform="translate(2.871 3.125)" fill="none" stroke="#999" stroke-width="1">
        <rect width="14" height="14" rx="3" stroke="none"/>
        <rect x="0.5" y="0.5" width="13" height="13" rx="2.5" fill="none"/>
      </g>
      <rect id="Rectangle_140549" data-name="Rectangle 140549" width="7" height="7" transform="translate(10.871 1.871)" fill="#000"/>
      <g id="Group_30908" data-name="Group 30908" transform="translate(5.172 1.446)">
        <g id="Path_14215" data-name="Path 14215" transform="translate(9.82 0) rotate(45)" fill="none">
          <path d="M1.8.011l1.145,0A1.558,1.558,0,0,1,4.506,1.565v9.347a8.643,8.643,0,0,1-2.149,2.975A8.8,8.8,0,0,1,.246,10.916V1.569A1.558,1.558,0,0,1,1.8.011Z" stroke="none"/>
          <path d="M 2.949113368988037 1.007386207580566 L 1.803544282913208 1.011435508728027 C 1.495954275131226 1.011435508728027 1.245704412460327 1.261685371398926 1.245704412460327 1.56928539276123 L 1.245704412460327 10.78426361083984 C 1.397879600524902 11.12410354614258 1.93702507019043 11.92621326446533 2.366912126541138 12.48424625396729 C 2.802021741867065 11.92734050750732 3.350337982177734 11.12158012390137 3.50646448135376 10.77763748168945 L 3.50646448135376 1.565225601196289 C 3.50646448135376 1.257804870605469 3.256471157073975 1.007660865783691 2.949113368988037 1.007386207580566 M 2.9486243724823 0.00738525390625 C 3.808994293212891 0.00738525390625 4.50646448135376 0.7048559188842773 4.50646448135376 1.565225601196289 L 4.50646448135376 10.9122953414917 C 4.50646448135376 11.34247589111328 2.684103488922119 13.90030384063721 2.357184410095215 13.88695526123047 C 2.030194282531738 13.87360572814941 0.245704174041748 11.34653568267822 0.245704174041748 10.91634559631348 L 0.245704174041748 1.56928539276123 C 0.245704174041748 0.7089052200317383 0.9431743621826172 0.01143550872802734 1.803544282913208 0.01143550872802734 L 2.9486243724823 0.00738525390625 Z" stroke="none" fill="#999"/>
        </g>
        <path id="Path_14216" data-name="Path 14216" d="M14.3,6.04l2.139,2.149" transform="translate(-6.445 -2.859)" fill="none" stroke="#999" stroke-linecap="round" stroke-linejoin="round" stroke-width="1"/>
      </g>
    </g>
  </g>
</svg>
