<svg xmlns="http://www.w3.org/2000/svg" width="11.797" height="11.791" viewBox="0 0 11.797 11.791">
  <g id="Icon_ionic-ios-link" data-name="Icon ionic-ios-link" transform="translate(-3.275 -3.275)">
    <path id="Path_5167" data-name="Path 5167" d="M9.768,17.314l-.033,0a.456.456,0,0,0-.265.124L7.69,19.22a2.007,2.007,0,0,1-2.838-2.838l1.89-1.89a2,2,0,0,1,.314-.256,2.026,2.026,0,0,1,.408-.207,1.929,1.929,0,0,1,.413-.1,1.954,1.954,0,0,1,.281-.019c.039,0,.077,0,.127.006a2,2,0,0,1,1.29.579,1.976,1.976,0,0,1,.471.752.434.434,0,0,0,.532.278l.008,0s.006,0,.006,0a.43.43,0,0,0,.289-.526,2.5,2.5,0,0,0-.678-1.13,2.9,2.9,0,0,0-1.587-.807c-.052-.008-.1-.017-.157-.022a2.844,2.844,0,0,0-.306-.017c-.072,0-.143,0-.212.008a2.779,2.779,0,0,0-.446.069c-.03.006-.058.014-.088.022a2.866,2.866,0,0,0-.537.2,2.831,2.831,0,0,0-.763.548l-1.89,1.89a2.907,2.907,0,0,0-.84,2.053,2.9,2.9,0,0,0,4.944,2.047l1.8-1.8A.436.436,0,0,0,9.768,17.314Z" transform="translate(0 -5.734)" fill="#dc8b40" stroke="#b4b4b4" stroke-width="0.2"/>
    <path id="Path_5168" data-name="Path 5168" d="M20.13,4.221a2.9,2.9,0,0,0-4.1,0L14.277,5.976a.443.443,0,0,0,.278.755A.448.448,0,0,0,14.9,6.6l1.758-1.753A2.007,2.007,0,0,1,19.5,7.69l-1.89,1.89a2,2,0,0,1-.314.256,2.025,2.025,0,0,1-.408.207,1.929,1.929,0,0,1-.413.1,1.954,1.954,0,0,1-.281.019c-.039,0-.08,0-.127-.006a1.98,1.98,0,0,1-1.742-1.281.44.44,0,0,0-.526-.27.445.445,0,0,0-.311.565,2.517,2.517,0,0,0,.653,1.033h0l.006.006a2.9,2.9,0,0,0,1.744.829,2.844,2.844,0,0,0,.306.017q.107,0,.215-.008a3.15,3.15,0,0,0,.532-.088,2.866,2.866,0,0,0,.537-.2,2.831,2.831,0,0,0,.763-.548l1.89-1.89a2.9,2.9,0,0,0-.006-4.1Z" transform="translate(-6.009)" fill="#dc8b40" stroke="#b4b4b4" stroke-width="0.2"/>
  </g>
</svg>
