<svg id="Component_198_331" data-name="Component 198 – 331" xmlns="http://www.w3.org/2000/svg" width="43" height="36" viewBox="0 0 43 36">
  <circle id="Ellipse_411" cx="18" cy="18" r="18" fill="#fff" opacity="0.2"/>
  <path id="Union_130" d="M15.2,15.464H0a.5.5,0,1,1,0-1H15.2a.5.5,0,0,1,0,1Zm-1.448-2.1H1.447a.5.5,0,1,1,0-1h12.3a.5.5,0,1,1,0,1Zm-1.086-2.079H10.493a.5.5,0,0,1,0-1h.585V7.038h-.585a.5.5,0,0,1,0-1h2.171a.5.5,0,1,1,0,1h-.585v3.248h.585a.5.5,0,0,1,0,1Zm-3.98,0H6.513a.5.5,0,0,1,0-1H7.1V7.038H6.513a.5.5,0,0,1,0-1H8.684a.5.5,0,0,1,0,1H8.1v3.248h.585a.5.5,0,0,1,0,1Zm-3.981,0H2.533a.5.5,0,0,1,0-1h.585V7.038H2.533a.5.5,0,0,1,0-1H4.7a.5.5,0,0,1,0,1H4.118v3.248H4.7a.5.5,0,0,1,0,1ZM15.178,5.052H.062a.5.5,0,0,1-.5-.5V3.73a.5.5,0,0,1,.282-.45C-.111,3.258,4.351,1.1,5.681.388A4.075,4.075,0,0,1,7.59-.233,3.844,3.844,0,0,1,9.484.393c.65.364,1.5.76,2.494,1.219,1.064.493,2.27,1.052,3.436,1.677a.5.5,0,0,1,.264.441v.823A.5.5,0,0,1,15.178,5.052Zm-14.615-1H14.678V4.03c-1.059-.556-2.15-1.061-3.12-1.511C10.55,2.052,9.679,1.648,9,1.266A2.992,2.992,0,0,0,7.59.767a3.17,3.17,0,0,0-1.44.5C4.985,1.891,1.577,3.55.562,4.043Z" transform="translate(10.398 9.385)" fill="#fff"/>
  <circle id="Ellipse_417" cx="8" cy="8" r="8" transform="translate(27 10)" fill="#fff"/>
  <g id="Icon_ionic-ios-link" transform="translate(27.625 10.625)">
    <path id="Path_5167" d="M8.337,16.351l-.026,0a.354.354,0,0,0-.205.1L6.724,17.831a1.558,1.558,0,0,1-2.2-2.2l1.467-1.467a1.548,1.548,0,0,1,.244-.2,1.572,1.572,0,0,1,.317-.16,1.5,1.5,0,0,1,.321-.079,1.516,1.516,0,0,1,.218-.015c.03,0,.06,0,.1,0a1.553,1.553,0,0,1,1,.449,1.533,1.533,0,0,1,.366.584.337.337,0,0,0,.413.216l.006,0s0,0,0,0a.334.334,0,0,0,.225-.408,1.938,1.938,0,0,0-.526-.877,2.251,2.251,0,0,0-1.232-.627c-.041-.006-.081-.013-.122-.017a2.207,2.207,0,0,0-.237-.013c-.056,0-.111,0-.165.006a2.157,2.157,0,0,0-.346.053c-.024,0-.045.011-.068.017a2.224,2.224,0,0,0-.417.156,2.2,2.2,0,0,0-.592.426L4.027,15.141a2.256,2.256,0,0,0-.652,1.593,2.249,2.249,0,0,0,3.837,1.589l1.4-1.4A.338.338,0,0,0,8.337,16.351Z" transform="translate(0 -6.609)" fill="#666" stroke="#666" stroke-width="0.2"/>
    <path id="Path_5168" d="M18.638,4.032a2.254,2.254,0,0,0-3.18,0L14.1,5.394a.344.344,0,0,0,.216.586.347.347,0,0,0,.272-.1l1.364-1.36a1.558,1.558,0,0,1,2.2,2.2L16.683,8.191a1.548,1.548,0,0,1-.244.2,1.572,1.572,0,0,1-.317.16,1.5,1.5,0,0,1-.321.079,1.517,1.517,0,0,1-.218.015c-.03,0-.062,0-.1,0a1.537,1.537,0,0,1-1.352-.994.342.342,0,0,0-.408-.21.346.346,0,0,0-.242.438,1.953,1.953,0,0,0,.507.8h0l0,0a2.252,2.252,0,0,0,1.354.644,2.207,2.207,0,0,0,.237.013q.083,0,.167-.006a2.445,2.445,0,0,0,.413-.068,2.224,2.224,0,0,0,.417-.156,2.2,2.2,0,0,0,.592-.426l1.467-1.467a2.251,2.251,0,0,0,0-3.182Z" transform="translate(-6.924)" fill="#666" stroke="#666" stroke-width="0.2"/>
  </g>
</svg>
