<svg xmlns="http://www.w3.org/2000/svg" width="143.921" height="30" viewBox="0 0 143.921 30">
  <g id="Group_8477" data-name="Group 8477" transform="translate(-524.618 -478.615)">
    <g id="Group_2" data-name="Group 2" transform="translate(524.618 478.615)">
      <path id="Path_4" data-name="Path 4" d="M595.063,479.233c-18.8,9.934-37.6-6.933-70.445,2.2h0v26.13c32.84-9.131,51.646,7.736,70.445-2.2v-26.13" transform="translate(-524.618 -478.615)" fill="#55a846"/>
      <rect id="Rectangle_1" data-name="Rectangle 1" width="73.476" height="26.01" transform="translate(70.445 0.624)" fill="#0166a2"/>
    </g>
    <g id="Group_3" data-name="Group 3" transform="translate(530.213 487.797)">
      <path id="Path_5" data-name="Path 5" d="M550.455,527.8h-2.763V517.581h2.638v1.247a2.754,2.754,0,0,1,1.247-1.122,3.938,3.938,0,0,1,1.745-.416,3.045,3.045,0,0,1,3.033,1.7,3.615,3.615,0,0,1,3.241-1.7,3.531,3.531,0,0,1,3.7,3.885V527.8h-2.68v-6.066a2.105,2.105,0,0,0-.447-1.4,1.682,1.682,0,0,0-1.361-.53,1.75,1.75,0,0,0-1.371.581,2.075,2.075,0,0,0-.519,1.433V527.8h-2.742v-6.066a2.075,2.075,0,0,0-.457-1.4,1.687,1.687,0,0,0-1.35-.53,1.788,1.788,0,0,0-1.392.571,2.064,2.064,0,0,0-.519,1.444Z" transform="translate(-547.692 -517.269)" fill="#fff"/>
      <path id="Path_6" data-name="Path 6" d="M621.961,518.742a5.547,5.547,0,0,1,7.666,0,5.706,5.706,0,0,1,0,7.77,5.547,5.547,0,0,1-7.666,0,5.705,5.705,0,0,1,0-7.77Zm1.994,6.025a2.583,2.583,0,0,0,3.677,0,3.4,3.4,0,0,0,0-4.28,2.583,2.583,0,0,0-3.677,0,3.4,3.4,0,0,0,0,4.28Z" transform="translate(-602.796 -517.205)" fill="#fff"/>
      <path id="Path_7" data-name="Path 7" d="M676.405,521.988v5.879h-2.763V517.646h2.68v1.267a2.852,2.852,0,0,1,1.246-1.142,3.842,3.842,0,0,1,1.7-.395,3.383,3.383,0,0,1,2.753,1.132,4.4,4.4,0,0,1,.945,2.919v6.44h-2.763V521.9a2.228,2.228,0,0,0-.467-1.475,1.994,1.994,0,0,0-2.815.042A2.24,2.24,0,0,0,676.405,521.988Z" transform="translate(-643.103 -517.335)" fill="#fff"/>
      <path id="Path_8" data-name="Path 8" d="M728.133,524.123l2.306.686a4.407,4.407,0,0,1-1.631,2.327,4.886,4.886,0,0,1-3.023.914,5.181,5.181,0,0,1-3.74-1.486,5.841,5.841,0,0,1-.042-7.853,4.813,4.813,0,0,1,3.532-1.506,4.866,4.866,0,0,1,3.708,1.413,5.416,5.416,0,0,1,1.34,3.885q0,.167-.01.374c-.007.139-.01.25-.01.332l-.021.146H723.23a2.267,2.267,0,0,0,.79,1.662,2.6,2.6,0,0,0,1.787.665A2.24,2.24,0,0,0,728.133,524.123Zm-4.841-2.659h4.571a2.126,2.126,0,0,0-.613-1.434,2.244,2.244,0,0,0-1.672-.582,2.193,2.193,0,0,0-1.62.623A2.1,2.1,0,0,0,723.293,521.464Z" transform="translate(-678.606 -517.205)" fill="#fff"/>
      <path id="Path_9" data-name="Path 9" d="M769.838,532.742h-2.929l2.41-5.318-4.342-8.933h3.1l2.722,5.983,2.514-5.983h2.95Z" transform="translate(-712.291 -518.178)" fill="#fff"/>
    </g>
    <g id="Group_4" data-name="Group 4" transform="translate(595.966 483.396)">
      <path id="Path_10" data-name="Path 10" d="M824.228,519.875a2.477,2.477,0,0,0-1.849.769,3.314,3.314,0,0,0,.01,4.207,2.5,2.5,0,0,0,1.86.779,2.282,2.282,0,0,0,1.558-.509,2.548,2.548,0,0,0,.789-1.215l2.431.81a4.63,4.63,0,0,1-1.62,2.431,4.831,4.831,0,0,1-3.158,1.018,5.289,5.289,0,0,1-5.381-5.422,5.286,5.286,0,0,1,1.527-3.885,5.105,5.105,0,0,1,3.771-1.537,4.928,4.928,0,0,1,3.2,1.008,4.464,4.464,0,0,1,1.6,2.441l-2.472.831A2.161,2.161,0,0,0,824.228,519.875Z" transform="translate(-818.868 -512.812)" fill="#fff"/>
      <path id="Path_11" data-name="Path 11" d="M867.091,518.858a5.547,5.547,0,0,1,7.666,0,5.706,5.706,0,0,1,0,7.77,5.547,5.547,0,0,1-7.666,0,5.705,5.705,0,0,1,0-7.77Zm1.994,6.025a2.583,2.583,0,0,0,3.677,0,3.4,3.4,0,0,0,0-4.28,2.583,2.583,0,0,0-3.677,0,3.4,3.4,0,0,0,0,4.28Z" transform="translate(-854.242 -512.812)" fill="#fff"/>
      <path id="Path_12" data-name="Path 12" d="M921.535,522.1v5.879h-2.763V517.762h2.68v1.267a2.851,2.851,0,0,1,1.247-1.143,3.842,3.842,0,0,1,1.7-.395,3.384,3.384,0,0,1,2.753,1.132,4.4,4.4,0,0,1,.945,2.919v6.44h-2.763v-5.962a2.229,2.229,0,0,0-.468-1.475,1.994,1.994,0,0,0-2.815.041A2.242,2.242,0,0,0,921.535,522.1Z" transform="translate(-894.548 -512.942)" fill="#fff"/>
      <path id="Path_13" data-name="Path 13" d="M968.517,506.011v3.054h2.057v2.451h-2.057v4.28a1.2,1.2,0,0,0,.291.914,1.309,1.309,0,0,0,.914.27,3.292,3.292,0,0,0,.852-.083v2.285a4.124,4.124,0,0,1-1.558.249,3.267,3.267,0,0,1-2.368-.841,3.066,3.066,0,0,1-.873-2.316v-4.758h-1.849v-2.451h.519a1.5,1.5,0,0,0,1.174-.447,1.678,1.678,0,0,0,.4-1.174v-1.434Z" transform="translate(-928.754 -504.245)" fill="#fff"/>
      <path id="Path_14" data-name="Path 14" d="M1006.657,518.3v2.784a4.256,4.256,0,0,0-.831-.083,2.7,2.7,0,0,0-1.911.675,2.9,2.9,0,0,0-.727,2.212v4.674h-2.763V518.346h2.68v1.516a2.9,2.9,0,0,1,2.908-1.6Q1006.242,518.263,1006.657,518.3Z" transform="translate(-956.402 -513.526)" fill="#fff"/>
      <path id="Path_15" data-name="Path 15" d="M1032.11,518.858a5.547,5.547,0,0,1,7.666,0,5.706,5.706,0,0,1,0,7.77,5.547,5.547,0,0,1-7.666,0,5.706,5.706,0,0,1,0-7.77Zm1.995,6.025a2.584,2.584,0,0,0,3.677,0,3.4,3.4,0,0,0,0-4.28,2.583,2.583,0,0,0-3.677,0,3.4,3.4,0,0,0,0,4.28Z" transform="translate(-979.248 -512.812)" fill="#fff"/>
      <path id="Path_16" data-name="Path 16" d="M1086.553,513.769h-2.763V498.728h2.763Z" transform="translate(-1019.554 -498.728)" fill="#fff"/>
    </g>
  </g>
</svg>
