<svg id="Component_114_5" data-name="Component 114 – 5" xmlns="http://www.w3.org/2000/svg" width="60" height="60" viewBox="0 0 60 60">
  <circle id="Ellipse_321" cx="30" cy="30" r="30"/>
  <g id="apple-black" transform="translate(21.008 18.851)">
    <g id="Icons">
      <g id="Black">
        <path id="Apple" d="M215.967,563.431A4.655,4.655,0,0,0,216.99,560a4.966,4.966,0,0,0-3.213,1.739,4.306,4.306,0,0,0-1.051,3.347A4.186,4.186,0,0,0,215.967,563.431Zm6.088,12.077a15.3,15.3,0,0,1-1.365,2.563c-.886,1.359-2.135,3.05-3.684,3.062-1.375.015-1.73-.9-3.6-.89s-2.256.907-3.633.893c-1.548-.014-2.732-1.54-3.618-2.9-2.478-3.8-2.739-8.252-1.211-10.622a5.485,5.485,0,0,1,4.413-2.667c1.64,0,2.671.9,4.029.9,1.317,0,2.118-.907,4.015-.907a5.35,5.35,0,0,1,4.039,2.144,4.659,4.659,0,0,0,.612,8.417Z" transform="translate(-204 -560)" fill="#fff" fill-rule="evenodd"/>
      </g>
    </g>
  </g>
</svg>
