<svg xmlns="http://www.w3.org/2000/svg" width="59.004" height="58.736" viewBox="0 0 59.004 58.736">
  <g id="Group_4362" data-name="Group 4362" transform="translate(-703.999 -227.998)">
    <path id="Union_105" data-name="Union 105" d="M7056,19081.734a3,3,0,0,1-3-3v-33l7.619-6.033v-8.668h10.942l-2.524,2h-6.422v17.732l17.551,12.293a14.964,14.964,0,0,0,2.567,1.527,17.121,17.121,0,0,0,2.28-1.537l16.732-11.785v-13.658l0,0v-4.568h-5.761l-2.523-2h10.286v8.154l8.261,6.547v33a3,3,0,0,1-3,3Zm-1-3a1,1,0,0,0,1,1h53a1,1,0,0,0,1-1v-30.84l-6.259,4.41-2,1.408-15.545,10.951c-2.572,2-3.3,2-3.539,2h-.21l-.192-.088a17.475,17.475,0,0,1-3.261-1.887l-16.383-11.479-2-1.4-5.618-3.936Zm48.741-28.877,5.421-3.822-5.421-4.295Zm-47.889-3.826,4.765,3.338v-7.111Zm36.9-12.992h-23.72l2.529-2,6.833-5.412s3.012-2.609,4.085-2.625a1.113,1.113,0,0,1,.163.025.31.31,0,0,1,.072.014c.053.014.115.039.177.063a.494.494,0,0,1,.11.039,1.693,1.693,0,0,1,.192.09c.048.023.091.039.144.068.086.047.177.1.268.148.034.018.063.037.1.057a35.428,35.428,0,0,1,3.688,2.734l6.058,4.8,2.523,2Zm-13.045-5.906-.072.059-4.856,3.846h15.454l-4.138-3.275a28.271,28.271,0,0,0-3.625-2.664A20.118,20.118,0,0,0,7079.711,19027.131Z" transform="translate(-6349 -18795)" fill="#fff"/>
    <g id="Group_5471" data-name="Group 5471" transform="translate(0.002 0.447)">
      <ellipse id="Ellipse_408" data-name="Ellipse 408" cx="7.567" cy="7.566" rx="7.567" ry="7.566" transform="translate(726.43 242.934)" fill="none" stroke="#42bc42" stroke-width="2"/>
      <path id="Path_3590" data-name="Path 3590" d="M169.467,406.972l2.221,2.173,4.266-4.494" transform="translate(561.504 -156.572)" fill="none" stroke="#42bc42" stroke-linecap="round" stroke-linejoin="round" stroke-width="2"/>
    </g>
  </g>
</svg>
