<svg xmlns="http://www.w3.org/2000/svg" width="14.559" height="13.764" viewBox="0 0 14.559 13.764">
  <path id="Icon_awesome-crown" data-name="Icon awesome-crown" d="M10.593,2.29a.859.859,0,0,0-.859.859.841.841,0,0,0,.079.354l-1.3.777a.572.572,0,0,1-.791-.208L6.268,1.521a.859.859,0,1,0-1.084,0L3.726,4.073a.572.572,0,0,1-.791.208L1.641,3.5a.859.859,0,1,0-.782.5A.877.877,0,0,0,1,3.994L2.29,9.282H9.162l1.294-5.288a.877.877,0,0,0,.138.014.859.859,0,0,0,0-1.718Z" transform="translate(0 5.726) rotate(-30)" fill="#009a00"/>
</svg>
