<svg id="bell-blue" xmlns="http://www.w3.org/2000/svg" width="30.276" height="27.27" viewBox="0 0 30.276 27.27">
  <path id="Union_9" data-name="Union 9" d="M14.917,27.267a13.453,13.453,0,0,1-9.594-4.1A14.041,14.041,0,0,1,2.909,19.8q-.1-.2-.195-.4A7.817,7.817,0,0,1,.488,19.7a.858.858,0,0,1-.4-1.143l1.564-3.268a.859.859,0,0,1,1.3-.306L5.821,17.23a.858.858,0,0,1-.334,1.511c-.081.019-.612.154-1.3.318a12.508,12.508,0,0,0,2.192,3.084,12.01,12.01,0,0,0,8.57,3.655,11.829,11.829,0,0,0,8.83-3.547,11.121,11.121,0,0,0,3.295-6.173.734.734,0,0,1,.73-.66c.024,0,.048,0,.073,0a.734.734,0,0,1,.658.8,12.793,12.793,0,0,1-3.714,7.063,13.267,13.267,0,0,1-9.59,3.982Zm-2.046-8.718h1.468c0,.387.691.716,1.222.716s1.169-.328,1.169-.716H18.2a2.516,2.516,0,0,1-2.637,2.185C14.212,20.734,12.871,19.754,12.871,18.549Zm7.375-.564H10.938a1.577,1.577,0,0,1-1.395-.561,1.309,1.309,0,0,1,.106-1.318c.015-.031.032-.06.046-.091l0-.008c.127-.25.265-.494.4-.73a4.486,4.486,0,0,0,.732-1.8V11.158a4.823,4.823,0,0,1,1.36-3.384,4.683,4.683,0,0,1,8.033,3.384v2.321a4.675,4.675,0,0,0,.952,2.109c.094.139.175.26.237.364a1.274,1.274,0,0,1,.138,1.338,1.54,1.54,0,0,1-1.291.695ZM12.3,11.158v2.321a5.43,5.43,0,0,1-.921,2.514c-.1.172-.2.35-.288.524h8.939l-.072-.107a5.686,5.686,0,0,1-1.2-2.931V11.158a3.229,3.229,0,1,0-6.455,0Zm15.1,1.074-2.8-2.188a.835.835,0,0,1,.326-1.474c.079-.018.593-.149,1.261-.308a12.515,12.515,0,0,0-2.216-3.135A12.015,12.015,0,0,0,15.4,1.47l-.279,0a11.819,11.819,0,0,0-8.551,3.55,11.129,11.129,0,0,0-3.295,6.173.734.734,0,0,1-.729.66c-.026,0-.049,0-.074,0a.734.734,0,0,1-.658-.8A12.781,12.781,0,0,1,5.528,3.982,13.259,13.259,0,0,1,15.116,0l.313,0A13.451,13.451,0,0,1,25.02,4.1a13.977,13.977,0,0,1,2.414,3.369q.115.227.219.454a7.527,7.527,0,0,1,2.147-.3.836.836,0,0,1,.393,1.116l-1.526,3.188a.836.836,0,0,1-1.27.3Z" transform="translate(0 0)" fill="#0065a1"/>
</svg>
