<svg xmlns="http://www.w3.org/2000/svg" role="img" viewBox="20.28 25.91 78.69 95.81">
    <defs>
        <clipPath id="clip-path">
            <circle id="Ellipse_374" cx="60" cy="60" r="60" fill="#fff" stroke="#707070"
                stroke-width="1" transform="translate(439.5 978.234)" />
        </clipPath>
    </defs>
    <g id="Mask_Group_9" clip-path="url(#clip-path)" transform="translate(-439.5 -978.234)">
        <g id="Group_2839" transform="translate(461.731 947.387)">
            <path id="Path_7589" fill="#f2c9c9"
                d="M491.181,966.9c0,1.989-14.624,3.6-32.663,3.6s-32.663-1.612-32.663-3.6,14.624-3.6,32.663-3.6,32.663,1.613,32.663,3.6"
                transform="translate(-415.641 -762.377)" />
            <path id="Rectangle_1777" fill="#875c43" d="M0 0H18.522V29.683H0z"
                transform="translate(28.938 126.681)" />
            <path id="Path_7590" fill="#875c43" d="M449.492,774.253l5.408-12.442-3.288-1.441Z"
                transform="translate(-429.3 -645.118)" />
            <path id="Path_7591" fill="#ff9e9e"
                d="M449.195,758.663l5.759,2.523-.178,3.057-6.619-1.227Z"
                transform="translate(-428.528 -644.131)" />
            <path id="Path_7592" fill="#cc5656"
                d="M457.541,765.4l2.15.4.178-3.057-3.163-1.386a6.855,6.855,0,0,0,.835,4.045"
                transform="translate(-433.444 -645.688)" />
            <path id="Path_7593" fill="#b5815a"
                d="M436.618,716.287l-6.216,8.9,2.434,1.068L429.927,739.8l-11.67-7.376a5.632,5.632,0,0,1-1.475-8.168l17.869-23.512Z"
                transform="translate(-409.735 -610.661)" />
            <path id="Path_7594" fill="#875c43" d="M455.685,727.356l2.592-17.568,1.484,11.728Z"
                transform="translate(-432.879 -615.89)" />
            <path id="Path_7595" fill="#875c43"
                d="M443.436,753.027c-1.6-.04-3.723-.892-4.425.217l4.91,1.944,1.725-2.471a7.481,7.481,0,0,1-2.21.309"
                transform="translate(-423.244 -640.673)" />
            <path id="Path_7596" fill="#dbccb8" d="M472.367,723.73H489L485,694.819h-9.083Z"
                transform="translate(-442.518 -607.24)" />
            <path id="Path_7597" fill="#c7b9a7"
                d="M480.076,722.762c-.926-2.329.393-7.179-1.453-9.9s-2.994-12.45-2.994-12.45l-3.262,26.549h15.1s-5.993-.693-7.388-4.2"
                transform="translate(-442.518 -610.473)" />
            <path id="Path_7598" fill="#104a4f"
                d="M471.3,778.857h2.315l6.987,56.932h7.183s.238-15.316,0-22.618-2.161-10.627-2.161-10.627,1.686-23.33-1.757-39.241H462.678a60.487,60.487,0,0,0-3.206,19.235,148.873,148.873,0,0,0,2.078,21.134,56.511,56.511,0,0,0,.3,12.229c.891,7.064,2.909,19.887,2.909,19.887h7.658s-.713-25.23-.713-31.226-.4-25.706-.4-25.706"
                transform="translate(-435.065 -646.813)" />
            <path id="Path_7599" fill="#0b3236"
                d="M487.8,813.665c0-.167-.009-.335-.015-.495-.237-7.3-2.161-10.627-2.161-10.627s1.686-23.33-1.757-39.241H462.678a60.487,60.487,0,0,0-3.206,19.235,127.155,127.155,0,0,0,.9,12.862c3.1,2.006,8.75,6.018,11.337,10.12,0-.358,0-.679,0-.958,0-6-.4-25.706-.4-25.706h2.315l2.519,20.522a7.858,7.858,0,0,0,2.894,5.18c3.036,2.427,6.921,5.909,8.772,9.106"
                transform="translate(-435.065 -646.813)" />
            <path id="Line_19" fill="none" stroke="#104a4f" stroke-width=".475" d="M0 0L12.405 0"
                transform="translate(32.54 117.776)" />
            <path id="Line_20" fill="none" stroke="#104a4f" stroke-width=".475" d="M0 0L0 14.268"
                transform="translate(37.923 117.776)" />
            <path id="Line_21" fill="none" stroke="#104a4f" stroke-width=".475" d="M0 0.673L6.411 0"
                transform="translate(35.39 129.808)" />
            <path id="Path_7600" fill="none" stroke="#104a4f" stroke-width=".475"
                d="M487.086,766.35v8.332a3.158,3.158,0,0,0,1.142,2.431l.718.6"
                transform="translate(-451.024 -648.574)" />
            <path id="Path_7601" fill="#f2dcdc"
                d="M489.28,769.41a.436.436,0,1,1-.436-.435.435.435,0,0,1,.436.435"
                transform="translate(-451.788 -650.091)" />
            <path id="Path_7602" fill="#f2dcdc"
                d="M489.28,777.315a.436.436,0,1,1-.436-.435.436.436,0,0,1,.436.435"
                transform="translate(-451.788 -654.658)" />
            <path id="Path_7603" fill="#f2dcdc"
                d="M489.28,785.22a.436.436,0,1,1-.436-.435.435.435,0,0,1,.436.435"
                transform="translate(-451.788 -659.226)" />
            <path id="Path_7604" fill="#875c43"
                d="M559.541,736a27.3,27.3,0,0,0-8.262-10.082l-1.2,1.9Z"
                transform="translate(-487.424 -625.212)" />
            <path id="Path_7605" fill="#fff"
                d="M569.956,711.739a7.737,7.737,0,0,0-4.215,0l1.437-6.093a7.737,7.737,0,0,1,4.215,0l-1.437,6.093"
                transform="translate(-496.474 -613.327)" />
            <path id="Path_7606" fill="#fff"
                d="M559.972,711.739a7.737,7.737,0,0,0-4.215,0q.718-3.047,1.437-6.093a7.737,7.737,0,0,1,4.215,0q-.718,3.047-1.437,6.093"
                transform="translate(-490.705 -613.327)" />
            <path id="Path_7607" fill="#ff9e9e"
                d="M549.209,717.727l3.3-5.244,3.166-2.493.337-1.84h.5l.075-.594h.574v2.434l1.622-2.553.336.336-.266.681.325.308-1.207,3.205-3.879,2.256-1.425,6.748Z"
                transform="translate(-486.921 -614.531)" />
            <path id="Line_22" fill="none" stroke="#2b4a57" stroke-width=".475" d="M1.224 0L0 2.59"
                transform="translate(70.717 93.924)" />
            <path id="Line_23" fill="none" stroke="#2b4a57" stroke-width=".475" d="M0 2.371L0.198 0"
                transform="translate(69.401 93.618)" />
            <path id="Path_7608" fill="#b5815a"
                d="M518.036,700.739l6.834,14.658,1.319.653.343,1.247,2.882-4.268,9.328,8.424-9.762,10.981a4.648,4.648,0,0,1-6.195.68l-.956-.691a7.407,7.407,0,0,1-2.535-3.24l-5.208-12.953Z"
                transform="translate(-466.625 -610.661)" />
            <path id="Line_24" fill="none" stroke="#694734" stroke-width=".5" d="M4.467 0L0 6.633"
                transform="translate(55.44 106.635)" />
            <path id="Line_25" fill="none" stroke="#694734" stroke-width=".5" d="M5.811 0L0 3.655"
                transform="translate(53.414 106.441)" />
            <path id="Line_26" fill="none" stroke="#694734" stroke-width=".5" d="M7.866 0L0 9.32"
                transform="translate(61.392 108.209)" />
            <path id="Path_7609" fill="#f2dcdc"
                d="M562.117,752.094a.416.416,0,1,1-.415-.415.415.415,0,0,1,.415.415"
                transform="translate(-493.9 -640.096)" />
            <path id="Path_7610" fill="#f2dcdc"
                d="M556.495,758.562a.416.416,0,1,1-.416-.415.416.416,0,0,1,.416.415"
                transform="translate(-490.65 -643.834)" />
            <path id="Path_7611" fill="#875c43"
                d="M520.471,739.978a7.379,7.379,0,0,0,.745,1.4l-2.35-21.952-2.743,9.741Z"
                transform="translate(-467.802 -621.457)" />
            <path id="Path_7612" fill="#735879"
                d="M468.038,671.674l16.3,2.593a5.16,5.16,0,0,0-1.423-5.036,3.161,3.161,0,0,0-.735-3.693c.171-2.017-1.433-3.715-4.245-3.862-2.274-2.015-6.439-.393-5.741,2.964a3.143,3.143,0,0,0-1.792,3.141c-2.015.762-2.362,3.892-2.362,3.892"
                transform="translate(-440.017 -587.579)" />
            <path id="Path_7613" fill="#ff9e9e"
                d="M487.521,682.621l-1.009-6.281-3.8,3.186.241,2.947a1.181,1.181,0,0,1-.807,1.218l-1.363.45,4.542,7.836,4.542-7.836-1.594-.6a1.182,1.182,0,0,1-.749-.918"
                transform="translate(-447.38 -596.562)" />
            <path id="Path_7614" fill="#b5815a"
                d="M459.369,693.753l-1.8,69.152a2.848,2.848,0,0,1-2.847,2.774H441.367l9.406-40.534L449.52,696.7Z"
                transform="translate(-424.605 -606.624)" />
            <path id="Line_27" fill="none" stroke="#694734" stroke-width=".5" d="M0 0L6.609 0"
                transform="translate(26.841 118.522)" />
            <path id="Line_28" fill="none" stroke="#694734" stroke-width=".5" d="M0 0L7.203 0"
                transform="translate(26.247 120.507)" />
            <path id="Path_7615" fill="none" stroke="#694734" stroke-width=".5"
                d="M476.241,694.861l-4.643,3.732a.439.439,0,0,0,.036.71l3.063,1.981-2.678-.719a.439.439,0,0,0-.546.5l3.907,23.389"
                transform="translate(-441.979 -607.264)" />
            <path id="Rectangle_1778" fill="#875c43" d="M0 0H8.667V1.108H0z"
                transform="rotate(-53.458 147.149 42.833)" />
            <path id="Path_7616" fill="#b5815a"
                d="M500.115,693.753l1.8,69.152a2.848,2.848,0,0,0,2.847,2.774h13.359l-9.406-40.534,1.253-28.444Z"
                transform="translate(-458.552 -606.624)" />
            <path id="Line_29" fill="none" stroke="#694734" stroke-width=".5" d="M6.609 0L0 0"
                transform="translate(42.876 118.522)" />
            <path id="Line_30" fill="none" stroke="#694734" stroke-width=".5" d="M7.203 0L0 0"
                transform="translate(42.876 120.507)" />
            <path id="Path_7617" fill="none" stroke="#694734" stroke-width=".5"
                d="M501.3,694.861l4.643,3.732a.439.439,0,0,1-.036.71l-3.063,1.981,2.678-.719a.439.439,0,0,1,.546.5l-3.907,23.389"
                transform="translate(-459.239 -607.264)" />
            <path id="Rectangle_1779" fill="#875c43" d="M0 0H1.108V8.667H0z"
                transform="rotate(-36.543 218.308 -3.757)" />
            <path id="Line_31" fill="none" stroke="#2b4a57" stroke-width=".475" d="M0 1.227L2.055 0"
                transform="translate(38.163 87.579)" />
            <path id="Line_32" fill="none" stroke="#c7b9a7" stroke-width=".475" d="M5.481 0L0 9.103"
                transform="translate(35.33 94.743)" />
            <path id="Path_7618" fill="#ff9e9e"
                d="M475.207,935.85l-.168,7.341a7.1,7.1,0,0,1,.93,3.226c-.04,1.583-.851,3.285-.772,4.908h-.831v-3.9a14.637,14.637,0,0,1-2.652,2.928,16.728,16.728,0,0,1-4.647,1.027.507.507,0,0,1-.316-.924l2.109-1.439a1.72,1.72,0,0,0,.56-.635l1.936-3.773a1.3,1.3,0,0,0,.135-.742l-1.35-8.019Z"
                transform="translate(-439.145 -746.518)" />
            <path id="Path_7619" fill="#cc5656"
                d="M467.067,961.431a16.758,16.758,0,0,0,4.647-1.027,14.643,14.643,0,0,0,2.652-2.929v3.9h.831c-.079-1.622.732-3.324.772-4.907a7.093,7.093,0,0,0-.93-3.225c-.773.323-1.117,1.446-1.251,2.069a1.671,1.671,0,0,1-.4.78l-1.416,1.544a3.212,3.212,0,0,1-2.244.2l-.307.6a1.721,1.721,0,0,1-.56.635l-2.109,1.439a.507.507,0,0,0,.316.925"
                transform="translate(-439.145 -756.568)" />
            <path id="Path_7620" fill="#ff9e9e"
                d="M512.421,935.85l1.2,7.341a7.1,7.1,0,0,0-.93,3.226c.04,1.583.851,3.285.772,4.908h.831v-3.9a14.637,14.637,0,0,0,2.652,2.928,16.73,16.73,0,0,0,4.647,1.027.507.507,0,0,0,.316-.924l-2.109-1.439a1.719,1.719,0,0,1-.56-.635l-1.936-3.773a1.3,1.3,0,0,1-.135-.742l.315-8.019Z"
                transform="translate(-465.663 -746.518)" />
            <path id="Path_7621" fill="#cc5656"
                d="M521.967,961.431a16.757,16.757,0,0,1-4.647-1.027,14.643,14.643,0,0,1-2.652-2.929v3.9h-.831c.079-1.622-.732-3.324-.772-4.907a7.094,7.094,0,0,1,.93-3.225c.773.323,1.117,1.446,1.251,2.069a1.672,1.672,0,0,0,.4.78l1.416,1.544a3.212,3.212,0,0,0,2.244.2l.307.6a1.719,1.719,0,0,0,.56.635l2.109,1.439a.507.507,0,0,1-.316.925"
                transform="translate(-466.035 -756.568)" />
            <path id="Line_33" fill="none" stroke="#694734" stroke-width=".5" d="M11.09 5.075L0 0"
                transform="translate(10.515 118.084)" />
            <path id="Path_7622" fill="#f2dcdc"
                d="M442.81,778.02a.415.415,0,1,1,.289-.512.415.415,0,0,1-.289.512"
                transform="translate(-425.134 -654.846)" />
            <path id="Path_7623" fill="#f2dcdc"
                d="M435.07,774.341a.415.415,0,1,1,.289-.512.415.415,0,0,1-.289.512"
                transform="translate(-420.662 -652.72)" />
            <path id="Line_34" fill="none" stroke="#694734" stroke-width=".5" d="M0 16.14L0.711 0"
                transform="translate(50.44 95.989)" />
            <path id="Path_7624" fill="#ff9e9e"
                d="M460.606,759.793l3.659.668-.72,4.606-2.671-.826A1.327,1.327,0,0,1,460,763.1l-.051-2.733a.526.526,0,0,1,.657-.572"
                transform="translate(-435.342 -644.778)" />
            <path id="Line_35" fill="none" stroke="#2b4a57" stroke-width=".475" d="M0 0L3.739 0.798"
                transform="translate(25.013 115.978)" />
            <path id="Line_36" fill="none" stroke="#2b4a57" stroke-width=".475" d="M0 0L3.739 0.798"
                transform="translate(24.934 117.228)" />
            <path id="Line_37" fill="none" stroke="#2b4a57" stroke-width=".475" d="M0 0L3.514 0.75"
                transform="translate(24.855 118.478)" />
            <path id="Line_38" fill="none" stroke="#694734" stroke-width=".5" d="M6.926 2.77L0 0"
                transform="translate(13.741 111.761)" />
            <path id="Line_39" fill="none" stroke="#694734" stroke-width=".5" d="M0.591 13.425L0 0"
                transform="translate(25.056 93.28)" />
            <path id="Path_7625" fill="#cc5656"
                d="M488.966,679.511s.32,3.981-3.369,4.856l-.246-3.008Z"
                transform="translate(-450.021 -598.394)" />
            <path id="Path_7626" fill="#ff9e9e"
                d="M484.124,667.36s-.812,3.217,2.107,4.262a3.772,3.772,0,0,1-4.173,3.3,2.47,2.47,0,0,1-1.642-4.17c.027-.535.1-2.033.1-2.033a10.388,10.388,0,0,0,3.612-1.363"
                transform="translate(-446.776 -591.373)" />
            <path id="Path_7627" fill="#ff9e9e"
                d="M494.7,677.363a.975.975,0,1,1-.046-1.527,1.1,1.1,0,0,1,.046,1.527"
                transform="translate(-454.376 -596.181)" />
            <path id="Path_7628" fill="#2b4a57"
                d="M482.719,673.118c-.038.243-.182.422-.319.4s-.218-.237-.179-.48.182-.422.319-.4.218.237.179.479"
                transform="translate(-448.206 -594.422)" />
            <path id="Path_7629" fill="#2b4a57"
                d="M487.811,673.929c-.038.243-.182.422-.319.4s-.218-.237-.179-.479.182-.422.319-.4.218.237.179.479"
                transform="translate(-451.149 -594.891)" />
            <path id="Path_7630" fill="none" stroke="#2b4a57" stroke-width=".5"
                d="M482.361,671.537a1.845,1.845,0,0,1,.979.218"
                transform="translate(-448.293 -593.783)" />
            <path id="Path_7631" fill="none" stroke="#2b4a57" stroke-width=".5"
                d="M487.169,672.391a1.844,1.844,0,0,1,.979.218"
                transform="translate(-451.072 -594.277)" />
            <path id="Path_7632" fill="none" stroke="#2b4a57" stroke-width=".5"
                d="M484.238,673.514l-.109,1.029h-.515a.582.582,0,0,0,.495.653"
                transform="translate(-449.016 -594.929)" />
            <path id="Path_7633" fill="#fff"
                d="M484.718,679.367c.067.4-.085.766-.338.808s-.513-.252-.58-.656.085-.766.339-.808.513.252.579.656"
                transform="translate(-449.116 -597.93)" />
            <path id="Path_7634" fill="#0b3236" d="M479.294,935.3H471.1l-.445-2.968h8.638Z"
                transform="translate(-441.53 -744.487)" />
            <path id="Path_7635" fill="#0b3236" d="M516.235,935.3H508.32l-.445-2.968h8.361Z"
                transform="translate(-463.036 -744.487)" />
            <path id="Path_7636" fill="#fff"
                d="M401.662,638.742a12.362,12.362,0,1,0,12.362-12.362,12.362,12.362,0,0,0-12.362,12.362"
                transform="translate(-401.662 -567.693)" />
            <path id="Path_7637" fill="#fff" d="M442.387,661.727l8.09,11.579-11.727-5.189Z"
                transform="translate(-423.093 -588.118)" />
            <path id="Path_7638" fill="#1b508c"
                d="M424.465,647.075a6.207,6.207,0,0,1,.868-2.647c.667-1.268,3.248-3.559,1.112-4.337-1.357-.578-1.334.934-2.113,1.223a22.041,22.041,0,0,1-2.714-.045v-.022A4.8,4.8,0,0,1,426,636.621c2.736-.245,5.139,1.713,4.827,4.36a4.591,4.591,0,0,1-1.045,2.358c-.467.645-.89.934-1.335,1.534a6.311,6.311,0,0,0-1.09,2.714,1.487,1.487,0,0,0-.089.756v.022c-.912.111-1.824-.022-2.736.044h-.022c-.111-.111-.089-.333-.089-.489Zm.044,5.249h-.067a20.212,20.212,0,0,1-.022-2.58,6.209,6.209,0,0,1,2.781-.045c0,.045-.133,2.18-.133,2.6v.045h-.045Z"
                transform="translate(-413.193 -573.598)" />
        </g>
    </g>
</svg>