<svg id="pending-icon" xmlns="http://www.w3.org/2000/svg" xmlns:xlink="http://www.w3.org/1999/xlink" width="24" height="24" viewBox="0 0 24 24">
  <defs>
    <clipPath id="clip-path">
      <rect id="Rectangle_144691" data-name="Rectangle 144691" width="20" height="21.875" transform="translate(0 0)" fill="#cc7600"/>
    </clipPath>
  </defs>
  <rect id="Rectangle_144711" data-name="Rectangle 144711" width="24" height="24" fill="#fff" opacity="0"/>
  <g id="Group_29145" data-name="Group 29145" transform="translate(2 0.997)">
    <g id="Group_29140" data-name="Group 29140" transform="translate(0 0.003)" clip-path="url(#clip-path)">
      <path id="Path_9576" data-name="Path 9576" d="M20.075,726.908a9.2,9.2,0,0,1-1.227.082h-.015a.435.435,0,1,0,0,.87h.016a10.067,10.067,0,0,0,1.343-.09.435.435,0,0,0-.116-.862m-3.3-.155a9.056,9.056,0,0,1-1.189-.364.435.435,0,0,0-.311.812,9.928,9.928,0,0,0,1.3.4.435.435,0,0,0,.2-.847m6.436-.873a9.1,9.1,0,0,1-1.13.52.435.435,0,0,0,.308.813,9.947,9.947,0,0,0,1.238-.569.435.435,0,1,0-.416-.763m-9.461-.447a9.177,9.177,0,0,1-.982-.764.435.435,0,1,0-.579.648,10.034,10.034,0,0,0,1.075.837.435.435,0,1,0,.486-.721M25.779,723.8a9.225,9.225,0,0,1-.873.887.435.435,0,1,0,.577.65,10.074,10.074,0,0,0,.955-.971.435.435,0,1,0-.66-.566m-14.389-.678a9.143,9.143,0,0,1-.648-1.062.435.435,0,1,0-.771.4,10.006,10.006,0,0,0,.709,1.163.435.435,0,1,0,.71-.5m16.053-2.174a9.082,9.082,0,0,1-.5,1.139.435.435,0,1,0,.77.4,9.95,9.95,0,0,0,.549-1.248.435.435,0,0,0-.818-.295M10,720.128a9.074,9.074,0,0,1-.225-1.223.435.435,0,1,0-.864.1,9.941,9.941,0,0,0,.247,1.34.435.435,0,1,0,.842-.216m17.975-2.437c0,.056,0,.112,0,.168a9.21,9.21,0,0,1-.063,1.075.435.435,0,0,0,.864.1,10.09,10.09,0,0,0,.069-1.176q0-.092,0-.184a.435.435,0,1,0-.869.016m-.655-3.236a9.059,9.059,0,0,1,.384,1.183.435.435,0,0,0,.844-.211,9.922,9.922,0,0,0-.421-1.3.435.435,0,1,0-.807.325m-1.767-2.789a9.171,9.171,0,0,1,.781.969.435.435,0,1,0,.712-.5,10.069,10.069,0,0,0-.855-1.061.435.435,0,1,0-.639.59" transform="translate(-8.848 -705.985)" fill="#cc7600" fill-rule="evenodd"/>
      <path id="Path_9577" data-name="Path 9577" d="M.93,280.222A9.136,9.136,0,0,1,10,270.04a.435.435,0,1,0,0-.87A10.006,10.006,0,0,0,.066,280.321a.435.435,0,1,0,.864-.1" transform="translate(0 -267.295)" fill="#cc7600" fill-rule="evenodd"/>
      <path id="Path_9578" data-name="Path 9578" d="M1251.352.73l1.435,1.583L1251.352,3.9a.435.435,0,1,0,.644.584l1.7-1.875a.435.435,0,0,0,0-.584L1252,.146a.435.435,0,1,0-.644.584" transform="translate(-1242.524 -0.004)" fill="#cc7600" fill-rule="evenodd"/>
      <path id="Path_9579" data-name="Path 9579" d="M928.839,957.784a.435.435,0,0,0-.435-.435h-6.291a.435.435,0,0,0-.435.435v1.361a3.457,3.457,0,0,0,1.788,3.028l1.718.947a.434.434,0,0,0,.434-.008l1.544-.928a3.458,3.458,0,0,0,1.677-2.964Zm-.87.435v1a2.588,2.588,0,0,1-1.255,2.218l-1.33.8-1.5-.826a2.588,2.588,0,0,1-1.339-2.266v-.926Z" transform="translate(-915.258 -950.681)" fill="#cc7600" fill-rule="evenodd"/>
      <path id="Path_9580" data-name="Path 9580" d="M790.1,957.349h-8.245a.435.435,0,1,0,0,.87H790.1a.435.435,0,0,0,0-.87" transform="translate(-775.98 -950.681)" fill="#cc7600" fill-rule="evenodd"/>
      <path id="Path_9581" data-name="Path 9581" d="M928.4,1674.485a.435.435,0,0,0,.435-.435v-1.436a3.456,3.456,0,0,0-1.677-2.963l-1.544-.928a.435.435,0,0,0-.434-.008l-1.718.947a3.457,3.457,0,0,0-1.788,3.028v1.361a.435.435,0,0,0,.435.435Zm-.435-.87h-5.422v-.926a2.587,2.587,0,0,1,1.339-2.266l1.5-.826,1.33.8a2.588,2.588,0,0,1,1.255,2.218Z" transform="translate(-915.258 -1657.038)" fill="#cc7600" fill-rule="evenodd"/>
      <path id="Path_9582" data-name="Path 9582" d="M790.1,2379.971h-8.245a.435.435,0,0,0,0,.87H790.1a.435.435,0,0,0,0-.87" transform="translate(-775.98 -2363.394)" fill="#cc7600" fill-rule="evenodd"/>
    </g>
  </g>
</svg>
